<?xml version="1.0" encoding="UTF-8" standalone="no"?>
<!DOCTYPE svg PUBLIC "-//W3C//DTD SVG 1.1//EN" "http://www.w3.org/Graphics/SVG/1.1/DTD/svg11.dtd">

<!-- Created with Vectornator (http://vectornator.io/) -->
<svg height="100%" stroke-miterlimit="10" style="fill-rule:nonzero;clip-rule:evenodd;stroke-linecap:round;stroke-linejoin:round;" version="1.1" viewBox="0 0 400 400" width="100%" xml:space="preserve" xmlns="http://www.w3.org/2000/svg" xmlns:vectornator="http://vectornator.io" xmlns:xlink="http://www.w3.org/1999/xlink">
<metadata>
<vectornator:setting key="IsTimeLapseWatermarkDisabled" value="false"/>
<vectornator:setting key="UndoHistoryDisabled" value="true"/>
<vectornator:setting key="VNDimensionsVisible" value="true"/>
<vectornator:setting key="VNSnapToGuides" value="true"/>
<vectornator:setting key="WDCMYKEnabledKey" value="false"/>
<vectornator:setting key="WDDisplayWhiteBackground" value="false"/>
<vectornator:setting key="WDDynamicGuides" value="false"/>
<vectornator:setting key="WDGuidesVisible" value="true"/>
<vectornator:setting key="WDIsolateActiveLayer" value="false"/>
<vectornator:setting key="WDOutlineMode" value="false"/>
<vectornator:setting key="WDRulersVisible" value="true"/>
<vectornator:setting key="WDSnapToEdges" value="false"/>
<vectornator:setting key="WDSnapToGrid" value="false"/>
<vectornator:setting key="WDSnapToPoints" value="false"/>
<vectornator:setting key="WDUnits" value="Pixels"/>
</metadata>
<defs/>
<g id="Layer-4" vectornator:layerName="Layer 4">
<path d="M202.698 351.521C201.937 356.077 198.777 360.17 197.754 364.774C197.371 366.499 195.946 368.677 195.524 370.39C194.864 373.071 193.188 376.22 193.595 379.012C194.176 382.991 202.011 382.136 204.294 379.364C206.738 376.397 207.355 372.81 208.433 369.28C209.503 365.778 209.856 363.69 210.499 360.066C211.094 356.714 211.982 352.317 213.46 349.24C214.002 348.109 213.165 347.263 213.336 345.998C213.697 343.322 213.279 342.051 217.518 341.239C217.885 341.168 218.268 340.729 218.592 340.916C219.25 341.298 217.845 347.907 217.654 349.091C216.87 353.943 216.489 358.642 216.058 363.479C215.977 364.39 215.699 365.973 216.074 366.825C217.197 369.383 220.74 370.765 223.471 370.62C226.932 370.437 227.447 366.487 227.177 363.583C226.907 360.68 226.926 358.23 226.609 355.528C226.147 351.58 222.185 341.574 230.32 341.857C232.27 341.925 234.055 342.549 235.883 342.771C237.413 342.957 241.32 343.017 242.719 342.708C246.381 341.901 248.877 341.062 251.834 343.252C252.187 343.513 250.781 345.845 251.001 346.225C251.944 347.851 250.756 348.132 251.544 350.021C251.971 351.043 251.056 354.207 251.228 355.301C251.638 357.906 251.023 359.603 251.228 361.881C251.434 364.16 251.419 366.483 251.568 368.688C251.694 370.543 255.877 371.876 258.02 371.191C260.961 370.25 262.59 369.162 263.027 366.646C263.421 364.377 261.576 359.831 261.635 357.61C261.761 352.849 261.765 348.869 259.972 344.604C259.408 343.264 260.714 339.651 262.669 340.141C263.592 340.372 263.724 342.066 263.805 342.646C263.994 344.014 263.598 345.257 263.661 346.606C263.758 348.694 264.69 350.443 264.586 352.647C264.471 355.079 265.421 356.764 266.002 359.045C267.678 365.625 269.494 370.39 270.914 375.476C271.387 377.17 274.159 379.958 275.733 380.601C277.273 381.229 279.128 380.3 280.952 380.134C286.201 379.655 283.019 373.945 282.567 371.393C281.72 366.604 279.723 362.07 277.622 357.676C276.758 355.869 277.083 355.339 276.074 353.599C275.477 352.571 274.6 350.303 274.204 349.113C273.403 346.706 271.518 341.438 272.81 338.954C273.546 337.539 277.236 336.649 278.526 335.805C281.115 334.111 281.118 330.13 280.632 327.421C280.265 325.368 278.689 324.36 278.032 322.59C277.38 320.834 276.485 318.651 275.053 317.409C273.52 316.079 270.376 316.2 270.401 313.892C270.445 309.899 273.227 304.745 274.259 300.164C274.671 298.331 275.383 295.213 276.029 293.456C277.307 289.974 277.252 288.951 278.229 285.189C278.889 282.65 280.37 279.562 280.385 277.02C280.396 275.134 281.831 272.566 282.135 270.689C283.333 263.274 288.735 253.887 284.599 246.553C283.538 244.669 282.536 242.419 280.952 240.943C279.645 239.726 276.598 238.88 275.393 237.993C274.188 237.107 271.541 236.426 269.884 235.729C266.01 234.097 258.322 232.492 254.178 232.321C247.364 232.039 243.193 232.346 236.264 232.941C230.136 233.468 222.95 233.57 217.08 235.271C211.497 236.888 206.911 238.177 202.217 241.737C201.521 242.265 200.101 244.812 199.693 245.675C198.926 247.297 198.872 250.005 198.836 251.767C198.745 256.3 201.6 260.569 202.687 264.863C203.407 267.711 204.275 270.813 204.94 273.617C205.34 275.304 206.022 271.695 206.899 273.422C207.444 274.497 207.08 272.436 208.15 271.432C208.847 270.777 208.957 271.052 209.295 270.981C209.806 270.873 211.556 275.822 212.367 275.882C212.529 275.894 212.608 275.949 212.753 276.006C213.086 276.137 213.556 276.409 213.803 276.621C214.056 276.839 214.167 277.121 214.182 276.968C214.276 275.94 213.598 272.908 213.321 271.037C212.425 264.968 211.622 261.233 209.269 255.519C208.308 253.187 206.456 251.524 208.684 249.452C210.878 247.412 221.649 244.485 224.908 244.46C228.458 244.433 231.718 242.998 233.416 242.645C235.115 242.292 239.074 242.368 241.244 241.964C243.22 241.596 246.257 242.512 248.281 242.375C252.578 242.084 260.449 245.28 264.729 245.821C266.669 246.067 278.554 248.754 279.364 250.813C280.503 253.708 275.823 256.974 275.149 259.927C274.571 262.46 272.706 272.152 270.601 273.424C267.853 275.086 262.942 273.215 260.099 272.802C250.97 271.475 240.266 272.042 231.034 272.142C225.944 272.197 216.738 270.951 215.585 277.302C215.287 278.943 215.004 282.474 216.699 283.568C218.863 284.966 226.929 283.436 229.613 282.942C238.351 281.334 247.054 280.951 255.928 280.897C260.004 280.873 269.121 281.639 268.402 287.549C267.697 293.339 264.856 298.764 263.86 304.497C263.597 306.008 263.304 310.732 261.666 311.509C259.598 312.49 254.621 310.364 252.483 310.173C246.597 309.648 241.775 309.771 235.799 309.808C231.915 309.831 226.408 311.202 222.979 308.787C221.635 307.84 221.402 303.493 220.691 302.113C218.492 297.843 219.659 297.434 218.781 293.244C218.37 291.28 217.409 288.45 217.176 286.433C217.005 284.957 217.206 283.787 216.594 282.409C215.686 280.367 214.825 278.74 211.871 279.141C205.688 279.978 207.063 281.918 208.296 286.374C209.322 290.084 209.195 294.125 210.418 297.748C210.947 299.316 211.298 302.315 211.747 303.908C212.359 306.075 214.338 307.606 214.47 309.808C214.49 310.139 212.925 310.822 212.779 311.129C211.659 313.499 206.232 312.427 204.205 313.501C202.206 314.561 199.912 315.951 198.208 317.461C197.262 318.299 197.198 319.579 196.667 320.669C194.417 325.293 193.322 331.495 197.655 335.392C199.798 337.319 203.499 336.432 205.626 338.611" fill="#825c4a" fill-rule="evenodd" opacity="1" stroke="none"/>
<path d="M204.841 272.594C205.405 273.91 206.141 275.273 206.532 276.641C206.834 277.699 206.901 281.358 207.861 282.199C208.98 283.177 213.782 284.39 214.506 282.32C214.744 281.642 214.052 279.977 214.023 279.178C213.916 276.172 213.813 271.386 210.942 269.573C210.32 269.181 209.785 269.297 209.13 268.969" fill="#825c4a" fill-rule="evenodd" opacity="1" stroke="none"/>
</g>
<g id="Layer-3" vectornator:layerName="Layer 3">
<path d="M232.184 309.835C221.414 309.21 197.34 313.002 196.073 321.449C195.195 327.3 225.62 332.731 239.152 332.43C248.655 332.219 277.797 330.319 278.431 322.927C279.064 315.536 261.959 310.257 233.873 309.835C232.044 309.807 246.755 310.679 232.184 309.835Z" fill="none" fill-rule="evenodd" opacity="1" stroke="#000000" stroke-linecap="round" stroke-linejoin="round" stroke-width="2.57573"/>
<path d="M196.166 322.41C194.732 323.843 194.552 330.853 194.483 333.143" fill="none" fill-rule="evenodd" opacity="1" stroke="#000000" stroke-linecap="round" stroke-linejoin="round" stroke-width="2.57573"/>
<path d="M278.812 324.345C279.695 326.112 279.788 332.401 279.788 334.325" fill="none" fill-rule="evenodd" opacity="1" stroke="#000000" stroke-linecap="round" stroke-linejoin="round" stroke-width="2.57573"/>
<path d="M194.738 333.888C202.66 339.17 216.116 340.644 221.106 341.496C226.097 342.348 236.808 342.713 243.015 342.713C249.28 342.713 264.06 341.445 268.819 340.035C275.392 338.088 278.667 334.868 279.53 334.436" fill="none" fill-rule="evenodd" opacity="1" stroke="#000000" stroke-linecap="round" stroke-linejoin="round" stroke-width="2.57573"/>
<path d="M402.279 281.938C402.023 282.535 401.767 283.131 401.512 283.728" fill="none" fill-rule="evenodd" opacity="1" stroke="#000000" stroke-linecap="round" stroke-linejoin="round" stroke-width="2.57573"/>
<path d="M428.356 344.311C429.111 346.575 428.908 345.384 428.908 347.895" fill="none" fill-rule="evenodd" opacity="1" stroke="#000000" stroke-linecap="round" stroke-linejoin="round" stroke-width="2.57573"/>
<path d="M262.656 312.056C262.656 306.354 265.358 299.906 266.791 294.413C269.764 283.017 272.513 271.419 275.061 259.953C275.541 257.794 280.918 247.036 284.986 249.477C287.721 251.118 283.73 264.099 283.056 266.569C279.721 278.799 277.141 291.206 273.132 303.235C271.932 306.833 271.573 310.487 269.823 313.986" fill="none" fill-rule="evenodd" opacity="1" stroke="#000000" stroke-linecap="round" stroke-linejoin="round" stroke-width="2.57573"/>
<path d="M222.682 308.473C220.619 299.219 217.056 290.125 215 280.904C213.21 272.872 212.295 264.551 209.777 256.644C209.025 254.284 204.877 242.44 200.252 244.515C196.548 246.176 199.264 253.927 199.945 256.369C203.199 268.049 206.823 279.506 209.47 291.38C210.463 295.835 210.684 300.997 212.542 305.164C213.153 306.535 214.693 312.342 214.693 310.954" fill="none" fill-rule="evenodd" opacity="1" stroke="#000000" stroke-linecap="round" stroke-linejoin="round" stroke-width="2.57573"/>
<path d="M286.003 248.65C283.903 240.365 276.969 238.044 269.235 235.494C254.463 230.624 238.914 231.551 223.859 233.753C217.177 234.729 212.19 236.182 206.306 239.148C205.036 239.788 202.1 240.998 201.981 242.609" fill="none" fill-rule="evenodd" opacity="1" stroke="#000000" stroke-linecap="round" stroke-linejoin="round" stroke-width="2.57573"/>
<path d="M285.498 247.651C283.685 250.068 281.658 250.707 279.915 250.383C270.965 248.716 256.672 242.156 246.471 241.967C234.444 241.745 220.804 244.717 209.528 248.597C206.454 249.655 202.234 247.711 201.071 243.124" fill="none" fill-rule="evenodd" opacity="1" stroke="#000000" stroke-linecap="round" stroke-linejoin="round" stroke-width="2.57573"/>
<path d="M271.266 275.086C269.033 273.936 266.595 273.857 264.168 273.361C252.863 271.052 241.508 271.382 230.084 272.568C225.488 273.045 218.606 273.181 214.688 276.047" fill="none" fill-rule="evenodd" opacity="1" stroke="#000000" stroke-linecap="round" stroke-linejoin="round" stroke-width="2.57573"/>
<path d="M216.198 284.021C227.255 282.148 238.609 279.767 249.846 280.377C253.196 280.559 257.729 280.29 260.931 281.348C263.07 282.055 267.227 283.921 269.454 283.544" fill="none" fill-rule="evenodd" opacity="1" stroke="#000000" stroke-linecap="round" stroke-linejoin="round" stroke-width="2.57573"/>
<path d="M206.265 339.01C204.88 342.165 203.579 347.081 202.498 349.963C200.776 354.554 199.622 359.194 198.083 363.81C196.572 368.342 194.193 373.027 193.267 377.657C192.263 382.674 201.398 381.793 203.702 380.065C207.82 376.976 207.677 372.189 208.518 367.422C209.008 364.65 209.604 361.914 210.235 359.188C210.993 355.914 211.8 352.654 212.532 349.361C212.986 347.32 213.351 342.12 214.739 340.732" fill="none" fill-rule="evenodd" opacity="1" stroke="#000000" stroke-linecap="round" stroke-linejoin="round" stroke-width="2.57573"/>
<path d="M271.198 339.598C274.588 351.816 280.475 364.24 283.476 376.473C284.814 381.924 276.049 381.597 273.653 379.433C271.046 377.077 270.604 372.452 269.41 369.272C267.067 363.028 265.943 356.294 264.363 349.855C263.696 347.137 263.252 344.862 262.499 341.293" fill="none" fill-rule="evenodd" opacity="1" stroke="#000000" stroke-linecap="round" stroke-linejoin="round" stroke-width="2.57573"/>
<path d="M225.581 342.211C225.794 348.33 226.112 352.678 226.419 357.592C226.622 360.843 227.817 365.292 226.813 368.487C226.171 370.534 222.523 370.441 221.266 370.465C220.009 370.49 216.583 369.988 216.032 368.026C215.287 365.376 216.425 362.117 216.574 359.44C216.863 354.218 218.111 347.54 218.706 342.4" fill="none" fill-rule="evenodd" opacity="1" stroke="#000000" stroke-linecap="round" stroke-linejoin="round" stroke-width="2.57573"/>
<path d="M259.005 342.043C259.341 344.518 261.738 355.439 262.041 358.875C262.302 361.832 263.672 364.85 263.124 367.784C262.73 369.896 258.582 371.176 256.779 371.059C255.544 370.978 253.02 371.296 252.012 370.383C250.912 369.388 251.287 366.596 251.229 365.322C251.011 360.561 251.04 355.518 251.265 350.772C251.328 349.433 251.024 345.666 251.306 343.316" fill="none" fill-rule="evenodd" opacity="1" stroke="#000000" stroke-linecap="round" stroke-linejoin="round" stroke-width="2.57573"/>
</g>
</svg>
