<?xml version="1.0" encoding="UTF-8" standalone="no"?>
<!DOCTYPE svg PUBLIC "-//W3C//DTD SVG 1.1//EN" "http://www.w3.org/Graphics/SVG/1.1/DTD/svg11.dtd">

<!-- Created with Vectornator (http://vectornator.io/) -->
<svg height="100%" stroke-miterlimit="10" style="fill-rule:nonzero;clip-rule:evenodd;stroke-linecap:round;stroke-linejoin:round;" version="1.1" viewBox="0 0 400 400" width="100%" xml:space="preserve" xmlns="http://www.w3.org/2000/svg" xmlns:vectornator="http://vectornator.io" xmlns:xlink="http://www.w3.org/1999/xlink">
<metadata>
<vectornator:setting key="IsTimeLapseWatermarkDisabled" value="false"/>
<vectornator:setting key="UndoHistoryDisabled" value="true"/>
<vectornator:setting key="VNDimensionsVisible" value="true"/>
<vectornator:setting key="VNSnapToGuides" value="true"/>
<vectornator:setting key="WDCMYKEnabledKey" value="false"/>
<vectornator:setting key="WDDisplayWhiteBackground" value="false"/>
<vectornator:setting key="WDDynamicGuides" value="false"/>
<vectornator:setting key="WDGuidesVisible" value="true"/>
<vectornator:setting key="WDIsolateActiveLayer" value="false"/>
<vectornator:setting key="WDOutlineMode" value="false"/>
<vectornator:setting key="WDRulersVisible" value="true"/>
<vectornator:setting key="WDSnapToEdges" value="false"/>
<vectornator:setting key="WDSnapToGrid" value="false"/>
<vectornator:setting key="WDSnapToPoints" value="false"/>
<vectornator:setting key="WDUnits" value="Pixels"/>
</metadata>
<defs/>
<g id="Layer-2" vectornator:layerName="Layer 2"/>
<g id="Layer-1" vectornator:layerName="Layer 1">
<g opacity="1">
<path d="M166.76 127.954C155.908 135.621 156.24 152.394 155.256 164.208C154.378 174.74 153.918 186.408 156.536 196.883C157.852 202.146 160.869 211.145 165.114 214.783C171.418 220.187 179.961 226.433 187.792 229.281C192.403 230.958 198.587 231.06 203.13 229.978C204.252 229.711 209.589 228.241 210.567 227.77C214.174 226.034 220.936 222.05 223.466 219.52C229.389 213.597 234.168 209.656 236.48 200.695C237.16 198.06 237.533 192.779 238.804 190.237C241.275 185.295 241.706 188.777 244.033 184.66C246.751 179.851 248.384 168.932 242.871 165.487C240.092 163.75 235.577 164.239 234.621 160.141C233.822 156.718 233.627 154.974 233.545 151.386C233.413 145.547 234.399 135.861 230.748 130.688C228.129 126.978 224.574 124.805 220.677 123.538C217.091 122.373 214.208 122.069 210.424 121.179C205.696 120.066 201.614 121.663 196.999 121.365C190.788 120.965 183.29 120.108 177.234 121.925C173.595 123.016 170.055 125.625 166.76 127.954Z" fill="#ecc4ae" fill-rule="evenodd" opacity="1" stroke="none"/>
<path d="M191.771 112.017C188.472 113.117 185.202 112.833 181.891 113.306C178.737 113.756 175.724 115.685 173.156 117.172C171.899 117.9 170.602 117.554 169.29 118.604C165.799 121.397 163.944 124.951 162.846 129.343C162.731 129.806 162.42 130.562 162.846 130.775C163.13 130.917 167.303 128.122 167.858 127.768C170.442 126.119 173.421 124.373 176.45 123.616C179.426 122.872 183.432 121.754 186.473 121.754C187.493 121.754 188.461 122.371 189.48 122.327C198.089 121.953 207.134 118.908 215.111 122.327C217.197 123.221 219.723 123.808 221.841 124.761C225.054 126.207 228.286 127.484 230.29 130.202C231.707 132.127 231.033 134.533 232.151 136.646C233.267 138.754 232.52 141.431 232.438 143.663C232.286 147.751 232.677 152.565 233.297 156.55C233.943 160.701 236.325 162.775 240.027 164.139C240.106 164.168 242.48 164.721 242.604 164.569C244.263 162.527 243.958 154.773 244.179 152.111C244.257 151.176 244.947 150.327 244.895 149.39C244.847 148.514 244.074 147.815 243.893 146.956C242.689 141.235 242.134 135.727 239.74 130.202C238.38 127.064 236.176 124.31 235.015 121.325C233.958 118.608 229.991 118.677 228.428 116.456C228.008 115.859 228.404 114.916 227.999 114.308C227.667 113.811 226.871 113.846 226.424 113.449C225.542 112.666 225.396 111.276 224.562 110.442C222.764 108.644 213.137 107.603 210.672 108.151" fill="#78695f" fill-rule="evenodd" opacity="1" stroke="none"/>
<path d="M172.379 223.95C167.562 226.625 167.189 230.735 165.894 235.658C162.654 247.971 164.752 260.161 163.372 272.584C163.086 275.156 161.441 277.59 160.85 280.149C160.079 283.491 159.432 287.392 159.229 290.777C159 294.593 159.215 309.884 162.652 312.032C168.286 315.553 177.551 316.796 183.793 316.536C188.944 316.322 193.218 316.295 198.497 316.175C200.184 316.136 207.746 316.083 209.358 315.871C214.144 315.241 215.279 315.272 220.112 314.914C222.527 314.735 224.47 313.657 226.777 313.293C231.433 312.557 233.401 313.682 237.986 312.409C238.51 312.263 240.949 312.545 241.315 312.142C242.194 311.176 242.268 302.47 242.268 301.044C242.268 296.059 242.452 290.644 241.547 285.733C240.764 281.481 238.917 277.516 237.945 273.304C237.236 270.233 235.851 267.48 234.883 264.478C234.441 263.109 234.643 264.873 234.658 264.873C236.04 264.873 236.782 271.664 237.585 271.503C237.779 271.464 238.539 260.393 238.485 259.254C238.058 250.294 237.374 227.69 229.331 222.663C227.665 221.621 222.318 220.888 220.292 221.968C211.369 226.727 204.959 238.003 194.174 239.621C192.277 239.905 191.31 237.45 189.851 236.558C185.617 233.971 183.786 230.331 180.124 227.192" fill="#353967" fill-rule="evenodd" opacity="1" stroke="none"/>
<path d="M163.05 314.841C160.018 315.945 163.627 322.08 163.78 325.304C164.195 334.005 166.573 342.546 167.998 351.096C168.424 353.654 169.49 356.122 169.62 358.72C169.741 361.147 170.032 372.627 171.242 373.481C176.554 377.23 184.591 378.992 191.032 378.348C192.727 378.178 194.376 377.154 196.061 376.888C198.553 376.494 201.392 377.083 203.847 376.401C206.248 375.734 204.296 375.195 206.929 375.59C208.634 375.846 209.913 376.855 211.471 377.374C215.871 378.841 221.543 379.205 226.071 378.023C231.384 376.637 232.157 377.781 233.782 373.311C234.483 371.384 234.984 367.345 235.363 365.263C235.692 363.453 235.701 362.186 235.479 360.342C235.019 356.508 237.259 345.663 237.375 349.741C237.491 353.82 237.649 345.241 237.806 343.274C238.118 339.372 239.243 337.228 239.243 333.214C239.243 328.19 238.477 327.859 239.531 323.01C239.585 322.761 239.36 312.969 240.346 313.462C241.797 314.188 240.183 318.328 240.183 318.328C240.183 318.328 241.537 314.72 240.508 313.462C239.932 312.758 236.404 313.504 235.641 313.624C233.083 314.028 231.024 313.557 228.465 313.668C226.07 313.772 222.689 314.614 220.393 315.408C215.369 317.148 213.395 316.6 208.227 317.031C196.839 317.98 185.789 318.21 174.487 316.057C170.812 315.357 166.529 313.573 163.05 314.841Z" fill="#dbc8a6" fill-rule="evenodd" opacity="1" stroke="none"/>
<path d="M183.728 229.878C184.07 233.883 190.348 238.128 194.497 239.166C196.985 239.787 203.426 236.193 205.226 234.522C206.202 233.615 211.358 230.539 211.231 229.398C211.066 227.912 202.026 230.758 200.422 230.919C197.101 231.251 192.286 232.209 189.053 231.239C187.271 230.705 183.567 227.981 183.728 229.878Z" fill="#eae7e1" fill-rule="evenodd" opacity="1" stroke="none"/>
<path d="M195.311 231.982C195.883 237.135 196.661 235.684 197.864 232.074" fill="#ecc4ae" fill-rule="evenodd" opacity="1" stroke="none"/>
<path d="M168.945 376.217C166.084 378.006 164.455 386.226 168.115 388.259C169.795 389.193 170.144 389.55 171.852 390.024C173.786 390.561 173.307 389.115 175.382 389.609C178.942 390.457 182.886 389.974 186.49 390.543C189.253 390.98 192.742 391.535 195.521 391.27C197.304 391.1 199.547 389.672 201.127 388.882C205.05 386.921 204.87 383.613 204.034 379.851C203.836 378.959 203.311 376.696 202.165 376.632C199.806 376.501 196.801 377.934 194.483 378.397C191.955 378.903 189.343 378.103 186.801 377.982C183.455 377.823 180.575 378.149 177.25 377.151C175.609 376.659 174.292 375.433 172.683 375.075" fill="#2e2e2e" fill-rule="evenodd" opacity="1" stroke="none"/>
<path d="M204.07 374.714C203.062 377.235 204.31 379.207 204.952 381.561C205.275 382.745 205.281 384.159 205.765 385.29C207.983 390.464 216.341 390.51 221.29 391.256C226.239 392.002 224.525 391.551 225.697 391.663C228.85 391.963 232.945 390.927 235.866 389.629C236.984 389.132 239.243 386.799 239.595 385.629C239.862 384.738 239.184 384.767 239.052 383.934C238.577 380.927 237.027 377.38 233.629 376.409C231.67 375.849 229.74 377.334 227.866 377.629C224.424 378.173 215.867 379.867 212.816 378.172" fill="#2e2e2e" fill-rule="evenodd" opacity="1" stroke="none"/>
<path d="M177.361 243.962C172.092 246.597 170.73 254.845 168.831 259.909C164.498 271.464 160.587 274.201 159.594 287.601C159.143 293.698 158.459 298.104 161.414 311.828" fill="none" fill-rule="evenodd" opacity="1" stroke="#000000" stroke-linecap="round" stroke-linejoin="round" stroke-width="2.57573"/>
<path d="M225.768 244.089C226.338 244.9 229.033 244.843 230.933 255.287C231.975 261.021 236.582 268.173 239.602 278.418C242.596 288.575 242.607 301.769 241.71 311.795" fill="none" fill-rule="evenodd" opacity="1" stroke="#000000" stroke-linecap="round" stroke-linejoin="round" stroke-width="2.57573"/>
<path d="M161.785 312.199C161.044 311.828 163.207 313.106 164.01 313.311C168.779 314.529 173.627 315.423 178.473 316.278C185.535 317.524 192.816 316.406 199.983 316.649C214.234 317.132 227.869 312.57 241.889 312.57" fill="none" fill-rule="evenodd" opacity="1" stroke="#000000" stroke-linecap="round" stroke-linejoin="round" stroke-width="2.57573"/>
<path d="M162.156 313.682C162.156 333.531 169.944 352.684 169.944 372.276" fill="none" fill-rule="evenodd" opacity="1" stroke="#000000" stroke-linecap="round" stroke-linejoin="round" stroke-width="2.57573"/>
<path d="M241.518 312.199C239.218 319.097 239.873 328.06 238.922 335.192C237.485 345.965 236.04 356.682 234.843 367.455C234.547 370.119 233.359 373.034 233.359 375.614" fill="none" fill-rule="evenodd" opacity="1" stroke="#000000" stroke-linecap="round" stroke-linejoin="round" stroke-width="2.57573"/>
<path d="M169.944 373.389C169.545 373.19 170.274 374.331 170.686 374.502C173.684 375.742 176.799 376.721 179.957 377.468C187.047 379.148 197.782 378.987 204.062 374.502" fill="none" fill-rule="evenodd" opacity="1" stroke="#000000" stroke-linecap="round" stroke-linejoin="round" stroke-width="2.57573"/>
<path d="M202.208 334.45C200.558 341.05 202.791 348.045 202.95 354.847C203.065 359.793 201.003 369.496 203.32 374.131" fill="none" fill-rule="evenodd" opacity="1" stroke="#000000" stroke-linecap="round" stroke-linejoin="round" stroke-width="2.57573"/>
<path d="M204.433 374.131C210.215 379.913 226.606 379.362 234.101 375.614" fill="none" fill-rule="evenodd" opacity="1" stroke="#000000" stroke-linecap="round" stroke-linejoin="round" stroke-width="2.57573"/>
<path d="M170.686 375.243C166.629 375.243 163.776 383.832 166.235 387.11C170.4 392.663 199.442 393.349 204.433 387.11C207.072 383.812 202.95 378.854 202.95 375.243" fill="none" fill-rule="evenodd" opacity="1" stroke="#000000" stroke-linecap="round" stroke-linejoin="round" stroke-width="2.57573"/>
<path d="M233.997 376.358C237.058 377.123 241.997 385.268 238.551 387.852C231.264 393.318 224.153 392.915 215.929 390.448C210.301 388.76 207.325 390.223 205.175 383.773" fill="none" fill-rule="evenodd" opacity="1" stroke="#000000" stroke-linecap="round" stroke-linejoin="round" stroke-width="2.57573"/>
<path d="M174.343 223.842C170.09 221.716 166.376 231.348 165.745 234.503C162.878 248.84 163.174 256.823 163.174 271.262" fill="none" fill-rule="evenodd" opacity="1" stroke="#000000" stroke-linecap="round" stroke-linejoin="round" stroke-width="2.57573"/>
<path d="M223.175 221.091C232.46 221.091 233.867 228.772 235.899 236.222C237.574 242.364 238.552 247.365 238.306 253.761C238.098 259.169 238.673 266.694 237.878 272.673" fill="none" fill-rule="evenodd" opacity="1" stroke="#000000" stroke-linecap="round" stroke-linejoin="round" stroke-width="2.57573"/>
<g opacity="1">
<path d="M231.825 132.051C231.587 131.655 231.49 131.129 231.112 130.863C227.18 128.096 223.499 124.723 219 123.026C214.275 121.244 209.044 121.307 204.037 120.651C202.387 120.435 200.71 120.305 199.05 120.413C192.226 120.86 185.395 121.355 178.624 122.313C172.236 123.217 167.584 125.885 164.541 128.928C162.087 131.382 160.563 132.911 159.387 136.801C158.454 139.883 158.183 140.894 157.724 142.976C155.913 151.184 155.458 156.75 155.112 165.064C154.48 180.227 153.09 201.636 163.187 213.752C169.171 220.933 176.294 224.462 184.324 228.477C199.385 236.007 215.675 226.577 222.8 220.164C229.925 213.752 236.337 205.202 237.525 197.602" fill="none" fill-rule="evenodd" opacity="1" stroke="#000000" stroke-linecap="round" stroke-linejoin="round" stroke-width="2.57573"/>
<path d="M234.036 168.893C235.905 163.495 242.294 163.234 245.228 167.808C247.027 170.615 246.988 174.555 246.484 177.865C246.069 180.586 245.064 182.707 243.977 185.499C242.891 188.291 237.805 189.836 234.651 186.228" fill="none" fill-rule="evenodd" opacity="1" stroke="#000000" stroke-linecap="round" stroke-linejoin="round" stroke-width="2.57573"/>
<path d="M238.162 189.292C238.548 192.232 237.076 195.239 237.424 197.889" fill="none" fill-rule="evenodd" opacity="1" stroke="#000000" stroke-linecap="round" stroke-linejoin="round" stroke-width="2.57573"/>
<path d="M231.157 131.121C231.981 134.285 232.638 136.827 232.971 140.213C233.62 146.806 231.128 159.51 237.605 164.485" fill="none" fill-rule="evenodd" opacity="1" stroke="#000000" stroke-linecap="round" stroke-linejoin="round" stroke-width="2.57573"/>
<path d="M159.753 135.563C159.753 131.199 162.482 127.253 164.3 123.286C167.193 116.974 170.45 117.36 176.122 114.419C181.324 111.722 187.095 112.568 192.946 111.691C200.108 110.616 208.09 107.562 215.455 108.053C217.259 108.173 217.35 108.856 218.865 109.417C220.485 110.017 222.239 110.2 223.867 110.781C226.42 111.693 226.713 114.699 227.959 116.692C229.409 119.013 233.446 119.309 235.234 121.694C236.711 123.663 236.935 126.422 238.19 128.515C239.946 131.441 241.146 133.141 242.055 136.472C243.218 140.737 245.089 144.917 245.465 149.432C245.773 153.123 244.33 156.922 243.874 160.572C243.717 161.828 244.222 164.317 243.419 165.119" fill="none" fill-rule="evenodd" opacity="1" stroke="#000000" stroke-linecap="round" stroke-linejoin="round" stroke-width="2.57573"/>
<path d="M190.437 162.373C190.437 168.184 184.756 177.325 186.756 183.326C188.25 187.807 194.849 189.227 196.95 185.025" fill="none" fill-rule="evenodd" opacity="1" stroke="#000000" stroke-linecap="round" stroke-linejoin="round" stroke-width="2.57573"/>
<path d="M182.792 205.978C183.039 205.321 183.314 203.025 184.774 203.146C186.618 203.3 188.089 204.874 189.871 205.128C192.316 205.478 201.48 200.327 201.48 205.695" fill="none" fill-rule="evenodd" opacity="1" stroke="#000000" stroke-linecap="round" stroke-linejoin="round" stroke-width="2.57573"/>
<path d="M172.033 212.207C174.968 215.73 178.735 219.853 183.075 221.551C191.402 224.809 207.034 225.167 211.673 215.888" fill="none" fill-rule="evenodd" opacity="1" stroke="#000000" stroke-linecap="round" stroke-linejoin="round" stroke-width="2.57573"/>
<path d="M185.171 162.394C187.75 159.921 193.824 161.28 196.998 161.985" fill="none" fill-rule="evenodd" opacity="1" stroke="#000000" stroke-linecap="round" stroke-linejoin="round" stroke-width="2.57573"/>
<path d="M237.794 164.163C237.923 164.192 238.051 164.22 238.18 164.249" fill="none" fill-rule="evenodd" opacity="1" stroke="#000000" stroke-linecap="round" stroke-linejoin="round" stroke-width="2.57573"/>
<path d="M153.557 156.34C154.425 159.814 154.613 166.919 156.964 169.741C161.694 175.416 167.691 174.216 174.579 174.402C176.21 174.446 180.272 173.931 181.493 172.466C184.701 168.616 185.354 161.349 185.354 156.567" fill="none" fill-rule="evenodd" opacity="1" stroke="#000000" stroke-linecap="round" stroke-linejoin="round" stroke-width="2.57573"/>
<path d="M197.846 157.476C197.085 159.759 198.118 166.493 198.3 168.378C199.16 177.26 205.739 176.259 212.723 176.734C217.206 177.039 220.225 176.824 222.603 175.873C229.24 173.218 229.416 161.305 229.416 156.795" fill="none" fill-rule="evenodd" opacity="1" stroke="#000000" stroke-linecap="round" stroke-linejoin="round" stroke-width="2.57573"/>
<path d="M153.216 155.787C154.188 154.801 153.882 154.937 156.134 154.656C158.744 154.33 161.371 154.144 163.997 153.995C166.99 153.825 169.987 154.248 172.979 154.435C175.345 154.583 184.562 155.037 185.905 156.361" fill="none" fill-rule="evenodd" opacity="1" stroke="#000000" stroke-linecap="round" stroke-linejoin="round" stroke-width="2.57573"/>
<path d="M198.215 156.878C205.695 155.327 213.514 155.415 221.107 155.807C222.201 155.864 227.523 155.522 228.882 156.861" fill="none" fill-rule="evenodd" opacity="1" stroke="#000000" stroke-linecap="round" stroke-linejoin="round" stroke-width="2.57573"/>
<path d="M229.263 156.902C229.578 158.173 231.271 158.592 232.351 159.333C233.903 160.397 236.364 162.847 237.741 164.46" fill="none" fill-rule="evenodd" opacity="1" stroke="#000000" stroke-linecap="round" stroke-linejoin="round" stroke-width="2.57573"/>
<g opacity="1">
<path d="M170.348 161.254C168.953 162.492 169.629 162.478 169.708 164.136C169.764 165.321 169.903 166.958 170.604 167.978C173.093 171.598 175.972 167.393 176.496 164.904C176.584 164.485 176.805 164.012 176.624 163.624C176.286 162.9 174.096 162.612 173.422 162.215C172.497 161.67 171.151 160.541 170.348 161.254Z" fill="#000000" fill-rule="evenodd" stroke="none"/>
<path d="M169.344 160.438C168.473 161.566 168.558 161.095 168.469 161.562C168.363 162.116 168.651 162.818 168.688 163.375C168.871 166.15 169.373 167.665 171.719 169.375C172.919 170.25 174.119 170.52 175.312 169.531C175.898 169.047 176.365 168.42 176.719 167.75C176.84 167.52 176.988 167.269 177.094 167.031C177.195 166.804 177.266 166.58 177.344 166.344C177.495 165.885 177.913 164.836 177.625 164.344C177.258 163.716 176.625 163.269 176.062 162.844C175.846 162.68 175.612 162.569 175.375 162.438C174.6 162.009 175.389 162.428 169.344 160.438ZM171.375 162.062C174.162 162.949 173.352 162.56 174.156 162.969C174.637 163.213 174.854 163.248 175.375 163.406C175.463 163.433 175.539 163.475 175.625 163.5C175.544 163.914 175.41 164.361 175.281 164.75C175.003 165.595 174.58 166.424 174.031 167.125C173.548 167.741 172.915 168.356 172.125 168.531C171.928 168.575 171.726 168.525 171.531 168.5C171.458 168.38 171.37 168.284 171.312 168.156C171.135 167.759 171.019 167.3 170.938 166.875C170.787 166.092 170.951 166.878 171.375 162.062Z" fill="#000000" stroke="none"/>
</g>
<path d="M213.648 161.812C213.585 162.115 209.335 162.803 207.75 163.821C205.874 165.026 206.63 166.581 206.779 166.916C207.378 168.267 207.425 168.836 208.552 169.793C209.634 170.713 211.605 170.456 212.788 170.205C214.824 169.773 215.695 166.985 216.487 165.089C217.618 162.38 218.019 160.871 213.71 161.857" fill="#000000" fill-rule="evenodd" opacity="1" stroke="none"/>
<path d="M238.743 173.413C238.864 173.065 239.36 172.733 239.762 172.873C241.138 173.351 240.338 176.65 240.219 177.44C240.157 177.848 239.959 180.188 239.543 179.569" fill="none" fill-rule="evenodd" opacity="1" stroke="#000000" stroke-linecap="round" stroke-linejoin="round" stroke-width="2.57573"/>
<path d="M178.553 159.026C173.605 157.583 168.499 158.06 163.406 158.246" fill="none" fill-rule="evenodd" opacity="1" stroke="#000000" stroke-linecap="round" stroke-linejoin="round" stroke-width="2.57573"/>
<path d="M220.573 158.749C215.991 158.896 211.816 159.604 207.369 160.71" fill="none" fill-rule="evenodd" opacity="1" stroke="#000000" stroke-linecap="round" stroke-linejoin="round" stroke-width="2.57573"/>
</g>
<path d="M181.286 227.076C180.614 228.421 191.049 238.177 195.576 239.309" fill="none" fill-rule="evenodd" opacity="1" stroke="#000000" stroke-linecap="round" stroke-linejoin="round" stroke-width="2.57573"/>
<path d="M196.082 239.469C200.618 238.629 213.098 230.024 215.314 225.554" fill="none" fill-rule="evenodd" opacity="1" stroke="#000000" stroke-linecap="round" stroke-linejoin="round" stroke-width="2.57573"/>
<path d="M194.708 231.993C195.289 234.168 195.753 236.342 196.276 238.536" fill="none" fill-rule="evenodd" opacity="1" stroke="#000000" stroke-linecap="round" stroke-linejoin="round" stroke-width="2.57573"/>
<path d="M198.604 231.268C198.031 233.487 197.491 235.7 196.859 237.902" fill="none" fill-rule="evenodd" opacity="1" stroke="#000000" stroke-linecap="round" stroke-linejoin="round" stroke-width="2.57573"/>
</g>
</g>
</svg>
