<?xml version="1.0" encoding="UTF-8" standalone="no"?>
<!DOCTYPE svg PUBLIC "-//W3C//DTD SVG 1.1//EN" "http://www.w3.org/Graphics/SVG/1.1/DTD/svg11.dtd">

<!-- Created with Vectornator (http://vectornator.io/) -->
<svg height="100%" stroke-miterlimit="10" style="fill-rule:nonzero;clip-rule:evenodd;stroke-linecap:round;stroke-linejoin:round;" version="1.1" viewBox="0 0 400 400" width="100%" xml:space="preserve" xmlns="http://www.w3.org/2000/svg" xmlns:vectornator="http://vectornator.io" xmlns:xlink="http://www.w3.org/1999/xlink">
<metadata>
<vectornator:setting key="IsTimeLapseWatermarkDisabled" value="false"/>
<vectornator:setting key="UndoHistoryDisabled" value="true"/>
<vectornator:setting key="VNDimensionsVisible" value="true"/>
<vectornator:setting key="VNSnapToGuides" value="true"/>
<vectornator:setting key="WDCMYKEnabledKey" value="false"/>
<vectornator:setting key="WDDisplayWhiteBackground" value="false"/>
<vectornator:setting key="WDDynamicGuides" value="false"/>
<vectornator:setting key="WDGuidesVisible" value="true"/>
<vectornator:setting key="WDIsolateActiveLayer" value="false"/>
<vectornator:setting key="WDOutlineMode" value="false"/>
<vectornator:setting key="WDRulersVisible" value="true"/>
<vectornator:setting key="WDSnapToEdges" value="false"/>
<vectornator:setting key="WDSnapToGrid" value="false"/>
<vectornator:setting key="WDSnapToPoints" value="false"/>
<vectornator:setting key="WDUnits" value="Pixels"/>
</metadata>
<defs/>
<g id="Layer-2" vectornator:layerName="Layer 2"/>
<g id="Layer-1" vectornator:layerName="Layer 1">
<g opacity="0">
<path d="M231.825 81.9595C231.587 81.5636 231.49 81.0376 231.112 80.7719C227.18 78.0044 223.499 74.6316 219 72.9344C214.275 71.1521 209.044 71.215 204.037 70.5593C202.387 70.3432 200.71 70.2132 199.05 70.3218C192.226 70.7682 185.395 71.2638 178.624 72.2218C172.236 73.1258 167.584 75.7934 164.541 78.8365C162.087 81.29 160.563 82.8191 159.387 86.7095C158.454 89.7919 158.183 90.803 157.724 92.8846C155.913 101.093 155.458 106.659 155.112 114.972C154.48 130.136 153.09 151.544 163.187 163.66C169.171 170.841 176.294 174.37 184.324 178.386C199.385 185.916 215.675 176.485 222.8 170.073C229.925 163.66 236.337 155.11 237.525 147.51" fill="none" fill-rule="evenodd" opacity="1" stroke="#000000" stroke-linecap="round" stroke-linejoin="round" stroke-width="2.57573"/>
<path d="M234.036 118.801C235.905 113.403 242.294 113.143 245.228 117.717C247.027 120.523 246.988 124.463 246.484 127.774C246.069 130.495 245.064 132.616 243.977 135.407C242.891 138.199 237.805 139.745 234.651 136.136" fill="none" fill-rule="evenodd" opacity="1" stroke="#000000" stroke-linecap="round" stroke-linejoin="round" stroke-width="2.57573"/>
<path d="M238.162 139.2C238.548 142.14 237.076 145.148 237.424 147.798" fill="none" fill-rule="evenodd" opacity="1" stroke="#000000" stroke-linecap="round" stroke-linejoin="round" stroke-width="2.57573"/>
<path d="M231.157 81.0298C231.981 84.1933 232.638 86.7352 232.971 90.1218C233.62 96.7145 231.128 109.419 237.605 114.394" fill="none" fill-rule="evenodd" opacity="1" stroke="#000000" stroke-linecap="round" stroke-linejoin="round" stroke-width="2.57573"/>
<path d="M159.753 85.4714C159.753 81.1073 162.482 77.1614 164.3 73.1942C167.193 66.8828 170.45 67.2687 176.122 64.3274C181.324 61.6301 187.095 62.4769 192.946 61.5992C200.108 60.5249 208.09 57.4705 215.455 57.9615C217.259 58.0818 217.35 58.7644 218.865 59.3256C220.485 59.9258 222.239 60.1085 223.867 60.6897C226.42 61.6018 226.713 64.6071 227.959 66.601C229.409 68.921 233.446 69.2179 235.234 71.6028C236.711 73.5713 236.935 76.331 238.19 78.4234C239.946 81.3498 241.146 83.0492 242.055 86.3808C243.218 90.6454 245.089 94.8257 245.465 99.34C245.773 103.032 244.33 106.83 243.874 110.48C243.717 111.736 244.222 114.225 243.419 115.027" fill="none" fill-rule="evenodd" opacity="1" stroke="#000000" stroke-linecap="round" stroke-linejoin="round" stroke-width="2.57573"/>
<path d="M190.437 112.281C190.437 118.092 184.756 127.233 186.756 133.234C188.25 137.715 194.849 139.136 196.95 134.933" fill="none" fill-rule="evenodd" opacity="1" stroke="#000000" stroke-linecap="round" stroke-linejoin="round" stroke-width="2.57573"/>
<path d="M182.792 155.886C183.039 155.229 183.314 152.933 184.774 153.055C186.618 153.208 188.089 154.782 189.871 155.037C192.316 155.386 201.48 150.236 201.48 155.603" fill="none" fill-rule="evenodd" opacity="1" stroke="#000000" stroke-linecap="round" stroke-linejoin="round" stroke-width="2.57573"/>
<path d="M172.033 162.115C174.968 165.638 178.735 169.761 183.075 171.459C191.402 174.718 207.034 175.076 211.673 165.796" fill="none" fill-rule="evenodd" opacity="1" stroke="#000000" stroke-linecap="round" stroke-linejoin="round" stroke-width="2.57573"/>
<path d="M185.171 112.303C187.75 109.83 193.824 111.189 196.998 111.893" fill="none" fill-rule="evenodd" opacity="1" stroke="#000000" stroke-linecap="round" stroke-linejoin="round" stroke-width="2.57573"/>
<path d="M237.794 114.071C237.923 114.1 238.051 114.129 238.18 114.157" fill="none" fill-rule="evenodd" opacity="1" stroke="#000000" stroke-linecap="round" stroke-linejoin="round" stroke-width="2.57573"/>
<path d="M153.557 106.249C154.425 109.722 154.613 116.828 156.964 119.649C161.694 125.325 167.691 124.124 174.579 124.31C176.21 124.354 180.272 123.84 181.493 122.375C184.701 118.525 185.354 111.258 185.354 106.476" fill="none" fill-rule="evenodd" opacity="1" stroke="#000000" stroke-linecap="round" stroke-linejoin="round" stroke-width="2.57573"/>
<path d="M197.846 107.384C197.085 109.668 198.118 116.402 198.3 118.286C199.16 127.169 205.739 126.168 212.723 126.643C217.206 126.947 220.225 126.732 222.603 125.781C229.24 123.126 229.416 111.214 229.416 106.703" fill="none" fill-rule="evenodd" opacity="1" stroke="#000000" stroke-linecap="round" stroke-linejoin="round" stroke-width="2.57573"/>
<path d="M153.216 105.695C154.188 104.709 153.882 104.846 156.134 104.565C158.744 104.239 161.371 104.052 163.997 103.903C166.99 103.734 169.987 104.156 172.979 104.344C175.345 104.492 184.562 104.945 185.905 106.269" fill="none" fill-rule="evenodd" opacity="1" stroke="#000000" stroke-linecap="round" stroke-linejoin="round" stroke-width="2.57573"/>
<path d="M198.215 106.787C205.695 105.235 213.514 105.323 221.107 105.715C222.201 105.772 227.523 105.43 228.882 106.77" fill="none" fill-rule="evenodd" opacity="1" stroke="#000000" stroke-linecap="round" stroke-linejoin="round" stroke-width="2.57573"/>
<path d="M229.263 106.81C229.578 108.082 231.271 108.5 232.351 109.241C233.903 110.306 236.364 112.756 237.741 114.369" fill="none" fill-rule="evenodd" opacity="1" stroke="#000000" stroke-linecap="round" stroke-linejoin="round" stroke-width="2.57573"/>
<g opacity="1">
<path d="M170.348 111.163C168.953 112.401 169.629 112.386 169.708 114.044C169.764 115.229 169.903 116.867 170.604 117.887C173.093 121.507 175.972 117.301 176.496 114.813C176.584 114.393 176.805 113.921 176.624 113.532C176.286 112.809 174.096 112.52 173.422 112.123C172.497 111.579 171.151 110.45 170.348 111.163Z" fill="#000000" fill-rule="evenodd" stroke="none"/>
<path d="M169.344 110.344C168.473 111.472 168.558 111.001 168.469 111.469C168.363 112.022 168.651 112.724 168.688 113.281C168.871 116.056 169.373 117.571 171.719 119.281C172.919 120.157 174.119 120.426 175.312 119.438C175.898 118.953 176.365 118.326 176.719 117.656C176.84 117.426 176.988 117.207 177.094 116.969C177.195 116.741 177.266 116.486 177.344 116.25C177.495 115.791 177.913 114.742 177.625 114.25C177.258 113.622 176.625 113.175 176.062 112.75C175.846 112.587 175.612 112.475 175.375 112.344C174.6 111.915 175.389 112.334 169.344 110.344ZM171.375 111.969C174.162 112.855 173.352 112.467 174.156 112.875C174.637 113.119 174.854 113.154 175.375 113.312C175.463 113.339 175.539 113.381 175.625 113.406C175.544 113.82 175.41 114.267 175.281 114.656C175.003 115.501 174.58 116.33 174.031 117.031C173.548 117.648 172.915 118.262 172.125 118.438C171.928 118.481 171.726 118.431 171.531 118.406C171.458 118.286 171.37 118.19 171.312 118.062C171.135 117.665 171.019 117.206 170.938 116.781C170.787 115.999 170.951 116.784 171.375 111.969Z" fill="#000000" stroke="none"/>
</g>
<path d="M213.648 111.72C213.585 112.023 209.335 112.712 207.75 113.73C205.874 114.935 206.63 116.489 206.779 116.825C207.378 118.176 207.425 118.744 208.552 119.702C209.634 120.622 211.605 120.364 212.788 120.113C214.824 119.681 215.695 116.894 216.487 114.998C217.618 112.288 218.019 110.78 213.71 111.766" fill="#000000" fill-rule="evenodd" opacity="1" stroke="none"/>
<path d="M238.743 123.322C238.864 122.973 239.36 122.642 239.762 122.781C241.138 123.26 240.338 126.558 240.219 127.349C240.157 127.757 239.959 130.096 239.543 129.478" fill="none" fill-rule="evenodd" opacity="1" stroke="#000000" stroke-linecap="round" stroke-linejoin="round" stroke-width="2.57573"/>
<path d="M178.553 108.935C173.605 107.492 168.499 107.968 163.406 108.154" fill="none" fill-rule="evenodd" opacity="1" stroke="#000000" stroke-linecap="round" stroke-linejoin="round" stroke-width="2.57573"/>
<path d="M220.573 108.657C215.991 108.805 211.816 109.512 207.369 110.619" fill="none" fill-rule="evenodd" opacity="1" stroke="#000000" stroke-linecap="round" stroke-linejoin="round" stroke-width="2.57573"/>
</g>
<g opacity="0">
<path d="M163.734 85.8158C162.174 90.1482 162.968 104.329 161.812 109.528C160.706 114.504 158.146 119.267 157.743 124.503C156.368 142.383 160.104 161.228 175.159 172.52C178.148 174.761 182.201 175.471 185.414 177.077" fill="none" fill-rule="evenodd" opacity="1" stroke="#000000" stroke-linecap="round" stroke-linejoin="round" stroke-width="2.57573"/>
<g opacity="1">
<path d="M184.612 177.174C191.585 177.878 197.961 179.794 204.326 175.954" fill="none" fill-rule="evenodd" opacity="1" stroke="#000000" stroke-linecap="round" stroke-linejoin="round" stroke-width="2.57573"/>
<g opacity="1">
<path d="M179.735 112.905C181.605 111.97 175.815 123.506 175.374 124.533C174.311 127.014 171.339 131.815 172.116 135.369C172.851 138.729 177.181 140.98 181.37 138.886" fill="none" fill-rule="evenodd" opacity="1" stroke="#000000" stroke-linecap="round" stroke-linejoin="round" stroke-width="2.57573"/>
<path d="M170.651 155.601C171.085 154.732 173.074 151.967 174.284 151.967C175.422 151.967 176.909 152.887 178.1 153.058C180.742 153.435 183.462 152.349 186.094 152.876C187.166 153.09 188.425 155.026 189.183 155.783" fill="none" fill-rule="evenodd" opacity="1" stroke="#000000" stroke-linecap="round" stroke-linejoin="round" stroke-width="2.57573"/>
<path d="M170.287 161.597C176.159 173.34 195.866 175.802 203.338 164.594" fill="none" fill-rule="evenodd" opacity="1" stroke="#000000" stroke-linecap="round" stroke-linejoin="round" stroke-width="2.57573"/>
<path d="M163.673 83.9161C165.093 78.2367 169.178 76.009 173.263 72.5074C175.217 70.8326 179.374 64.862 181.861 64.2402C183.59 63.808 185.751 64.1806 187.648 63.9095C189.414 63.6572 191.571 61.8352 193.601 61.4294C198.164 60.5167 203.683 60.0389 207.986 61.7601C209.748 62.4652 217.983 62.8285 218.733 63.5789C219.612 64.458 219.6 65.2457 221.048 65.7283C221.277 65.8047 222.735 65.8624 222.866 66.059C223.156 66.4928 223.032 68.5756 223.032 69.2005" fill="none" fill-rule="evenodd" opacity="1" stroke="#000000" stroke-linecap="round" stroke-linejoin="round" stroke-width="2.57573"/>
<path d="M224.597 69.286C225.774 70.4625 227.755 71.0919 229.099 72.167C234.253 76.2906 239.259 81.8628 242.244 87.8326C242.805 88.9544 244.224 90.3249 244.224 91.614" fill="none" fill-rule="evenodd" opacity="1" stroke="#000000" stroke-linecap="round" stroke-linejoin="round" stroke-width="2.57573"/>
<path d="M244.585 92.6944C246.425 93.6148 245.396 95.4894 245.845 96.8359C246.318 98.2559 248.903 98.7955 249.086 100.077C249.452 102.636 248.315 105.555 247.826 108C247.486 109.698 248.583 111.483 248.366 113.222C248.157 114.89 246.294 115.567 246.025 117.183C245.573 119.893 245.919 121.861 244.765 124.746C244.07 126.481 242.243 127.45 241.523 129.247C241.23 129.982 241.031 132.543 240.623 132.849C239.773 133.486 238.688 133.163 237.922 133.929" fill="none" fill-rule="evenodd" opacity="1" stroke="#000000" stroke-linecap="round" stroke-linejoin="round" stroke-width="2.57573"/>
<path d="M164.096 84.2313C163.619 85.1851 167.88 81.8879 168.057 81.7104C168.922 80.8458 171.628 79.0095 172.919 79.0095C177.43 79.0095 182.693 77.792 187.144 76.3085C188.987 75.6941 190.702 74.6493 192.726 75.4082C194.622 76.1192 195.92 78.1214 197.768 78.6493C203.885 80.3971 215.504 78.8289 219.015 85.8519C221.071 89.9625 218.583 95.4322 219.195 99.7169C219.471 101.648 221.702 102.86 221.896 104.219C222.279 106.898 221.881 108.862 222.977 111.601C225.168 117.08 234.141 116.678 234.141 120.965" fill="none" fill-rule="evenodd" opacity="1" stroke="#000000" stroke-linecap="round" stroke-linejoin="round" stroke-width="2.57573"/>
<path d="M224.369 124.591C225.618 123.342 226.563 122.077 228.151 121.17C232.04 118.947 236.54 121.558 237.154 125.852C237.587 128.885 237.366 132.111 236.235 134.79C235.18 137.287 233.335 139.309 230.491 140.257C228.307 140.985 227.231 140.418 225.63 138.816" fill="none" fill-rule="evenodd" opacity="1" stroke="#000000" stroke-linecap="round" stroke-linejoin="round" stroke-width="2.57573"/>
<path d="M204.731 175.845C209.123 174.223 215.518 170.449 218.561 167.913C226.022 161.696 232.127 144.175 231.793 139.839" fill="none" fill-rule="evenodd" opacity="1" stroke="#000000" stroke-linecap="round" stroke-linejoin="round" stroke-width="2.57573"/>
<path d="M164.632 113.267C163.554 114.108 164.527 114.469 164.725 115.799C164.995 117.606 166.425 121.159 168.754 121.092C170.694 121.036 174.014 117.643 172.744 115.658C171.758 114.118 170.372 114.259 168.901 113.696C167.244 113.061 166.06 112.152 164.632 113.267Z" fill="#000000" fill-rule="evenodd" opacity="1" stroke="none"/>
<path d="M190.626 116.524C189.107 118.102 189.921 118.739 190.912 120.53C195.312 128.491 204.437 111.395 197.249 113.818C194.99 114.579 192.355 114.728 190.626 116.524Z" fill="#000000" fill-rule="evenodd" opacity="1" stroke="none"/>
<path d="M164.007 109.32C166.043 109.32 167.95 110.401 169.952 110.401" fill="none" fill-rule="evenodd" opacity="1" stroke="#000000" stroke-linecap="round" stroke-linejoin="round" stroke-width="2.57573"/>
<path d="M190.059 111.374C193.575 110.495 197.32 110.401 200.978 110.401" fill="none" fill-rule="evenodd" opacity="1" stroke="#000000" stroke-linecap="round" stroke-linejoin="round" stroke-width="2.57573"/>
<path d="M154.038 107.973C154.038 109.315 154.657 114.07 155.209 116.335C156.386 121.161 158.809 126.716 162.439 127.169C165.061 127.497 168.056 127.973 170.712 127.594C171.391 127.497 172.961 127.18 173.576 127.488" fill="none" fill-rule="evenodd" opacity="1" stroke="#000000" stroke-linecap="round" stroke-linejoin="round" stroke-width="2.57573"/>
<path d="M179.917 108.147C180.601 110.197 179.917 112.127 179.917 114.192" fill="none" fill-rule="evenodd" opacity="1" stroke="#000000" stroke-linecap="round" stroke-linejoin="round" stroke-width="2.57573"/>
<path d="M180.789 113.205C182.46 112.992 183.263 113.479 184.386 114.727" fill="none" fill-rule="evenodd" opacity="1" stroke="#000000" stroke-linecap="round" stroke-linejoin="round" stroke-width="2.57573"/>
<path d="M184.765 111.25C183.718 116.554 184.402 123.657 187.431 128.177" fill="none" fill-rule="evenodd" opacity="1" stroke="#000000" stroke-linecap="round" stroke-linejoin="round" stroke-width="2.57573"/>
<path d="M187.341 127.909C194.169 127.909 204.395 130.862 210.765 127.677" fill="none" fill-rule="evenodd" opacity="1" stroke="#000000" stroke-linecap="round" stroke-linejoin="round" stroke-width="2.57573"/>
<path d="M210.328 128.065C213.148 122.426 215.894 116.594 215.894 109.976" fill="none" fill-rule="evenodd" opacity="1" stroke="#000000" stroke-linecap="round" stroke-linejoin="round" stroke-width="2.57573"/>
<path d="M184.558 109.124C184.558 107.837 191.865 107.964 193.139 107.733C199 106.667 211.358 105.654 216.562 109.124" fill="none" fill-rule="evenodd" opacity="1" stroke="#000000" stroke-linecap="round" stroke-linejoin="round" stroke-width="2.57573"/>
<path d="M216.328 109.304C216.584 110.644 219.44 111.516 220.52 112.25C223.328 114.158 230.623 120.023 233.912 120.463" fill="none" fill-rule="evenodd" opacity="1" stroke="#000000" stroke-linecap="round" stroke-linejoin="round" stroke-width="2.57573"/>
<path d="M179.142 107.439C170.845 106.966 162.271 105.138 154.062 107.364" fill="none" fill-rule="evenodd" opacity="1" stroke="#000000" stroke-linecap="round" stroke-linejoin="round" stroke-width="2.57573"/>
<path d="M229.248 127.438C231.45 125.236 232.224 130.237 231.806 131.7C231.538 132.635 230.227 133.642 229.675 134.47" fill="none" fill-rule="evenodd" opacity="1" stroke="#000000" stroke-linecap="round" stroke-linejoin="round" stroke-width="2.57573"/>
</g>
</g>
</g>
<path d="M147.32 558.771C147.32 552.798 144.501 546.17 143.006 540.436C141.347 534.08 139.673 527.68 138.152 521.292C135.206 508.916 134.917 496.198 134.917 483.544" fill="none" fill-rule="evenodd" opacity="1" stroke="#000000" stroke-linecap="round" stroke-linejoin="round" stroke-width="2.57573"/>
<path d="M142.197 550.143C138.16 534.67 127.321 517.313 133.568 501.07" fill="none" fill-rule="evenodd" opacity="1" stroke="#000000" stroke-linecap="round" stroke-linejoin="round" stroke-width="2.57573"/>
<path d="M131.411 558.232C131.124 545.856 128.967 534.523 127.097 522.371" fill="none" fill-rule="evenodd" opacity="1" stroke="#000000" stroke-linecap="round" stroke-linejoin="round" stroke-width="2.57573"/>
<g opacity="1">
<path d="M194.414 383.384C187.802 382.282 185.741 391.272 191.508 394.325C193.085 395.16 195.394 394.086 197.064 394.325C202.351 395.08 207.971 395.001 213.304 394.239C214.941 394.006 216.58 392.803 218.09 392.188C220.394 391.249 224.629 390.155 226.922 389.172C229.115 388.232 230.876 381.983 227.749 381.247C226.468 380.946 221.29 383.605 219.714 383.897C213.771 384.998 208.613 386.975 202.449 386.29" fill="#2e2e2e" fill-rule="evenodd" opacity="1" stroke="none"/>
<path d="M171.251 378.598C169.475 377.888 167.058 377.031 165.268 378.598C161.778 381.651 159.809 389.564 165.353 391.504C167.329 392.196 170.213 391.676 172.277 391.59C175.979 391.435 179.358 391.63 183.046 391.077C184.124 390.915 185.638 391.122 186.636 390.65C187.723 390.135 190.048 383.703 189.115 383.555C188.473 383.454 187.881 384 187.235 384.068C184.715 384.333 181.404 384.402 179.115 383.384" fill="#2e2e2e" fill-rule="evenodd" opacity="1" stroke="none"/>
<path d="M178.162 228.868C176.56 230.783 181.723 240.955 184.705 240.246C186.942 239.713 189.757 236.563 191.355 234.965C191.71 234.61 197.9 229.665 197.711 229.445C197.568 229.278 193.766 229.491 193.563 229.521C191.115 229.889 188.19 231.708 185.781 231.346C183.508 231.005 179.644 227.098 178.162 228.868Z" fill="#eae7e1" fill-rule="evenodd" opacity="1" stroke="none"/>
<path d="M163.916 317.727C159.355 320.253 163.473 328.047 164 333.049C165.182 344.276 167.516 355.511 169.724 366.554C170.42 370.031 169.262 373.741 170.408 376.555C171.312 378.774 174.124 380.291 177.132 381.707C181.651 383.833 186.865 383.219 191.325 382.475C192.01 382.361 193.741 381.362 194.482 381.686C196.33 382.494 198.032 383.629 200.03 384.569C206.164 387.456 213.159 385.48 219.148 384.054C221.506 383.493 225.989 383.33 227.502 381.62C229.015 379.91 227.327 373.775 227.568 369.978C228.094 361.69 227.142 344.868 229.475 332.617C229.861 330.594 231.586 318.806 229.278 317.883C228.179 317.443 225.447 318.737 224.275 318.569C222.195 318.272 221.148 320.866 219.382 322.588C217.645 324.282 215.187 325.095 213.163 325.809C210.669 326.689 208.27 324.549 206.215 322.466C205.28 321.518 204.781 319.748 203.734 319.748C197.393 319.748 190.789 321.263 184.372 321.263C179.985 321.263 174.804 320.067 170.418 318.916C167.959 318.27 166.111 316.512 163.916 317.727Z" fill="#dbc8a6" fill-rule="evenodd" opacity="1" stroke="none"/>
<path d="M176.983 230.15C170.559 231.735 170.47 246.328 168.276 252.087C166.145 257.68 165.639 263.827 162.832 269.161C156.562 281.074 149.843 288.223 153.553 302.443C154.55 306.265 156.113 310.621 158.873 313.578C163.484 318.518 172.896 319.583 179.287 319.888C182.747 320.052 184.039 320.173 187.494 320.691C190.24 321.103 200.457 322.477 202.424 321.125C204.55 319.663 203.818 316.728 203.908 314.568C204.029 311.679 205.216 307.375 206.506 304.793C207.423 302.96 208.331 302.283 210.719 303C211.574 303.256 214.327 304.156 215.125 304.555C217.664 305.824 219.629 305.407 222.467 305.536C223.24 305.571 225.506 305.138 226.055 306.031C226.523 306.791 222.554 316.847 224.818 317.413C225.655 317.623 231.619 317.717 231.886 316.65C232.614 313.737 231.408 307.533 231.251 304.546C230.866 297.231 231.209 290.041 232.739 282.647C234.772 272.821 236.019 263.077 235.255 253.148C234.2 239.434 232.66 228.268 219.468 220.206C217.803 219.188 216.657 220.652 215.622 221.487C213.745 223.004 212.55 223.638 209.946 225.058C206.494 226.941 204.306 226.826 201.151 229.238C198.829 231.014 196.247 231.742 193.841 233.506C192.271 234.657 186.07 240.771 183.989 240.333C180.313 239.559 181.363 234.579 179.782 232.662C179.304 232.083 177.711 229.97 176.983 230.15Z" fill="#353967" fill-rule="evenodd" opacity="1" stroke="none"/>
<path d="M183.04 229.829C183.617 232.427 184.171 234.031 185.182 233.96C186.619 233.859 188.628 231.081 189.915 229.022" fill="#ecc4ae" fill-rule="evenodd" opacity="1" stroke="none"/>
<path d="M209.207 303.843C206.748 307.706 204.82 312.424 204.701 317.07C204.659 318.695 205.433 321.907 206.947 323.345C209.264 325.546 212.958 325.514 215.311 324.338C221.475 321.256 223.414 313.675 224.759 307.622" fill="#ecc4ae" fill-rule="evenodd" opacity="1" stroke="none"/>
<path d="M172.583 243.578C169.317 246.517 168.383 250.789 166.699 255.121C164.75 260.134 165.113 262.96 164.094 265.677C162.152 270.857 158.497 275.69 156.194 280.131C153.359 285.597 152.051 290.57 152.192 296.093C152.425 305.25 155.547 311.262 161.414 316.122" fill="none" fill-rule="evenodd" opacity="1" stroke="#000000" stroke-linecap="round" stroke-linejoin="round" stroke-width="2.57573"/>
<path d="M230.335 292.595C231.672 303.1 232.726 307.159 231.829 317.185" fill="none" fill-rule="evenodd" opacity="1" stroke="#000000" stroke-linecap="round" stroke-linejoin="round" stroke-width="2.57573"/>
<path d="M161.785 316.493C161.044 316.122 163.207 317.4 164.01 317.606C168.779 318.823 173.627 319.717 178.473 320.572C185.535 321.818 196.618 320.353 203.785 320.596" fill="none" fill-rule="evenodd" opacity="1" stroke="#000000" stroke-linecap="round" stroke-linejoin="round" stroke-width="2.57573"/>
<path d="M162.156 317.976C162.156 337.826 169.944 356.978 169.944 376.571" fill="none" fill-rule="evenodd" opacity="1" stroke="#000000" stroke-linecap="round" stroke-linejoin="round" stroke-width="2.57573"/>
<path d="M229.631 318.223C230.522 326.236 228.666 332.507 228.207 345.111C227.898 353.6 227.671 367.165 227.189 371.5C226.893 374.164 228.31 377.328 228.31 379.908" fill="none" fill-rule="evenodd" opacity="1" stroke="#000000" stroke-linecap="round" stroke-linejoin="round" stroke-width="2.57573"/>
<path d="M190.778 337.021C190.778 344.964 193.757 354.963 193.916 361.764C194.031 366.71 191.969 376.413 194.286 381.048" fill="none" fill-rule="evenodd" opacity="1" stroke="#000000" stroke-linecap="round" stroke-linejoin="round" stroke-width="2.57573"/>
<path d="M176.398 230.366C171.174 234.808 169.665 245.417 169.034 248.571" fill="none" fill-rule="evenodd" opacity="1" stroke="#000000" stroke-linecap="round" stroke-linejoin="round" stroke-width="2.57573"/>
<path d="M225.052 225.058C228.087 227.524 229.073 229.4 230.441 231.394C232.115 233.835 233.58 237.677 234.311 242.851C235.648 252.311 235.071 262.16 234.825 268.556C234.617 273.964 231.12 294.634 226.105 305.548" fill="none" fill-rule="evenodd" opacity="1" stroke="#000000" stroke-linecap="round" stroke-linejoin="round" stroke-width="2.57573"/>
<path d="M215.717 250.37C215.717 250.37 216.977 260.955 215.668 271.693C215.067 276.616 214.208 283.947 212.965 289.375C211.377 296.304 209.427 300.831 209.427 300.831" fill="none" fill-rule="evenodd" opacity="1" stroke="#000000" stroke-linecap="round" stroke-linejoin="round" stroke-width="2.57573"/>
<path d="M176.886 230.278C176.886 230.024 176.83 229.637 177.191 229.517C177.577 229.389 179.218 233.81 179.32 234.081C179.983 235.847 182.196 239.492 183.884 240.167" fill="none" fill-rule="evenodd" opacity="1" stroke="#000000" stroke-linecap="round" stroke-linejoin="round" stroke-width="2.57573"/>
<path d="M183.884 240.015C185.464 238.961 187.508 238.783 189.057 237.428C192.791 234.161 194.732 232.92 198.788 230.216" fill="none" fill-rule="evenodd" opacity="1" stroke="#000000" stroke-linecap="round" stroke-linejoin="round" stroke-width="2.57573"/>
<path d="M208.921 300.999C209.817 301.447 210.372 302.622 211.28 303.189C213.811 304.771 218.164 305.235 221.051 305.716C221.923 305.862 224.779 306.685 225.263 305.716" fill="none" fill-rule="evenodd" opacity="1" stroke="#000000" stroke-linecap="round" stroke-linejoin="round" stroke-width="2.57573"/>
<path d="M210.269 303.526C208.282 299.551 204.65 312.107 204.541 312.624C203.537 317.394 203.608 320.371 205.691 322.551C206.912 323.83 208.824 324.834 211.617 325.764C217.417 327.698 223.148 317.715 224.252 313.298C224.395 312.728 225.862 306.344 225.095 306.727" fill="none" fill-rule="evenodd" opacity="1" stroke="#000000" stroke-linecap="round" stroke-linejoin="round" stroke-width="2.57573"/>
<path d="M231.647 317.398C230.869 317.136 224.425 317.837 223.198 318.446" fill="none" fill-rule="evenodd" opacity="1" stroke="#000000" stroke-linecap="round" stroke-linejoin="round" stroke-width="2.57573"/>
<path d="M171.064 378.111C175.491 384.751 187.488 385.077 194.026 381.808" fill="none" fill-rule="evenodd" opacity="1" stroke="#000000" stroke-linecap="round" stroke-linejoin="round" stroke-width="2.57573"/>
<path d="M194.416 381.419C200.557 390.631 219.898 384.147 228.664 381.225" fill="none" fill-rule="evenodd" opacity="1" stroke="#000000" stroke-linecap="round" stroke-linejoin="round" stroke-width="2.57573"/>
<path d="M170.091 378.5C164.16 375.534 161.724 382.384 161.724 386.868C161.724 387.421 161.475 388.759 161.918 389.203C167.014 394.298 181.515 392.084 187.676 390.472" fill="none" fill-rule="evenodd" opacity="1" stroke="#000000" stroke-linecap="round" stroke-linejoin="round" stroke-width="2.57573"/>
<path d="M174.283 126.863C171.255 128.828 169.377 132.175 167.186 135.044C165.439 137.331 164.323 139.584 163.437 141.886C162.217 145.053 161.431 148.314 160.031 151.883C158.01 157.037 152.787 161.776 149.348 166.008C146.83 169.105 142.324 173.04 142.728 177.58C143.277 183.755 149.367 181.553 151.46 184.361C153.615 187.25 151.215 193.327 153.651 196.354C155.661 198.853 161.138 197.132 163.15 199.651C165.968 203.179 153.826 201.215 154.485 204.897C154.82 206.77 157.842 206.801 158.729 207.483C159.653 208.194 159.505 210.365 159.71 211.263C160.371 214.168 163.704 217.757 165.801 219.907C170.192 224.408 174.192 227.225 180.282 227.931C181.765 228.103 184.341 230.165 188.646 229.639C191.82 229.251 202.174 228.278 204.854 227.358C211.597 225.044 223.077 215.679 225.992 208.871C226.936 206.664 226.119 204.227 226.81 202.032C227.568 199.62 228.759 196.806 229.799 194.456C231.558 190.481 233.859 178.967 231.303 174.934C226.323 167.078 217.403 167.486 210.966 161.207C204.661 155.058 206.967 138.69 198.577 130.989C196.725 129.29 193.618 128.913 191.442 128.556C186.637 127.766 184.047 126.051 179.048 125.711" fill="#ecc4ae" fill-rule="evenodd" opacity="1" stroke="none"/>
<path d="M193.832 382.781C189.342 382.781 187.994 386.641 187.994 390.565C187.994 390.984 187.742 392.759 187.994 393.095C188.548 393.834 191.714 394.399 192.47 394.457C202.698 395.244 215.037 395.043 223.994 390.565C228.009 388.557 229.947 389.25 228.747 382.048" fill="none" fill-rule="evenodd" opacity="1" stroke="#000000" stroke-linecap="round" stroke-linejoin="round" stroke-width="2.57573"/>
<path d="M182.568 230.271C182.568 231.363 184.269 234.467 184.482 235.535" fill="none" fill-rule="evenodd" opacity="1" stroke="#000000" stroke-linecap="round" stroke-linejoin="round" stroke-width="2.57573"/>
<path d="M183.47 238.921C183.47 236.223 187.786 233.182 189.257 231.221" fill="none" fill-rule="evenodd" opacity="1" stroke="#000000" stroke-linecap="round" stroke-linejoin="round" stroke-width="2.57573"/>
<path d="M225.418 225.15C224.117 223.886 222.214 221.304 219.193 219.565" fill="none" fill-rule="evenodd" opacity="1" stroke="#000000" stroke-linecap="round" stroke-linejoin="round" stroke-width="2.57573"/>
<path d="M198.497 229.539C208.244 226.165 212.321 223.292 218.897 219.089" fill="none" fill-rule="evenodd" opacity="1" stroke="#000000" stroke-linecap="round" stroke-linejoin="round" stroke-width="2.57573"/>
<path d="M179.583 117.862C178.214 118.608 169.058 123.701 175.24 125.484C177.344 126.09 179.658 125.442 181.792 125.929C186.648 127.037 197.529 128.978 200.71 132.907C204.453 137.53 205.262 145.023 206.437 150.731C206.93 153.126 206.778 155.644 208.27 157.793C210.06 160.371 213.411 164.708 216.04 166.505C217.777 167.692 220.346 167.517 222.129 168.52C223.131 169.083 223.728 170.335 224.83 170.66C227.273 171.38 228.95 171.551 231.226 173.407C233.966 175.642 233.075 180.587 232.5 183.456C231.892 186.495 233.386 189.632 232.064 192.5C230.913 194.997 229.153 196.798 228.548 199.733C228.456 200.182 227.094 202.998 227.175 205.102C227.27 207.557 228.947 209.219 231.029 207.729C233.052 206.282 233.268 203.013 235.028 201.241C241.971 194.249 243.687 184.909 245.309 175.609C246.086 171.153 248.967 168.025 248.831 163.04C248.756 160.276 246.41 159.746 245.284 157.639C243.705 154.683 245.502 151.066 244.871 148.005C244.22 144.842 240.977 143.593 240.016 140.915C239.539 139.586 240.285 138.67 240.434 137.385C240.693 135.146 239.044 130.565 237.635 128.833C235.669 126.418 236.693 128.45 234.591 126.492C232.244 124.304 230.057 120.695 227.269 119.056C224.278 117.297 219.172 117.505 215.866 116.68C203.321 113.55 191.479 111.38 179.583 117.862Z" fill="#78695f" fill-rule="evenodd" opacity="1" stroke="none"/>
<path d="M168.887 221.986C173.913 223.638 178.148 222.148 182.959 220.522" fill="none" fill-rule="evenodd" opacity="1" stroke="#000000" stroke-linecap="round" stroke-linejoin="round" stroke-width="2.57573"/>
<path d="M152.071 178.633C151.68 179.914 151.726 182.395 151.689 184.3" fill="none" fill-rule="evenodd" opacity="1" stroke="#000000" stroke-linecap="round" stroke-linejoin="round" stroke-width="2.57573"/>
<path d="M170.667 146.618C168.701 146.002 161.427 142.775 158.837 144.011" fill="none" fill-rule="evenodd" opacity="1" stroke="#000000" stroke-linecap="round" stroke-linejoin="round" stroke-width="2.57573"/>
<path d="M178.313 118.452C176.829 117.743 171.884 122.742 172.463 124.38C173.081 126.125 182.353 125.048 183.841 126.311C187.725 129.609 195.989 127.272 199.226 131.356C201.064 133.674 203.236 138.476 203.649 141.401C204.181 145.164 204.989 147.256 205.952 149.683C207.442 153.443 205.21 154.067 207.746 157.474C210.277 160.877 218.019 167.04 215.622 166.134C213.224 165.229 219.639 167.264 221.754 167.982C223.597 168.608 224.778 170.306 225.391 171.189" fill="none" fill-rule="evenodd" opacity="1" stroke="#000000" stroke-linecap="round" stroke-linejoin="round" stroke-width="2.57573"/>
<path d="M179.387 117.042C181.899 116.097 190.095 113.236 191.919 113.091C200.435 112.413 211.099 115.694 219.115 117.619C221.636 118.223 224.748 117.564 227.043 118.966C230.295 120.952 231.017 124.316 233.802 126.502C235.313 127.687 237.332 128.436 238.383 130.002C239.028 130.963 238.265 132.439 239.065 133.167C240.113 134.119 241.207 133.759 241.275 135.454C241.327 136.757 238.866 140.073 239.715 141.148C241.606 143.543 243.521 143.34 244.134 145.721C245.091 149.443 243.606 154.907 245.92 158.466C246.688 159.647 248.367 160.356 248.682 161.707C249.44 164.962 247.913 168.317 247.414 171.607C247.216 172.918 246.092 173.266 245.595 174.415C245.104 175.549 245.92 176.323 245.627 177.269C244.59 180.616 244.124 186.576 242.148 189.627C239.306 194.014 241.223 195.497 238.028 197.888" fill="none" fill-rule="evenodd" opacity="1" stroke="#000000" stroke-linecap="round" stroke-linejoin="round" stroke-width="2.57573"/>
<path d="M174.275 125.552C171.377 129.052 168.799 133.459 165.929 137.045C165.889 137.096 162.513 142.797 162.368 143.14" fill="none" fill-rule="evenodd" opacity="1" stroke="#000000" stroke-linecap="round" stroke-linejoin="round" stroke-width="2.57573"/>
<path d="M158.574 154.081C155.538 157.331 143.889 168.058 142.522 175.527C142.181 177.391 142.602 179.805 144.215 180.97C146.16 182.374 149.741 181.934 151.438 183.563" fill="none" fill-rule="evenodd" opacity="1" stroke="#000000" stroke-linecap="round" stroke-linejoin="round" stroke-width="2.57573"/>
<path d="M151.371 183.582C153.491 188.836 151.766 193.754 153.782 197.528" fill="none" fill-rule="evenodd" opacity="1" stroke="#000000" stroke-linecap="round" stroke-linejoin="round" stroke-width="2.57573"/>
<path d="M154.165 197.429C155.763 197.157 160.141 198.464 161.604 199.248C162.392 199.671 161.915 200.356 162.807 200.626" fill="none" fill-rule="evenodd" opacity="1" stroke="#000000" stroke-linecap="round" stroke-linejoin="round" stroke-width="2.57573"/>
<path d="M162.008 200.587C160.66 200.544 155.838 201.949 154.807 204.499C154.175 206.062 157.843 206.879 158.046 207.022" fill="none" fill-rule="evenodd" opacity="1" stroke="#000000" stroke-linecap="round" stroke-linejoin="round" stroke-width="2.57573"/>
<path d="M157.97 206.73C158.576 208.829 160.61 216.171 164.156 218.737C167.271 220.991 168.408 221.775 168.688 222.361C170.567 226.292 187.569 232.196 190.679 229.109" fill="none" fill-rule="evenodd" opacity="1" stroke="#000000" stroke-linecap="round" stroke-linejoin="round" stroke-width="2.57573"/>
<path d="M220.452 173.018C228.931 167.377 234.632 176.615 232.361 182.782C230.225 188.58 226.946 195.073 217.437 191.066" fill="none" fill-rule="evenodd" opacity="1" stroke="#000000" stroke-linecap="round" stroke-linejoin="round" stroke-width="2.57573"/>
<path d="M231.86 185.563C231.851 187.312 232.985 190.176 232.114 191.485C230.393 194.073 230.502 195.714 228.815 198.137C227.881 199.478 228.001 201.616 227.117 203.12" fill="none" fill-rule="evenodd" opacity="1" stroke="#000000" stroke-linecap="round" stroke-linejoin="round" stroke-width="2.57573"/>
<path d="M237.808 198.027C235.972 201.151 232.015 204.569 230.415 207.289" fill="none" fill-rule="evenodd" opacity="1" stroke="#000000" stroke-linecap="round" stroke-linejoin="round" stroke-width="2.57573"/>
<path d="M226.906 204.75L227.484 206.4L228.354 207.149L229.437 208.143L229.895 208.174L229.895 208.174" fill="none" fill-rule="evenodd" opacity="1" stroke="#000000" stroke-linecap="round" stroke-linejoin="round" stroke-width="2.57573"/>
<path d="M227.207 208.354C226.201 208.615 226.049 210.083 225.424 210.914C222.675 214.575 217.734 217.266 214.905 220.943" fill="none" fill-rule="evenodd" opacity="1" stroke="#000000" stroke-linecap="round" stroke-linejoin="round" stroke-width="2.57573"/>
<path d="M223.214 178.37C226.899 176.831 226.143 187.772 220.479 185.446" fill="none" fill-rule="evenodd" opacity="1" stroke="#000000" stroke-linecap="round" stroke-linejoin="round" stroke-width="2.57573"/>
<path d="M158.926 145.117C158.717 148.2 156.489 164.07 161.861 166.434" fill="none" fill-rule="evenodd" opacity="1" stroke="#000000" stroke-linecap="round" stroke-linejoin="round" stroke-width="2.57573"/>
<path d="M171.021 147.604C170.569 154.261 169.629 161.011 167.6 167.285" fill="none" fill-rule="evenodd" opacity="1" stroke="#000000" stroke-linecap="round" stroke-linejoin="round" stroke-width="2.57573"/>
<path d="M162.084 166.678C164.226 167.937 165.165 167.948 167.585 167.515" fill="none" fill-rule="evenodd" opacity="1" stroke="#000000" stroke-linecap="round" stroke-linejoin="round" stroke-width="2.57573"/>
<path d="M170.469 152.436C173.235 151.206 176.469 154.406 179.343 155.612C182 156.727 184.647 157.856 187.298 158.981C196.031 162.686 205.326 165.619 213.988 169.343C215.925 170.176 218.669 171.806 220.874 172.325" fill="none" fill-rule="evenodd" opacity="1" stroke="#000000" stroke-linecap="round" stroke-linejoin="round" stroke-width="2.57573"/>
<path d="M165.256 154.952C168.393 153.546 162.976 154.829 164.389 157.672C165.584 160.076 168.686 156.098 168.233 154.842C167.446 152.663 163.962 157.567 163.962 157.567C163.962 157.567 164.168 157.059 164.271 156.805C165.373 154.083 165.533 153.763 167.213 154.174C167.531 154.252 168.288 154.995 167.972 155.197C166.698 156.01 163.401 154.349 163.345 159.092C163.323 160.989 168.277 158.788 168.801 157.494C171.407 151.06 161.159 156.787 165.256 154.952Z" fill="none" fill-rule="evenodd" opacity="1" stroke="#000000" stroke-linecap="round" stroke-linejoin="round" stroke-width="2.57573"/>
<path d="M162.948 148.203C166.461 148.558 169.843 149.055 173.365 148.635" fill="none" fill-rule="evenodd" opacity="1" stroke="#000000" stroke-linecap="round" stroke-linejoin="round" stroke-width="2.57573"/>
<path d="M189.16 231.523C189.745 230.528 190.756 229.818 191.313 228.871" fill="none" fill-rule="evenodd" opacity="1" stroke="#000000" stroke-linecap="round" stroke-linejoin="round" stroke-width="2.57573"/>
<path d="M191.492 228.792C195.326 228.195 200.317 228.913 204.003 227.358" fill="none" fill-rule="evenodd" opacity="1" stroke="#000000" stroke-linecap="round" stroke-linejoin="round" stroke-width="2.57573"/>
</g>
</g>
</svg>
