<?xml version="1.0" encoding="UTF-8" standalone="no"?>
<!DOCTYPE svg PUBLIC "-//W3C//DTD SVG 1.1//EN" "http://www.w3.org/Graphics/SVG/1.1/DTD/svg11.dtd">

<!-- Created with Vectornator (http://vectornator.io/) -->
<svg height="100%" stroke-miterlimit="10" style="fill-rule:nonzero;clip-rule:evenodd;stroke-linecap:round;stroke-linejoin:round;" version="1.1" viewBox="0 0 400 400" width="100%" xml:space="preserve" xmlns="http://www.w3.org/2000/svg" xmlns:vectornator="http://vectornator.io" xmlns:xlink="http://www.w3.org/1999/xlink">
<metadata>
<vectornator:setting key="IsTimeLapseWatermarkDisabled" value="false"/>
<vectornator:setting key="UndoHistoryDisabled" value="true"/>
<vectornator:setting key="VNDimensionsVisible" value="true"/>
<vectornator:setting key="VNSnapToGuides" value="true"/>
<vectornator:setting key="WDCMYKEnabledKey" value="false"/>
<vectornator:setting key="WDDisplayWhiteBackground" value="false"/>
<vectornator:setting key="WDDynamicGuides" value="false"/>
<vectornator:setting key="WDGuidesVisible" value="true"/>
<vectornator:setting key="WDIsolateActiveLayer" value="false"/>
<vectornator:setting key="WDOutlineMode" value="false"/>
<vectornator:setting key="WDRulersVisible" value="true"/>
<vectornator:setting key="WDSnapToEdges" value="false"/>
<vectornator:setting key="WDSnapToGrid" value="false"/>
<vectornator:setting key="WDSnapToPoints" value="false"/>
<vectornator:setting key="WDUnits" value="Pixels"/>
</metadata>
<defs/>
<g id="Layer-2" vectornator:layerName="Layer 2"/>
<g id="Layer-1" vectornator:layerName="Layer 1">
<g opacity="0">
<path d="M231.825 81.9595C231.587 81.5636 231.49 81.0376 231.112 80.7719C227.18 78.0044 223.499 74.6316 219 72.9344C214.275 71.1521 209.044 71.215 204.037 70.5593C202.387 70.3432 200.71 70.2132 199.05 70.3218C192.226 70.7682 185.395 71.2638 178.624 72.2218C172.236 73.1258 167.584 75.7934 164.541 78.8365C162.087 81.29 160.563 82.8191 159.387 86.7095C158.454 89.7919 158.183 90.803 157.724 92.8846C155.913 101.093 155.458 106.659 155.112 114.972C154.48 130.136 153.09 151.544 163.187 163.66C169.171 170.841 176.294 174.37 184.324 178.386C199.385 185.916 215.675 176.485 222.8 170.073C229.925 163.66 236.337 155.11 237.525 147.51" fill="none" fill-rule="evenodd" opacity="1" stroke="#000000" stroke-linecap="round" stroke-linejoin="round" stroke-width="2.57573"/>
<path d="M234.036 118.801C235.905 113.403 242.294 113.143 245.228 117.717C247.027 120.523 246.988 124.463 246.484 127.774C246.069 130.495 245.064 132.616 243.977 135.407C242.891 138.199 237.805 139.745 234.651 136.136" fill="none" fill-rule="evenodd" opacity="1" stroke="#000000" stroke-linecap="round" stroke-linejoin="round" stroke-width="2.57573"/>
<path d="M238.162 139.2C238.548 142.14 237.076 145.148 237.424 147.798" fill="none" fill-rule="evenodd" opacity="1" stroke="#000000" stroke-linecap="round" stroke-linejoin="round" stroke-width="2.57573"/>
<path d="M231.157 81.0298C231.981 84.1933 232.638 86.7352 232.971 90.1218C233.62 96.7145 231.128 109.419 237.605 114.394" fill="none" fill-rule="evenodd" opacity="1" stroke="#000000" stroke-linecap="round" stroke-linejoin="round" stroke-width="2.57573"/>
<path d="M159.753 85.4714C159.753 81.1073 162.482 77.1614 164.3 73.1942C167.193 66.8828 170.45 67.2687 176.122 64.3274C181.324 61.6301 187.095 62.4769 192.946 61.5992C200.108 60.5249 208.09 57.4705 215.455 57.9615C217.259 58.0818 217.35 58.7644 218.865 59.3256C220.485 59.9258 222.239 60.1085 223.867 60.6897C226.42 61.6018 226.713 64.6071 227.959 66.601C229.409 68.921 233.446 69.2179 235.234 71.6028C236.711 73.5713 236.935 76.331 238.19 78.4234C239.946 81.3498 241.146 83.0492 242.055 86.3808C243.218 90.6454 245.089 94.8257 245.465 99.34C245.773 103.032 244.33 106.83 243.874 110.48C243.717 111.736 244.222 114.225 243.419 115.027" fill="none" fill-rule="evenodd" opacity="1" stroke="#000000" stroke-linecap="round" stroke-linejoin="round" stroke-width="2.57573"/>
<path d="M190.437 112.281C190.437 118.092 184.756 127.233 186.756 133.234C188.25 137.715 194.849 139.136 196.95 134.933" fill="none" fill-rule="evenodd" opacity="1" stroke="#000000" stroke-linecap="round" stroke-linejoin="round" stroke-width="2.57573"/>
<path d="M182.792 155.886C183.039 155.229 183.314 152.933 184.774 153.055C186.618 153.208 188.089 154.782 189.871 155.037C192.316 155.386 201.48 150.236 201.48 155.603" fill="none" fill-rule="evenodd" opacity="1" stroke="#000000" stroke-linecap="round" stroke-linejoin="round" stroke-width="2.57573"/>
<path d="M172.033 162.115C174.968 165.638 178.735 169.761 183.075 171.459C191.402 174.718 207.034 175.076 211.673 165.796" fill="none" fill-rule="evenodd" opacity="1" stroke="#000000" stroke-linecap="round" stroke-linejoin="round" stroke-width="2.57573"/>
<path d="M185.171 112.303C187.75 109.83 193.824 111.189 196.998 111.893" fill="none" fill-rule="evenodd" opacity="1" stroke="#000000" stroke-linecap="round" stroke-linejoin="round" stroke-width="2.57573"/>
<path d="M237.794 114.071C237.923 114.1 238.051 114.129 238.18 114.157" fill="none" fill-rule="evenodd" opacity="1" stroke="#000000" stroke-linecap="round" stroke-linejoin="round" stroke-width="2.57573"/>
<path d="M153.557 106.249C154.425 109.722 154.613 116.828 156.964 119.649C161.694 125.325 167.691 124.124 174.579 124.31C176.21 124.354 180.272 123.84 181.493 122.375C184.701 118.525 185.354 111.258 185.354 106.476" fill="none" fill-rule="evenodd" opacity="1" stroke="#000000" stroke-linecap="round" stroke-linejoin="round" stroke-width="2.57573"/>
<path d="M197.846 107.384C197.085 109.668 198.118 116.402 198.3 118.286C199.16 127.169 205.739 126.168 212.723 126.643C217.206 126.947 220.225 126.732 222.603 125.781C229.24 123.126 229.416 111.214 229.416 106.703" fill="none" fill-rule="evenodd" opacity="1" stroke="#000000" stroke-linecap="round" stroke-linejoin="round" stroke-width="2.57573"/>
<path d="M153.216 105.695C154.188 104.709 153.882 104.846 156.134 104.565C158.744 104.239 161.371 104.052 163.997 103.903C166.99 103.734 169.987 104.156 172.979 104.344C175.345 104.492 184.562 104.945 185.905 106.269" fill="none" fill-rule="evenodd" opacity="1" stroke="#000000" stroke-linecap="round" stroke-linejoin="round" stroke-width="2.57573"/>
<path d="M198.215 106.787C205.695 105.235 213.514 105.323 221.107 105.715C222.201 105.772 227.523 105.43 228.882 106.77" fill="none" fill-rule="evenodd" opacity="1" stroke="#000000" stroke-linecap="round" stroke-linejoin="round" stroke-width="2.57573"/>
<path d="M229.263 106.81C229.578 108.082 231.271 108.5 232.351 109.241C233.903 110.306 236.364 112.756 237.741 114.369" fill="none" fill-rule="evenodd" opacity="1" stroke="#000000" stroke-linecap="round" stroke-linejoin="round" stroke-width="2.57573"/>
<g opacity="1">
<path d="M170.348 111.163C168.953 112.401 169.629 112.386 169.708 114.044C169.764 115.229 169.903 116.867 170.604 117.887C173.093 121.507 175.972 117.301 176.496 114.813C176.584 114.393 176.805 113.921 176.624 113.532C176.286 112.809 174.096 112.52 173.422 112.123C172.497 111.579 171.151 110.45 170.348 111.163Z" fill="#000000" fill-rule="evenodd" stroke="none"/>
<path d="M169.344 110.344C168.473 111.472 168.558 111.001 168.469 111.469C168.363 112.022 168.651 112.724 168.688 113.281C168.871 116.056 169.373 117.571 171.719 119.281C172.919 120.157 174.119 120.426 175.312 119.438C175.898 118.953 176.365 118.326 176.719 117.656C176.84 117.426 176.988 117.207 177.094 116.969C177.195 116.741 177.266 116.486 177.344 116.25C177.495 115.791 177.913 114.742 177.625 114.25C177.258 113.622 176.625 113.175 176.062 112.75C175.846 112.587 175.612 112.475 175.375 112.344C174.6 111.915 175.389 112.334 169.344 110.344ZM171.375 111.969C174.162 112.855 173.352 112.467 174.156 112.875C174.637 113.119 174.854 113.154 175.375 113.312C175.463 113.339 175.539 113.381 175.625 113.406C175.544 113.82 175.41 114.267 175.281 114.656C175.003 115.501 174.58 116.33 174.031 117.031C173.548 117.648 172.915 118.262 172.125 118.438C171.928 118.481 171.726 118.431 171.531 118.406C171.458 118.286 171.37 118.19 171.312 118.062C171.135 117.665 171.019 117.206 170.938 116.781C170.787 115.999 170.951 116.784 171.375 111.969Z" fill="#000000" stroke="none"/>
</g>
<path d="M213.648 111.72C213.585 112.023 209.335 112.712 207.75 113.73C205.874 114.935 206.63 116.489 206.779 116.825C207.378 118.176 207.425 118.744 208.552 119.702C209.634 120.622 211.605 120.364 212.788 120.113C214.824 119.681 215.695 116.894 216.487 114.998C217.618 112.288 218.019 110.78 213.71 111.766" fill="#000000" fill-rule="evenodd" opacity="1" stroke="none"/>
<path d="M238.743 123.322C238.864 122.973 239.36 122.642 239.762 122.781C241.138 123.26 240.338 126.558 240.219 127.349C240.157 127.757 239.959 130.096 239.543 129.478" fill="none" fill-rule="evenodd" opacity="1" stroke="#000000" stroke-linecap="round" stroke-linejoin="round" stroke-width="2.57573"/>
<path d="M178.553 108.935C173.605 107.492 168.499 107.968 163.406 108.154" fill="none" fill-rule="evenodd" opacity="1" stroke="#000000" stroke-linecap="round" stroke-linejoin="round" stroke-width="2.57573"/>
<path d="M220.573 108.657C215.991 108.805 211.816 109.512 207.369 110.619" fill="none" fill-rule="evenodd" opacity="1" stroke="#000000" stroke-linecap="round" stroke-linejoin="round" stroke-width="2.57573"/>
</g>
<g opacity="0">
<path d="M163.734 85.8158C162.174 90.1482 162.968 104.329 161.812 109.528C160.706 114.504 158.146 119.267 157.743 124.503C156.368 142.383 160.104 161.228 175.159 172.52C178.148 174.761 182.201 175.471 185.414 177.077" fill="none" fill-rule="evenodd" opacity="1" stroke="#000000" stroke-linecap="round" stroke-linejoin="round" stroke-width="2.57573"/>
<g opacity="1">
<path d="M184.612 177.174C191.585 177.878 197.961 179.794 204.326 175.954" fill="none" fill-rule="evenodd" opacity="1" stroke="#000000" stroke-linecap="round" stroke-linejoin="round" stroke-width="2.57573"/>
<g opacity="1">
<path d="M179.735 112.905C181.605 111.97 175.815 123.506 175.374 124.533C174.311 127.014 171.339 131.815 172.116 135.369C172.851 138.729 177.181 140.98 181.37 138.886" fill="none" fill-rule="evenodd" opacity="1" stroke="#000000" stroke-linecap="round" stroke-linejoin="round" stroke-width="2.57573"/>
<path d="M170.651 155.601C171.085 154.732 173.074 151.967 174.284 151.967C175.422 151.967 176.909 152.887 178.1 153.058C180.742 153.435 183.462 152.349 186.094 152.876C187.166 153.09 188.425 155.026 189.183 155.783" fill="none" fill-rule="evenodd" opacity="1" stroke="#000000" stroke-linecap="round" stroke-linejoin="round" stroke-width="2.57573"/>
<path d="M170.287 161.597C176.159 173.34 195.866 175.802 203.338 164.594" fill="none" fill-rule="evenodd" opacity="1" stroke="#000000" stroke-linecap="round" stroke-linejoin="round" stroke-width="2.57573"/>
<path d="M163.673 83.9161C165.093 78.2367 169.178 76.009 173.263 72.5074C175.217 70.8326 179.374 64.862 181.861 64.2402C183.59 63.808 185.751 64.1806 187.648 63.9095C189.414 63.6572 191.571 61.8352 193.601 61.4294C198.164 60.5167 203.683 60.0389 207.986 61.7601C209.748 62.4652 217.983 62.8285 218.733 63.5789C219.612 64.458 219.6 65.2457 221.048 65.7283C221.277 65.8047 222.735 65.8624 222.866 66.059C223.156 66.4928 223.032 68.5756 223.032 69.2005" fill="none" fill-rule="evenodd" opacity="1" stroke="#000000" stroke-linecap="round" stroke-linejoin="round" stroke-width="2.57573"/>
<path d="M224.597 69.286C225.774 70.4625 227.755 71.0919 229.099 72.167C234.253 76.2906 239.259 81.8628 242.244 87.8326C242.805 88.9544 244.224 90.3249 244.224 91.614" fill="none" fill-rule="evenodd" opacity="1" stroke="#000000" stroke-linecap="round" stroke-linejoin="round" stroke-width="2.57573"/>
<path d="M244.585 92.6944C246.425 93.6148 245.396 95.4894 245.845 96.8359C246.318 98.2559 248.903 98.7955 249.086 100.077C249.452 102.636 248.315 105.555 247.826 108C247.486 109.698 248.583 111.483 248.366 113.222C248.157 114.89 246.294 115.567 246.025 117.183C245.573 119.893 245.919 121.861 244.765 124.746C244.07 126.481 242.243 127.45 241.523 129.247C241.23 129.982 241.031 132.543 240.623 132.849C239.773 133.486 238.688 133.163 237.922 133.929" fill="none" fill-rule="evenodd" opacity="1" stroke="#000000" stroke-linecap="round" stroke-linejoin="round" stroke-width="2.57573"/>
<path d="M164.096 84.2313C163.619 85.1851 167.88 81.8879 168.057 81.7104C168.922 80.8458 171.628 79.0095 172.919 79.0095C177.43 79.0095 182.693 77.792 187.144 76.3085C188.987 75.6941 190.702 74.6493 192.726 75.4082C194.622 76.1192 195.92 78.1214 197.768 78.6493C203.885 80.3971 215.504 78.8289 219.015 85.8519C221.071 89.9625 218.583 95.4322 219.195 99.7169C219.471 101.648 221.702 102.86 221.896 104.219C222.279 106.898 221.881 108.862 222.977 111.601C225.168 117.08 234.141 116.678 234.141 120.965" fill="none" fill-rule="evenodd" opacity="1" stroke="#000000" stroke-linecap="round" stroke-linejoin="round" stroke-width="2.57573"/>
<path d="M224.369 124.591C225.618 123.342 226.563 122.077 228.151 121.17C232.04 118.947 236.54 121.558 237.154 125.852C237.587 128.885 237.366 132.111 236.235 134.79C235.18 137.287 233.335 139.309 230.491 140.257C228.307 140.985 227.231 140.418 225.63 138.816" fill="none" fill-rule="evenodd" opacity="1" stroke="#000000" stroke-linecap="round" stroke-linejoin="round" stroke-width="2.57573"/>
<path d="M204.731 175.845C209.123 174.223 215.518 170.449 218.561 167.913C226.022 161.696 232.127 144.175 231.793 139.839" fill="none" fill-rule="evenodd" opacity="1" stroke="#000000" stroke-linecap="round" stroke-linejoin="round" stroke-width="2.57573"/>
<path d="M164.632 113.267C163.554 114.108 164.527 114.469 164.725 115.799C164.995 117.606 166.425 121.159 168.754 121.092C170.694 121.036 174.014 117.643 172.744 115.658C171.758 114.118 170.372 114.259 168.901 113.696C167.244 113.061 166.06 112.152 164.632 113.267Z" fill="#000000" fill-rule="evenodd" opacity="1" stroke="none"/>
<path d="M190.626 116.524C189.107 118.102 189.921 118.739 190.912 120.53C195.312 128.491 204.437 111.395 197.249 113.818C194.99 114.579 192.355 114.728 190.626 116.524Z" fill="#000000" fill-rule="evenodd" opacity="1" stroke="none"/>
<path d="M164.007 109.32C166.043 109.32 167.95 110.401 169.952 110.401" fill="none" fill-rule="evenodd" opacity="1" stroke="#000000" stroke-linecap="round" stroke-linejoin="round" stroke-width="2.57573"/>
<path d="M190.059 111.374C193.575 110.495 197.32 110.401 200.978 110.401" fill="none" fill-rule="evenodd" opacity="1" stroke="#000000" stroke-linecap="round" stroke-linejoin="round" stroke-width="2.57573"/>
<path d="M154.038 107.973C154.038 109.315 154.657 114.07 155.209 116.335C156.386 121.161 158.809 126.716 162.439 127.169C165.061 127.497 168.056 127.973 170.712 127.594C171.391 127.497 172.961 127.18 173.576 127.488" fill="none" fill-rule="evenodd" opacity="1" stroke="#000000" stroke-linecap="round" stroke-linejoin="round" stroke-width="2.57573"/>
<path d="M179.917 108.147C180.601 110.197 179.917 112.127 179.917 114.192" fill="none" fill-rule="evenodd" opacity="1" stroke="#000000" stroke-linecap="round" stroke-linejoin="round" stroke-width="2.57573"/>
<path d="M180.789 113.205C182.46 112.992 183.263 113.479 184.386 114.727" fill="none" fill-rule="evenodd" opacity="1" stroke="#000000" stroke-linecap="round" stroke-linejoin="round" stroke-width="2.57573"/>
<path d="M184.765 111.25C183.718 116.554 184.402 123.657 187.431 128.177" fill="none" fill-rule="evenodd" opacity="1" stroke="#000000" stroke-linecap="round" stroke-linejoin="round" stroke-width="2.57573"/>
<path d="M187.341 127.909C194.169 127.909 204.395 130.862 210.765 127.677" fill="none" fill-rule="evenodd" opacity="1" stroke="#000000" stroke-linecap="round" stroke-linejoin="round" stroke-width="2.57573"/>
<path d="M210.328 128.065C213.148 122.426 215.894 116.594 215.894 109.976" fill="none" fill-rule="evenodd" opacity="1" stroke="#000000" stroke-linecap="round" stroke-linejoin="round" stroke-width="2.57573"/>
<path d="M184.558 109.124C184.558 107.837 191.865 107.964 193.139 107.733C199 106.667 211.358 105.654 216.562 109.124" fill="none" fill-rule="evenodd" opacity="1" stroke="#000000" stroke-linecap="round" stroke-linejoin="round" stroke-width="2.57573"/>
<path d="M216.328 109.304C216.584 110.644 219.44 111.516 220.52 112.25C223.328 114.158 230.623 120.023 233.912 120.463" fill="none" fill-rule="evenodd" opacity="1" stroke="#000000" stroke-linecap="round" stroke-linejoin="round" stroke-width="2.57573"/>
<path d="M179.142 107.439C170.845 106.966 162.271 105.138 154.062 107.364" fill="none" fill-rule="evenodd" opacity="1" stroke="#000000" stroke-linecap="round" stroke-linejoin="round" stroke-width="2.57573"/>
<path d="M229.248 127.438C231.45 125.236 232.224 130.237 231.806 131.7C231.538 132.635 230.227 133.642 229.675 134.47" fill="none" fill-rule="evenodd" opacity="1" stroke="#000000" stroke-linecap="round" stroke-linejoin="round" stroke-width="2.57573"/>
</g>
</g>
</g>
<path d="M147.32 558.771C147.32 552.798 144.501 546.17 143.006 540.436C141.347 534.08 139.673 527.68 138.152 521.292C135.206 508.916 134.917 496.198 134.917 483.544" fill="none" fill-rule="evenodd" opacity="1" stroke="#000000" stroke-linecap="round" stroke-linejoin="round" stroke-width="2.57573"/>
<path d="M142.197 550.143C138.16 534.67 127.321 517.313 133.568 501.07" fill="none" fill-rule="evenodd" opacity="1" stroke="#000000" stroke-linecap="round" stroke-linejoin="round" stroke-width="2.57573"/>
<path d="M131.411 558.232C131.124 545.856 128.967 534.523 127.097 522.371" fill="none" fill-rule="evenodd" opacity="1" stroke="#000000" stroke-linecap="round" stroke-linejoin="round" stroke-width="2.57573"/>
<g opacity="1">
<path d="M196.661 383.384C203.273 382.282 205.334 391.272 199.567 394.325C197.99 395.16 195.681 394.086 194.011 394.325C188.724 395.08 183.104 395.001 177.771 394.239C176.135 394.006 174.495 392.803 172.985 392.188C170.681 391.249 166.447 390.155 164.154 389.172C161.96 388.232 160.2 381.983 163.327 381.247C164.607 380.946 169.785 383.605 171.361 383.897C177.304 384.998 182.462 386.975 188.627 386.29" fill="#2e2e2e" fill-rule="evenodd" opacity="1" stroke="none"/>
<path d="M219.824 378.598C221.6 377.888 224.017 377.031 225.807 378.598C229.297 381.651 231.267 389.564 225.722 391.504C223.746 392.196 220.863 391.676 218.798 391.59C215.096 391.435 211.718 391.63 208.029 391.077C206.951 390.915 205.437 391.122 204.439 390.65C203.352 390.135 201.027 383.703 201.96 383.555C202.602 383.454 203.195 384 203.841 384.068C206.36 384.333 209.672 384.402 211.961 383.384" fill="#2e2e2e" fill-rule="evenodd" opacity="1" stroke="none"/>
<path d="M212.913 228.868C214.515 230.783 209.352 240.955 206.37 240.246C204.133 239.713 201.318 236.563 199.72 234.965C199.365 234.61 193.175 229.665 193.364 229.445C193.507 229.278 197.309 229.491 197.512 229.521C199.961 229.889 202.885 231.708 205.294 231.346C207.567 231.005 211.431 227.098 212.913 228.868Z" fill="#eae7e1" fill-rule="evenodd" opacity="1" stroke="none"/>
<path d="M227.16 317.727C231.721 320.253 227.602 328.047 227.075 333.049C225.894 344.276 223.56 355.511 221.351 366.554C220.655 370.031 221.813 373.741 220.667 376.555C219.763 378.774 216.951 380.291 213.943 381.707C209.424 383.833 204.211 383.219 199.75 382.475C199.065 382.361 197.334 381.362 196.593 381.686C194.745 382.494 193.043 383.629 191.045 384.569C184.911 387.456 177.917 385.48 171.927 384.054C169.57 383.493 165.086 383.33 163.573 381.62C162.06 379.91 163.749 373.775 163.507 369.978C162.981 361.69 163.934 344.868 161.6 332.617C161.215 330.594 159.489 318.806 161.797 317.883C162.897 317.443 165.628 318.737 166.8 318.569C168.881 318.272 169.927 320.866 171.693 322.588C173.431 324.282 175.889 325.095 177.912 325.809C180.407 326.689 182.806 324.549 184.861 322.466C185.796 321.518 186.294 319.748 187.341 319.748C193.682 319.748 200.287 321.263 206.703 321.263C211.09 321.263 216.271 320.067 220.657 318.916C223.116 318.27 224.964 316.512 227.16 317.727Z" fill="#dbc8a6" fill-rule="evenodd" opacity="1" stroke="none"/>
<path d="M214.093 230.15C220.516 231.735 220.606 246.328 222.8 252.087C224.93 257.68 225.436 263.827 228.243 269.161C234.513 281.074 241.232 288.223 237.523 302.443C236.525 306.265 234.963 310.621 232.203 313.578C227.591 318.518 218.179 319.583 211.788 319.888C208.329 320.052 207.037 320.173 203.582 320.691C200.835 321.103 190.619 322.477 188.652 321.125C186.525 319.663 187.257 316.728 187.167 314.568C187.047 311.679 185.859 307.375 184.569 304.793C183.652 302.96 182.745 302.283 180.356 303C179.502 303.256 176.748 304.156 175.95 304.555C173.412 305.824 171.446 305.407 168.608 305.536C167.835 305.571 165.569 305.138 165.02 306.031C164.553 306.791 168.521 316.847 166.258 317.413C165.42 317.623 159.456 317.717 159.19 316.65C158.461 313.737 159.667 307.533 159.824 304.546C160.209 297.231 159.866 290.041 158.336 282.647C156.303 272.821 155.056 263.077 155.82 253.148C156.875 239.434 158.415 228.268 171.608 220.206C173.273 219.188 174.418 220.652 175.453 221.487C177.33 223.004 178.525 223.638 181.129 225.058C184.582 226.941 186.769 226.826 189.924 229.238C192.246 231.014 194.829 231.742 197.234 233.506C198.804 234.657 205.005 240.771 207.087 240.333C210.763 239.559 209.712 234.579 211.293 232.662C211.771 232.083 213.364 229.97 214.093 230.15Z" fill="#353967" fill-rule="evenodd" opacity="1" stroke="none"/>
<path d="M208.035 229.829C207.458 232.427 206.904 234.031 205.893 233.96C204.456 233.859 202.448 231.081 201.161 229.022" fill="#ecc4ae" fill-rule="evenodd" opacity="1" stroke="none"/>
<path d="M181.869 303.843C184.327 307.706 186.256 312.424 186.375 317.07C186.416 318.695 185.642 321.907 184.128 323.345C181.811 325.546 178.118 325.514 175.764 324.338C169.6 321.256 167.661 313.675 166.316 307.622" fill="#ecc4ae" fill-rule="evenodd" opacity="1" stroke="none"/>
<path d="M218.492 243.578C221.758 246.517 222.692 250.789 224.377 255.121C226.326 260.134 225.962 262.96 226.981 265.677C228.924 270.857 232.578 275.69 234.881 280.131C237.716 285.597 239.025 290.57 238.884 296.093C238.65 305.25 235.528 311.262 229.661 316.122" fill="none" fill-rule="evenodd" opacity="1" stroke="#000000" stroke-linecap="round" stroke-linejoin="round" stroke-width="2.57573"/>
<path d="M160.741 292.595C159.404 303.1 158.35 307.159 159.246 317.185" fill="none" fill-rule="evenodd" opacity="1" stroke="#000000" stroke-linecap="round" stroke-linejoin="round" stroke-width="2.57573"/>
<path d="M229.29 316.493C230.032 316.122 227.868 317.4 227.065 317.606C222.297 318.823 217.448 319.717 212.602 320.572C205.54 321.818 194.457 320.353 187.29 320.596" fill="none" fill-rule="evenodd" opacity="1" stroke="#000000" stroke-linecap="round" stroke-linejoin="round" stroke-width="2.57573"/>
<path d="M228.919 317.976C228.919 337.826 221.131 356.978 221.131 376.571" fill="none" fill-rule="evenodd" opacity="1" stroke="#000000" stroke-linecap="round" stroke-linejoin="round" stroke-width="2.57573"/>
<path d="M161.444 318.223C160.554 326.236 162.41 332.507 162.868 345.111C163.177 353.6 163.404 367.165 163.886 371.5C164.182 374.164 162.766 377.328 162.766 379.908" fill="none" fill-rule="evenodd" opacity="1" stroke="#000000" stroke-linecap="round" stroke-linejoin="round" stroke-width="2.57573"/>
<path d="M200.297 337.021C200.297 344.964 197.318 354.963 197.16 361.764C197.045 366.71 199.106 376.413 196.789 381.048" fill="none" fill-rule="evenodd" opacity="1" stroke="#000000" stroke-linecap="round" stroke-linejoin="round" stroke-width="2.57573"/>
<path d="M214.677 230.366C219.901 234.808 221.411 245.417 222.041 248.571" fill="none" fill-rule="evenodd" opacity="1" stroke="#000000" stroke-linecap="round" stroke-linejoin="round" stroke-width="2.57573"/>
<path d="M166.023 225.058C162.988 227.524 162.002 229.4 160.634 231.394C158.96 233.835 157.496 237.677 156.764 242.851C155.428 252.311 156.004 262.16 156.25 268.556C156.458 273.964 159.955 294.634 164.97 305.548" fill="none" fill-rule="evenodd" opacity="1" stroke="#000000" stroke-linecap="round" stroke-linejoin="round" stroke-width="2.57573"/>
<path d="M175.358 250.37C175.358 250.37 174.098 260.955 175.408 271.693C176.008 276.616 176.867 283.947 178.111 289.375C179.698 296.304 181.649 300.831 181.649 300.831" fill="none" fill-rule="evenodd" opacity="1" stroke="#000000" stroke-linecap="round" stroke-linejoin="round" stroke-width="2.57573"/>
<path d="M214.189 230.278C214.189 230.024 214.245 229.637 213.885 229.517C213.499 229.389 211.857 233.81 211.755 234.081C211.093 235.847 208.879 239.492 207.191 240.167" fill="none" fill-rule="evenodd" opacity="1" stroke="#000000" stroke-linecap="round" stroke-linejoin="round" stroke-width="2.57573"/>
<path d="M207.191 240.015C205.611 238.961 203.567 238.783 202.018 237.428C198.285 234.161 196.343 232.92 192.287 230.216" fill="none" fill-rule="evenodd" opacity="1" stroke="#000000" stroke-linecap="round" stroke-linejoin="round" stroke-width="2.57573"/>
<path d="M182.154 300.999C181.258 301.447 180.704 302.622 179.795 303.189C177.265 304.771 172.911 305.235 170.024 305.716C169.152 305.862 166.297 306.685 165.812 305.716" fill="none" fill-rule="evenodd" opacity="1" stroke="#000000" stroke-linecap="round" stroke-linejoin="round" stroke-width="2.57573"/>
<path d="M180.806 303.526C182.794 299.551 186.425 312.107 186.534 312.624C187.539 317.394 187.467 320.371 185.384 322.551C184.163 323.83 182.251 324.834 179.458 325.764C173.659 327.698 167.927 317.715 166.823 313.298C166.681 312.728 165.214 306.344 165.981 306.727" fill="none" fill-rule="evenodd" opacity="1" stroke="#000000" stroke-linecap="round" stroke-linejoin="round" stroke-width="2.57573"/>
<path d="M159.429 317.398C160.206 317.136 166.651 317.837 167.877 318.446" fill="none" fill-rule="evenodd" opacity="1" stroke="#000000" stroke-linecap="round" stroke-linejoin="round" stroke-width="2.57573"/>
<path d="M220.011 378.111C215.584 384.751 203.587 385.077 197.049 381.808" fill="none" fill-rule="evenodd" opacity="1" stroke="#000000" stroke-linecap="round" stroke-linejoin="round" stroke-width="2.57573"/>
<path d="M196.66 381.419C190.518 390.631 171.178 384.147 162.411 381.225" fill="none" fill-rule="evenodd" opacity="1" stroke="#000000" stroke-linecap="round" stroke-linejoin="round" stroke-width="2.57573"/>
<path d="M220.984 378.5C226.916 375.534 229.352 382.384 229.352 386.868C229.352 387.421 229.601 388.759 229.157 389.203C224.062 394.298 209.561 392.084 203.399 390.472" fill="none" fill-rule="evenodd" opacity="1" stroke="#000000" stroke-linecap="round" stroke-linejoin="round" stroke-width="2.57573"/>
<path d="M220.795 129.011C223.631 131.245 225.193 134.75 227.112 137.807C228.642 140.245 229.546 142.591 230.218 144.964C231.143 148.231 231.626 151.549 232.693 155.232C234.233 160.549 238.999 165.748 242.035 170.277C244.259 173.592 248.385 177.924 247.567 182.407C246.453 188.506 240.591 185.755 238.249 188.358C235.838 191.038 236.862 199.952 234.159 202.743C231.928 205.046 227.441 200.189 225.206 202.513C222.077 205.767 233.621 203.456 232.627 207.062C232.121 208.897 229.836 210.119 228.891 210.717C227.905 211.341 227.853 213.515 227.568 214.391C226.643 217.224 222.995 220.491 220.709 222.44C215.924 226.519 211.682 228.958 205.553 229.102C204.061 229.137 201.307 230.955 197.068 230.036C193.943 229.359 183.657 225.882 181.073 224.72C174.571 221.797 164.063 212.978 161.784 205.931C161.046 203.647 162.083 201.295 161.597 199.045C161.063 196.574 160.134 193.663 159.314 191.227C157.927 187.108 156.693 175.432 159.608 171.65C165.287 164.284 174.132 165.508 181.117 159.846C187.96 154.3 187.164 137.79 196.226 130.891C198.225 129.369 201.354 129.279 203.553 129.122C208.411 128.777 211.147 127.306 216.156 127.426" fill="#ecc4ae" fill-rule="evenodd" opacity="1" stroke="none"/>
<path d="M197.244 382.781C201.733 382.781 203.081 386.641 203.081 390.565C203.081 390.984 203.334 392.759 203.081 393.095C202.527 393.834 199.361 394.399 198.606 394.457C188.377 395.244 176.038 395.043 167.081 390.565C163.066 388.557 161.128 389.25 162.329 382.048" fill="none" fill-rule="evenodd" opacity="1" stroke="#000000" stroke-linecap="round" stroke-linejoin="round" stroke-width="2.57573"/>
<path d="M208.507 230.271C208.507 231.363 206.806 234.467 206.593 235.535" fill="none" fill-rule="evenodd" opacity="1" stroke="#000000" stroke-linecap="round" stroke-linejoin="round" stroke-width="2.57573"/>
<path d="M207.606 238.921C207.606 236.223 203.289 233.182 201.819 231.221" fill="none" fill-rule="evenodd" opacity="1" stroke="#000000" stroke-linecap="round" stroke-linejoin="round" stroke-width="2.57573"/>
<path d="M165.657 225.15C166.958 223.886 168.861 221.304 171.882 219.565" fill="none" fill-rule="evenodd" opacity="1" stroke="#000000" stroke-linecap="round" stroke-linejoin="round" stroke-width="2.57573"/>
<path d="M192.578 229.539C182.831 226.165 178.754 223.292 172.178 219.089" fill="none" fill-rule="evenodd" opacity="1" stroke="#000000" stroke-linecap="round" stroke-linejoin="round" stroke-width="2.57573"/>
<path d="M216.343 119.561C217.638 120.429 226.288 126.341 219.969 127.549C217.819 127.96 215.573 127.102 213.403 127.392C208.466 128.05 197.453 128.985 193.926 132.605C189.775 136.866 188.282 144.253 186.588 149.829C185.877 152.168 185.798 154.69 184.115 156.694C182.096 159.097 178.362 163.108 175.579 164.656C173.74 165.679 171.198 165.269 169.331 166.104C168.282 166.573 167.572 167.765 166.445 167.987C163.946 168.48 162.261 168.497 159.824 170.137C156.89 172.11 157.325 177.117 157.633 180.027C157.96 183.108 156.186 186.095 157.239 189.072C158.156 191.664 159.743 193.619 160.076 196.597C160.127 197.052 161.225 199.981 160.951 202.069C160.632 204.505 158.809 206.007 156.873 204.332C154.991 202.705 155.075 199.43 153.486 197.504C147.213 189.905 146.361 180.447 145.599 171.038C145.233 166.529 142.652 163.15 143.244 158.198C143.572 155.453 145.957 155.14 147.271 153.146C149.115 150.347 147.657 146.58 148.566 143.59C149.504 140.5 152.848 139.554 154.051 136.975C154.647 135.695 153.989 134.715 153.959 133.422C153.905 131.168 155.968 126.758 157.53 125.163C159.709 122.938 158.503 124.867 160.775 123.11C163.313 121.147 165.822 117.754 168.749 116.377C171.889 114.9 176.954 115.575 180.321 115.057C193.1 113.09 205.091 112.016 216.343 119.561Z" fill="#78695f" fill-rule="evenodd" opacity="1" stroke="none"/>
<path d="M217.446 224.228C212.289 225.412 208.208 223.54 203.567 221.479" fill="none" fill-rule="evenodd" opacity="1" stroke="#000000" stroke-linecap="round" stroke-linejoin="round" stroke-width="2.57573"/>
<path d="M238.167 182.599C238.438 183.911 238.165 186.377 238.027 188.277" fill="none" fill-rule="evenodd" opacity="1" stroke="#000000" stroke-linecap="round" stroke-linejoin="round" stroke-width="2.57573"/>
<path d="M222.585 149.013C224.599 148.581 232.138 146.035 234.604 147.502" fill="none" fill-rule="evenodd" opacity="1" stroke="#000000" stroke-linecap="round" stroke-linejoin="round" stroke-width="2.57573"/>
<path d="M217.554 120.265C219.097 119.695 223.562 125.127 222.835 126.704C222.06 128.386 212.925 126.463 211.328 127.585C207.158 130.512 199.143 127.427 195.545 131.197C193.502 133.337 190.899 137.919 190.22 140.794C189.345 144.492 188.348 146.501 187.168 148.83C185.338 152.438 187.504 153.263 184.667 156.424C181.834 159.58 173.559 165.007 176.03 164.325C178.5 163.643 171.925 165.081 169.754 165.603C167.861 166.057 166.529 167.639 165.838 168.462" fill="none" fill-rule="evenodd" opacity="1" stroke="#000000" stroke-linecap="round" stroke-linejoin="round" stroke-width="2.57573"/>
<path d="M216.613 118.763C214.199 117.591 206.3 113.99 204.496 113.679C196.078 112.223 185.158 114.512 177 115.693C174.435 116.065 171.396 115.123 168.981 116.308C165.561 117.987 164.534 121.272 161.561 123.192C159.947 124.234 157.868 124.794 156.678 126.258C155.948 127.156 156.572 128.696 155.708 129.347C154.578 130.199 153.521 129.74 153.298 131.421C153.127 132.714 155.273 136.242 154.329 137.235C152.226 139.446 150.338 139.069 149.51 141.383C148.216 145.002 149.193 150.579 146.562 153.91C145.689 155.016 143.952 155.568 143.515 156.885C142.461 160.056 143.674 163.537 143.869 166.859C143.947 168.183 145.033 168.632 145.424 169.823C145.808 170.997 144.925 171.693 145.13 172.661C145.855 176.089 145.772 182.067 147.461 185.286C149.889 189.916 147.843 191.216 150.806 193.89" fill="none" fill-rule="evenodd" opacity="1" stroke="#000000" stroke-linecap="round" stroke-linejoin="round" stroke-width="2.57573"/>
<path d="M220.924 127.706C223.488 131.457 225.652 136.081 228.18 139.916C228.216 139.97 231.055 145.956 231.167 146.311" fill="none" fill-rule="evenodd" opacity="1" stroke="#000000" stroke-linecap="round" stroke-linejoin="round" stroke-width="2.57573"/>
<path d="M233.942 157.554C236.667 161.068 247.283 172.819 247.959 180.382C248.128 182.269 247.488 184.634 245.775 185.647C243.71 186.867 240.184 186.1 238.345 187.567" fill="none" fill-rule="evenodd" opacity="1" stroke="#000000" stroke-linecap="round" stroke-linejoin="round" stroke-width="2.57573"/>
<path d="M238.409 187.591C235.816 192.629 236.882 199.908 234.528 203.481" fill="none" fill-rule="evenodd" opacity="1" stroke="#000000" stroke-linecap="round" stroke-linejoin="round" stroke-width="2.57573"/>
<path d="M234.528 203.604C232.962 203.186 228.312 201.606 226.783 202.253C225.96 202.602 226.372 203.327 225.459 203.515" fill="none" fill-rule="evenodd" opacity="1" stroke="#000000" stroke-linecap="round" stroke-linejoin="round" stroke-width="2.57573"/>
<path d="M226.258 203.549C227.604 203.63 232.013 204.168 232.806 206.802C233.292 208.416 229.828 210.197 229.613 210.321" fill="none" fill-rule="evenodd" opacity="1" stroke="#000000" stroke-linecap="round" stroke-linejoin="round" stroke-width="2.57573"/>
<path d="M229.716 210.036C228.92 212.071 226.221 219.196 222.455 221.426C219.146 223.385 217.942 224.061 217.609 224.619C215.378 228.361 197.906 232.681 195.092 229.322" fill="none" fill-rule="evenodd" opacity="1" stroke="#000000" stroke-linecap="round" stroke-linejoin="round" stroke-width="2.57573"/>
<path d="M170.588 170.737C162.662 164.342 156.138 173.019 157.834 179.368C159.429 185.337 162.1 192.103 171.936 188.985" fill="none" fill-rule="evenodd" opacity="1" stroke="#000000" stroke-linecap="round" stroke-linejoin="round" stroke-width="2.57573"/>
<path d="M158.078 182.183C157.927 183.925 156.535 186.673 157.282 188.057C158.759 190.791 158.499 192.416 159.957 194.983C160.764 196.404 160.448 198.522 161.191 200.101" fill="none" fill-rule="evenodd" opacity="1" stroke="#000000" stroke-linecap="round" stroke-linejoin="round" stroke-width="2.57573"/>
<path d="M151.012 194.049C152.554 197.328 156.181 201.094 157.524 203.95" fill="none" fill-rule="evenodd" opacity="1" stroke="#000000" stroke-linecap="round" stroke-linejoin="round" stroke-width="2.57573"/>
<path d="M161.251 201.743L160.524 203.333L159.59 204L158.42 204.89L157.961 204.879L157.961 204.879" fill="none" fill-rule="evenodd" opacity="1" stroke="#000000" stroke-linecap="round" stroke-linejoin="round" stroke-width="2.57573"/>
<path d="M160.707 205.393C161.687 205.743 161.707 207.218 162.255 208.102C164.667 211.993 169.348 215.114 171.838 219.029" fill="none" fill-rule="evenodd" opacity="1" stroke="#000000" stroke-linecap="round" stroke-linejoin="round" stroke-width="2.57573"/>
<path d="M167.347 175.813C163.819 173.942 163.569 184.907 169.421 183.111" fill="none" fill-rule="evenodd" opacity="1" stroke="#000000" stroke-linecap="round" stroke-linejoin="round" stroke-width="2.57573"/>
<path d="M234.413 148.596C234.339 151.685 235.103 167.692 229.536 169.554" fill="none" fill-rule="evenodd" opacity="1" stroke="#000000" stroke-linecap="round" stroke-linejoin="round" stroke-width="2.57573"/>
<path d="M222.141 149.963C221.981 156.633 222.298 163.441 223.743 169.874" fill="none" fill-rule="evenodd" opacity="1" stroke="#000000" stroke-linecap="round" stroke-linejoin="round" stroke-width="2.57573"/>
<path d="M229.291 169.776C227.044 170.834 226.107 170.759 223.738 170.105" fill="none" fill-rule="evenodd" opacity="1" stroke="#000000" stroke-linecap="round" stroke-linejoin="round" stroke-width="2.57573"/>
<path d="M222.249 154.825C219.607 153.347 216.092 156.236 213.12 157.174C210.373 158.041 207.632 158.923 204.89 159.799C195.854 162.688 186.329 164.756 177.362 167.67C175.357 168.322 172.475 169.694 170.232 170.008" fill="none" fill-rule="evenodd" opacity="1" stroke="#000000" stroke-linecap="round" stroke-linejoin="round" stroke-width="2.57573"/>
<path d="M227.209 157.808C224.213 156.121 229.49 157.896 227.822 160.596C226.411 162.881 223.688 158.635 224.254 157.426C225.237 155.328 228.257 160.532 228.257 160.532C228.257 160.532 228.099 160.007 228.02 159.744C227.172 156.933 227.042 156.599 225.331 156.854C225.007 156.903 224.185 157.574 224.482 157.804C225.676 158.73 229.111 157.379 228.732 162.106C228.58 163.998 223.848 161.351 223.445 160.015C221.441 153.369 231.12 160.012 227.209 157.808Z" fill="none" fill-rule="evenodd" opacity="1" stroke="#000000" stroke-linecap="round" stroke-linejoin="round" stroke-width="2.57573"/>
<path d="M230.126 151.3C226.595 151.332 223.181 151.516 219.713 150.774" fill="none" fill-rule="evenodd" opacity="1" stroke="#000000" stroke-linecap="round" stroke-linejoin="round" stroke-width="2.57573"/>
<path d="M201.915 231.523C201.33 230.528 200.319 229.818 199.762 228.871" fill="none" fill-rule="evenodd" opacity="1" stroke="#000000" stroke-linecap="round" stroke-linejoin="round" stroke-width="2.57573"/>
<path d="M199.584 228.792C195.749 228.195 190.758 228.913 187.073 227.358" fill="none" fill-rule="evenodd" opacity="1" stroke="#000000" stroke-linecap="round" stroke-linejoin="round" stroke-width="2.57573"/>
</g>
</g>
</svg>
