<?xml version="1.0" encoding="UTF-8" standalone="no"?>
<!DOCTYPE svg PUBLIC "-//W3C//DTD SVG 1.1//EN" "http://www.w3.org/Graphics/SVG/1.1/DTD/svg11.dtd">

<!-- Created with Vectornator (http://vectornator.io/) -->
<svg height="100%" stroke-miterlimit="10" style="fill-rule:nonzero;clip-rule:evenodd;stroke-linecap:round;stroke-linejoin:round;" version="1.1" viewBox="0 0 400 400" width="100%" xml:space="preserve" xmlns="http://www.w3.org/2000/svg" xmlns:vectornator="http://vectornator.io" xmlns:xlink="http://www.w3.org/1999/xlink">
<metadata>
<vectornator:setting key="IsTimeLapseWatermarkDisabled" value="false"/>
<vectornator:setting key="UndoHistoryDisabled" value="true"/>
<vectornator:setting key="VNDimensionsVisible" value="true"/>
<vectornator:setting key="VNSnapToGuides" value="true"/>
<vectornator:setting key="WDCMYKEnabledKey" value="false"/>
<vectornator:setting key="WDDisplayWhiteBackground" value="false"/>
<vectornator:setting key="WDDynamicGuides" value="false"/>
<vectornator:setting key="WDGuidesVisible" value="true"/>
<vectornator:setting key="WDIsolateActiveLayer" value="false"/>
<vectornator:setting key="WDOutlineMode" value="false"/>
<vectornator:setting key="WDRulersVisible" value="true"/>
<vectornator:setting key="WDSnapToEdges" value="false"/>
<vectornator:setting key="WDSnapToGrid" value="false"/>
<vectornator:setting key="WDSnapToPoints" value="false"/>
<vectornator:setting key="WDUnits" value="Pixels"/>
</metadata>
<defs/>
<g id="Layer-2" vectornator:layerName="Layer 2"/>
<clipPath id="ArtboardFrame">
<rect height="400" width="400" x="0" y="0"/>
</clipPath>
<g clip-path="url(#ArtboardFrame)" id="Layer-1" vectornator:layerName="Layer 1">
<g opacity="0">
<path d="M231.825 81.9595C231.587 81.5636 231.49 81.0376 231.112 80.7719C227.18 78.0044 223.499 74.6316 219 72.9344C214.275 71.1521 209.044 71.215 204.037 70.5593C202.387 70.3432 200.71 70.2132 199.05 70.3218C192.226 70.7682 185.395 71.2638 178.624 72.2218C172.236 73.1258 167.584 75.7934 164.541 78.8365C162.087 81.29 160.563 82.8191 159.387 86.7095C158.454 89.7919 158.183 90.803 157.724 92.8846C155.913 101.093 155.458 106.659 155.112 114.972C154.48 130.136 153.09 151.544 163.187 163.66C169.171 170.841 176.294 174.37 184.324 178.386C199.385 185.916 215.675 176.485 222.8 170.073C229.925 163.66 236.337 155.11 237.525 147.51" fill="none" fill-rule="evenodd" opacity="1" stroke="#000000" stroke-linecap="round" stroke-linejoin="round" stroke-width="2.57573"/>
<path d="M234.036 118.801C235.905 113.403 242.294 113.143 245.228 117.717C247.027 120.523 246.988 124.463 246.484 127.774C246.069 130.495 245.064 132.616 243.977 135.407C242.891 138.199 237.805 139.745 234.651 136.136" fill="none" fill-rule="evenodd" opacity="1" stroke="#000000" stroke-linecap="round" stroke-linejoin="round" stroke-width="2.57573"/>
<path d="M238.162 139.2C238.548 142.14 237.076 145.148 237.424 147.798" fill="none" fill-rule="evenodd" opacity="1" stroke="#000000" stroke-linecap="round" stroke-linejoin="round" stroke-width="2.57573"/>
<path d="M231.157 81.0298C231.981 84.1933 232.638 86.7352 232.971 90.1218C233.62 96.7145 231.128 109.419 237.605 114.394" fill="none" fill-rule="evenodd" opacity="1" stroke="#000000" stroke-linecap="round" stroke-linejoin="round" stroke-width="2.57573"/>
<path d="M159.753 85.4714C159.753 81.1073 162.482 77.1614 164.3 73.1942C167.193 66.8828 170.45 67.2687 176.122 64.3274C181.324 61.6301 187.095 62.4769 192.946 61.5992C200.108 60.5249 208.09 57.4705 215.455 57.9615C217.259 58.0818 217.35 58.7644 218.865 59.3256C220.485 59.9258 222.239 60.1085 223.867 60.6897C226.42 61.6018 226.713 64.6071 227.959 66.601C229.409 68.921 233.446 69.2179 235.234 71.6028C236.711 73.5713 236.935 76.331 238.19 78.4234C239.946 81.3498 241.146 83.0492 242.055 86.3808C243.218 90.6454 245.089 94.8257 245.465 99.34C245.773 103.032 244.33 106.83 243.874 110.48C243.717 111.736 244.222 114.225 243.419 115.027" fill="none" fill-rule="evenodd" opacity="1" stroke="#000000" stroke-linecap="round" stroke-linejoin="round" stroke-width="2.57573"/>
<path d="M190.437 112.281C190.437 118.092 184.756 127.233 186.756 133.234C188.25 137.715 194.849 139.136 196.95 134.933" fill="none" fill-rule="evenodd" opacity="1" stroke="#000000" stroke-linecap="round" stroke-linejoin="round" stroke-width="2.57573"/>
<path d="M182.792 155.886C183.039 155.229 183.314 152.933 184.774 153.055C186.618 153.208 188.089 154.782 189.871 155.037C192.316 155.386 201.48 150.236 201.48 155.603" fill="none" fill-rule="evenodd" opacity="1" stroke="#000000" stroke-linecap="round" stroke-linejoin="round" stroke-width="2.57573"/>
<path d="M172.033 162.115C174.968 165.638 178.735 169.761 183.075 171.459C191.402 174.718 207.034 175.076 211.673 165.796" fill="none" fill-rule="evenodd" opacity="1" stroke="#000000" stroke-linecap="round" stroke-linejoin="round" stroke-width="2.57573"/>
<path d="M185.171 112.303C187.75 109.83 193.824 111.189 196.998 111.893" fill="none" fill-rule="evenodd" opacity="1" stroke="#000000" stroke-linecap="round" stroke-linejoin="round" stroke-width="2.57573"/>
<path d="M237.794 114.071C237.923 114.1 238.051 114.129 238.18 114.157" fill="none" fill-rule="evenodd" opacity="1" stroke="#000000" stroke-linecap="round" stroke-linejoin="round" stroke-width="2.57573"/>
<path d="M153.557 106.249C154.425 109.722 154.613 116.828 156.964 119.649C161.694 125.325 167.691 124.124 174.579 124.31C176.21 124.354 180.272 123.84 181.493 122.375C184.701 118.525 185.354 111.258 185.354 106.476" fill="none" fill-rule="evenodd" opacity="1" stroke="#000000" stroke-linecap="round" stroke-linejoin="round" stroke-width="2.57573"/>
<path d="M197.846 107.384C197.085 109.668 198.118 116.402 198.3 118.286C199.16 127.169 205.739 126.168 212.723 126.643C217.206 126.947 220.225 126.732 222.603 125.781C229.24 123.126 229.416 111.214 229.416 106.703" fill="none" fill-rule="evenodd" opacity="1" stroke="#000000" stroke-linecap="round" stroke-linejoin="round" stroke-width="2.57573"/>
<path d="M153.216 105.695C154.188 104.709 153.882 104.846 156.134 104.565C158.744 104.239 161.371 104.052 163.997 103.903C166.99 103.734 169.987 104.156 172.979 104.344C175.345 104.492 184.562 104.945 185.905 106.269" fill="none" fill-rule="evenodd" opacity="1" stroke="#000000" stroke-linecap="round" stroke-linejoin="round" stroke-width="2.57573"/>
<path d="M198.215 106.787C205.695 105.235 213.514 105.323 221.107 105.715C222.201 105.772 227.523 105.43 228.882 106.77" fill="none" fill-rule="evenodd" opacity="1" stroke="#000000" stroke-linecap="round" stroke-linejoin="round" stroke-width="2.57573"/>
<path d="M229.263 106.81C229.578 108.082 231.271 108.5 232.351 109.241C233.903 110.306 236.364 112.756 237.741 114.369" fill="none" fill-rule="evenodd" opacity="1" stroke="#000000" stroke-linecap="round" stroke-linejoin="round" stroke-width="2.57573"/>
<g opacity="1">
<path d="M170.348 111.163C168.953 112.401 169.629 112.386 169.708 114.044C169.764 115.229 169.903 116.867 170.604 117.887C173.093 121.507 175.972 117.301 176.496 114.813C176.584 114.393 176.805 113.921 176.624 113.532C176.286 112.809 174.096 112.52 173.422 112.123C172.497 111.579 171.151 110.45 170.348 111.163Z" fill="#000000" fill-rule="evenodd" stroke="none"/>
<path d="M169.344 110.344C168.473 111.472 168.558 111.001 168.469 111.469C168.363 112.022 168.651 112.724 168.688 113.281C168.871 116.056 169.373 117.571 171.719 119.281C172.319 119.719 172.9 120.005 173.5 120.062C174.1 120.12 174.716 119.932 175.312 119.438C175.898 118.953 176.365 118.326 176.719 117.656C176.84 117.426 176.988 117.207 177.094 116.969C177.195 116.741 177.266 116.486 177.344 116.25C177.495 115.791 177.913 114.742 177.625 114.25C177.258 113.622 176.625 113.175 176.062 112.75C175.846 112.587 175.612 112.475 175.375 112.344C174.6 111.915 175.389 112.334 169.344 110.344ZM171.375 111.969C174.162 112.855 173.352 112.467 174.156 112.875C174.637 113.119 174.854 113.154 175.375 113.312C175.463 113.339 175.539 113.381 175.625 113.406C175.544 113.82 175.41 114.267 175.281 114.656C175.003 115.501 174.58 116.33 174.031 117.031C173.548 117.648 172.915 118.262 172.125 118.438C171.928 118.481 171.726 118.431 171.531 118.406C171.458 118.286 171.37 118.19 171.312 118.062C171.135 117.665 171.019 117.206 170.938 116.781C170.787 115.999 170.951 116.784 171.375 111.969Z" fill="#000000" stroke="none"/>
</g>
<path d="M213.648 111.72C213.585 112.023 209.335 112.712 207.75 113.73C205.874 114.935 206.63 116.489 206.779 116.825C207.378 118.176 207.425 118.744 208.552 119.702C209.634 120.622 211.605 120.364 212.788 120.113C214.824 119.681 215.695 116.894 216.487 114.998C217.618 112.288 218.019 110.78 213.71 111.766" fill="#000000" fill-rule="evenodd" opacity="1" stroke="none"/>
<path d="M238.743 123.322C238.864 122.973 239.36 122.642 239.762 122.781C241.138 123.26 240.338 126.558 240.219 127.349C240.157 127.757 239.959 130.096 239.543 129.478" fill="none" fill-rule="evenodd" opacity="1" stroke="#000000" stroke-linecap="round" stroke-linejoin="round" stroke-width="2.57573"/>
<path d="M178.553 108.935C173.605 107.492 168.499 107.968 163.406 108.154" fill="none" fill-rule="evenodd" opacity="1" stroke="#000000" stroke-linecap="round" stroke-linejoin="round" stroke-width="2.57573"/>
<path d="M220.573 108.657C215.991 108.805 211.816 109.512 207.369 110.619" fill="none" fill-rule="evenodd" opacity="1" stroke="#000000" stroke-linecap="round" stroke-linejoin="round" stroke-width="2.57573"/>
</g>
<g opacity="0">
<path d="M163.734 85.8158C162.174 90.1482 162.968 104.329 161.812 109.528C160.706 114.504 158.146 119.267 157.743 124.503C156.368 142.383 160.104 161.228 175.159 172.52C178.148 174.761 182.201 175.471 185.414 177.077" fill="none" fill-rule="evenodd" opacity="1" stroke="#000000" stroke-linecap="round" stroke-linejoin="round" stroke-width="2.57573"/>
<g opacity="1">
<path d="M184.612 177.174C191.585 177.878 197.961 179.794 204.326 175.954" fill="none" fill-rule="evenodd" opacity="1" stroke="#000000" stroke-linecap="round" stroke-linejoin="round" stroke-width="2.57573"/>
<g opacity="1">
<path d="M179.735 112.905C181.605 111.97 175.815 123.506 175.374 124.533C174.311 127.014 171.339 131.815 172.116 135.369C172.851 138.729 177.181 140.98 181.37 138.886" fill="none" fill-rule="evenodd" opacity="1" stroke="#000000" stroke-linecap="round" stroke-linejoin="round" stroke-width="2.57573"/>
<path d="M170.651 155.601C171.085 154.732 173.074 151.967 174.284 151.967C175.422 151.967 176.909 152.887 178.1 153.058C180.742 153.435 183.462 152.349 186.094 152.876C187.166 153.09 188.425 155.026 189.183 155.783" fill="none" fill-rule="evenodd" opacity="1" stroke="#000000" stroke-linecap="round" stroke-linejoin="round" stroke-width="2.57573"/>
<path d="M170.287 161.597C176.159 173.34 195.866 175.802 203.338 164.594" fill="none" fill-rule="evenodd" opacity="1" stroke="#000000" stroke-linecap="round" stroke-linejoin="round" stroke-width="2.57573"/>
<path d="M163.673 83.9161C165.093 78.2367 169.178 76.009 173.263 72.5074C175.217 70.8326 179.374 64.862 181.861 64.2402C183.59 63.808 185.751 64.1806 187.648 63.9095C189.414 63.6572 191.571 61.8352 193.601 61.4294C198.164 60.5167 203.683 60.0389 207.986 61.7601C209.748 62.4652 217.983 62.8285 218.733 63.5789C219.612 64.458 219.6 65.2457 221.048 65.7283C221.277 65.8047 222.735 65.8624 222.866 66.059C223.156 66.4928 223.032 68.5756 223.032 69.2005" fill="none" fill-rule="evenodd" opacity="1" stroke="#000000" stroke-linecap="round" stroke-linejoin="round" stroke-width="2.57573"/>
<path d="M224.597 69.286C225.774 70.4625 227.755 71.0919 229.099 72.167C234.253 76.2906 239.259 81.8628 242.244 87.8326C242.805 88.9544 244.224 90.3249 244.224 91.614" fill="none" fill-rule="evenodd" opacity="1" stroke="#000000" stroke-linecap="round" stroke-linejoin="round" stroke-width="2.57573"/>
<path d="M244.585 92.6944C246.425 93.6148 245.396 95.4894 245.845 96.8359C246.318 98.2559 248.903 98.7955 249.086 100.077C249.452 102.636 248.315 105.555 247.826 108C247.486 109.698 248.583 111.483 248.366 113.222C248.157 114.89 246.294 115.567 246.025 117.183C245.573 119.893 245.919 121.861 244.765 124.746C244.07 126.481 242.243 127.45 241.523 129.247C241.23 129.982 241.031 132.543 240.623 132.849C239.773 133.486 238.688 133.163 237.922 133.929" fill="none" fill-rule="evenodd" opacity="1" stroke="#000000" stroke-linecap="round" stroke-linejoin="round" stroke-width="2.57573"/>
<path d="M164.096 84.2313C163.619 85.1851 167.88 81.8879 168.057 81.7104C168.922 80.8458 171.628 79.0095 172.919 79.0095C177.43 79.0095 182.693 77.792 187.144 76.3085C188.987 75.6941 190.702 74.6493 192.726 75.4082C194.622 76.1192 195.92 78.1214 197.768 78.6493C203.885 80.3971 215.504 78.8289 219.015 85.8519C221.071 89.9625 218.583 95.4322 219.195 99.7169C219.471 101.648 221.702 102.86 221.896 104.219C222.279 106.898 221.881 108.862 222.977 111.601C225.168 117.08 234.141 116.678 234.141 120.965" fill="none" fill-rule="evenodd" opacity="1" stroke="#000000" stroke-linecap="round" stroke-linejoin="round" stroke-width="2.57573"/>
<path d="M224.369 124.591C225.618 123.342 226.563 122.077 228.151 121.17C232.04 118.947 236.54 121.558 237.154 125.852C237.587 128.885 237.366 132.111 236.235 134.79C235.18 137.287 233.335 139.309 230.491 140.257C228.307 140.985 227.231 140.418 225.63 138.816" fill="none" fill-rule="evenodd" opacity="1" stroke="#000000" stroke-linecap="round" stroke-linejoin="round" stroke-width="2.57573"/>
<path d="M204.731 175.845C209.123 174.223 215.518 170.449 218.561 167.913C226.022 161.696 232.127 144.175 231.793 139.839" fill="none" fill-rule="evenodd" opacity="1" stroke="#000000" stroke-linecap="round" stroke-linejoin="round" stroke-width="2.57573"/>
<path d="M164.632 113.267C163.554 114.108 164.527 114.469 164.725 115.799C164.995 117.606 166.425 121.159 168.754 121.092C170.694 121.036 174.014 117.643 172.744 115.658C171.758 114.118 170.372 114.259 168.901 113.696C167.244 113.061 166.06 112.152 164.632 113.267Z" fill="#000000" fill-rule="evenodd" opacity="1" stroke="none"/>
<path d="M190.626 116.524C189.107 118.102 189.921 118.739 190.912 120.53C195.312 128.491 204.437 111.395 197.249 113.818C194.99 114.579 192.355 114.728 190.626 116.524Z" fill="#000000" fill-rule="evenodd" opacity="1" stroke="none"/>
<path d="M164.007 109.32C166.043 109.32 167.95 110.401 169.952 110.401" fill="none" fill-rule="evenodd" opacity="1" stroke="#000000" stroke-linecap="round" stroke-linejoin="round" stroke-width="2.57573"/>
<path d="M190.059 111.374C193.575 110.495 197.32 110.401 200.978 110.401" fill="none" fill-rule="evenodd" opacity="1" stroke="#000000" stroke-linecap="round" stroke-linejoin="round" stroke-width="2.57573"/>
<path d="M154.038 107.973C154.038 109.315 154.657 114.07 155.209 116.335C156.386 121.161 158.809 126.716 162.439 127.169C165.061 127.497 168.056 127.973 170.712 127.594C171.391 127.497 172.961 127.18 173.576 127.488" fill="none" fill-rule="evenodd" opacity="1" stroke="#000000" stroke-linecap="round" stroke-linejoin="round" stroke-width="2.57573"/>
<path d="M179.917 108.147C180.601 110.197 179.917 112.127 179.917 114.192" fill="none" fill-rule="evenodd" opacity="1" stroke="#000000" stroke-linecap="round" stroke-linejoin="round" stroke-width="2.57573"/>
<path d="M180.789 113.205C182.46 112.992 183.263 113.479 184.386 114.727" fill="none" fill-rule="evenodd" opacity="1" stroke="#000000" stroke-linecap="round" stroke-linejoin="round" stroke-width="2.57573"/>
<path d="M184.765 111.25C183.718 116.554 184.402 123.657 187.431 128.177" fill="none" fill-rule="evenodd" opacity="1" stroke="#000000" stroke-linecap="round" stroke-linejoin="round" stroke-width="2.57573"/>
<path d="M187.341 127.909C194.169 127.909 204.395 130.862 210.765 127.677" fill="none" fill-rule="evenodd" opacity="1" stroke="#000000" stroke-linecap="round" stroke-linejoin="round" stroke-width="2.57573"/>
<path d="M210.328 128.065C213.148 122.426 215.894 116.594 215.894 109.976" fill="none" fill-rule="evenodd" opacity="1" stroke="#000000" stroke-linecap="round" stroke-linejoin="round" stroke-width="2.57573"/>
<path d="M184.558 109.124C184.558 107.837 191.865 107.964 193.139 107.733C199 106.667 211.358 105.654 216.562 109.124" fill="none" fill-rule="evenodd" opacity="1" stroke="#000000" stroke-linecap="round" stroke-linejoin="round" stroke-width="2.57573"/>
<path d="M216.328 109.304C216.584 110.644 219.44 111.516 220.52 112.25C223.328 114.158 230.623 120.023 233.912 120.463" fill="none" fill-rule="evenodd" opacity="1" stroke="#000000" stroke-linecap="round" stroke-linejoin="round" stroke-width="2.57573"/>
<path d="M179.142 107.439C170.845 106.966 162.271 105.138 154.062 107.364" fill="none" fill-rule="evenodd" opacity="1" stroke="#000000" stroke-linecap="round" stroke-linejoin="round" stroke-width="2.57573"/>
<path d="M229.248 127.438C231.45 125.236 232.224 130.237 231.806 131.7C231.538 132.635 230.227 133.642 229.675 134.47" fill="none" fill-rule="evenodd" opacity="1" stroke="#000000" stroke-linecap="round" stroke-linejoin="round" stroke-width="2.57573"/>
</g>
</g>
</g>
<path d="M147.32 558.771C147.32 552.798 144.501 546.17 143.006 540.436C141.347 534.08 139.673 527.68 138.152 521.292C135.206 508.916 134.917 496.198 134.917 483.544" fill="none" fill-rule="evenodd" opacity="1" stroke="#000000" stroke-linecap="round" stroke-linejoin="round" stroke-width="2.57573"/>
<path d="M142.197 550.143C138.16 534.67 127.321 517.313 133.568 501.07" fill="none" fill-rule="evenodd" opacity="1" stroke="#000000" stroke-linecap="round" stroke-linejoin="round" stroke-width="2.57573"/>
<path d="M131.411 558.232C131.124 545.856 128.967 534.523 127.097 522.371" fill="none" fill-rule="evenodd" opacity="1" stroke="#000000" stroke-linecap="round" stroke-linejoin="round" stroke-width="2.57573"/>
<g opacity="1">
<path d="M196.887 383.384C203.5 382.282 205.561 391.272 199.793 394.325C198.217 395.16 195.907 394.086 194.238 394.325C188.95 395.08 183.331 395.001 177.998 394.239C176.361 394.006 174.722 392.803 173.211 392.188C170.907 391.249 166.673 390.155 164.38 389.172C162.186 388.232 160.426 381.983 163.553 381.247C164.833 380.946 170.012 383.605 171.587 383.897C177.531 384.998 182.689 386.975 188.853 386.29" fill="#2e2e2e" fill-rule="evenodd" opacity="1" stroke="none"/>
<path d="M220.051 378.598C221.826 377.888 224.243 377.031 226.034 378.598C229.523 381.651 231.493 389.564 225.948 391.504C223.973 392.196 221.089 391.676 219.025 391.59C215.323 391.435 211.944 391.63 208.255 391.077C207.177 390.915 205.664 391.122 204.665 390.65C203.578 390.135 201.253 383.703 202.187 383.555C202.828 383.454 203.421 384 204.067 384.068C206.586 384.333 209.898 384.402 212.187 383.384" fill="#2e2e2e" fill-rule="evenodd" opacity="1" stroke="none"/>
<path d="M213.139 228.868C214.742 230.783 209.578 240.955 206.597 240.246C204.359 239.713 201.545 236.563 199.946 234.965C199.591 234.61 193.401 229.665 193.591 229.445C193.733 229.278 197.536 229.491 197.739 229.521C200.187 229.889 203.111 231.708 205.521 231.346C207.794 231.005 211.657 227.098 213.139 228.868Z" fill="#eae7e1" fill-rule="evenodd" opacity="1" stroke="none"/>
<path d="M227.386 317.727C231.947 320.253 227.828 328.047 227.302 333.049C226.12 344.276 223.786 355.511 221.577 366.554C220.882 370.031 222.04 373.741 220.894 376.555C219.99 378.774 217.177 380.291 214.169 381.707C209.65 383.833 204.437 383.219 199.977 382.475C199.291 382.361 197.56 381.362 196.819 381.686C194.971 382.494 193.27 383.629 191.271 384.569C185.137 387.456 178.143 385.48 172.153 384.054C169.796 383.493 165.312 383.33 163.8 381.62C162.287 379.91 163.975 373.775 163.734 369.978C163.208 361.69 164.16 344.868 161.826 332.617C161.441 330.594 159.716 318.806 162.024 317.883C163.123 317.443 165.855 318.737 167.027 318.569C169.107 318.272 170.153 320.866 171.919 322.588C173.657 324.282 176.115 325.095 178.139 325.809C180.633 326.689 183.032 324.549 185.087 322.466C186.022 321.518 186.521 319.748 187.567 319.748C193.908 319.748 200.513 321.263 206.929 321.263C211.317 321.263 216.497 320.067 220.883 318.916C223.342 318.27 225.191 316.512 227.386 317.727Z" fill="#dbc8a6" fill-rule="evenodd" opacity="1" stroke="none"/>
<path d="M214.319 230.15C220.742 231.735 220.832 246.328 223.026 252.087C225.157 257.68 225.662 263.827 228.47 269.161C234.74 281.074 241.458 288.223 237.749 302.443C236.752 306.265 235.189 310.621 232.429 313.578C227.818 318.518 218.406 319.583 212.014 319.888C208.555 320.052 207.263 320.173 203.808 320.691C201.061 321.103 190.845 322.477 188.878 321.125C186.752 319.663 187.483 316.728 187.393 314.568C187.273 311.679 186.086 307.375 184.795 304.793C183.879 302.96 182.971 302.283 180.583 303C179.728 303.256 176.974 304.156 176.176 304.555C173.638 305.824 171.673 305.407 168.835 305.536C168.062 305.571 165.796 305.138 165.247 306.031C164.779 306.791 168.747 316.847 166.484 317.413C165.646 317.623 159.683 317.717 159.416 316.65C158.688 313.737 159.893 307.533 160.05 304.546C160.435 297.231 160.092 290.041 158.562 282.647C156.529 272.821 155.282 263.077 156.046 253.148C157.101 239.434 158.642 228.268 171.834 220.206C173.499 219.188 174.644 220.652 175.679 221.487C177.557 223.004 178.751 223.638 181.355 225.058C184.808 226.941 186.995 226.826 190.15 229.238C192.473 231.014 195.055 231.742 197.461 233.506C199.03 234.657 205.232 240.771 207.313 240.333C210.989 239.559 209.939 234.579 211.52 232.662C211.997 232.083 213.59 229.97 214.319 230.15Z" fill="#353967" fill-rule="evenodd" opacity="1" stroke="none"/>
<path d="M208.262 229.829C207.684 232.427 207.131 234.031 206.119 233.96C204.683 233.859 202.674 231.081 201.387 229.022" fill="#ecc4ae" fill-rule="evenodd" opacity="1" stroke="none"/>
<path d="M182.095 303.843C184.554 307.706 186.482 312.424 186.601 317.07C186.643 318.695 185.868 321.907 184.355 323.345C182.037 325.546 178.344 325.514 175.99 324.338C169.826 321.256 167.888 313.675 166.543 307.622" fill="#ecc4ae" fill-rule="evenodd" opacity="1" stroke="none"/>
<path d="M218.718 243.578C221.984 246.517 222.919 250.789 224.603 255.121C226.552 260.134 226.189 262.96 227.207 265.677C229.15 270.857 232.804 275.69 235.108 280.131C237.942 285.597 239.251 290.57 239.11 296.093C238.877 305.25 235.755 311.262 229.887 316.122" fill="none" fill-rule="evenodd" opacity="1" stroke="#000000" stroke-linecap="round" stroke-linejoin="round" stroke-width="2.57573"/>
<path d="M160.967 292.595C159.63 303.1 158.576 307.159 159.473 317.185" fill="none" fill-rule="evenodd" opacity="1" stroke="#000000" stroke-linecap="round" stroke-linejoin="round" stroke-width="2.57573"/>
<path d="M229.516 316.493C230.258 316.122 228.095 317.4 227.291 317.606C222.523 318.823 217.675 319.717 212.828 320.572C205.767 321.818 194.683 320.353 187.517 320.596" fill="none" fill-rule="evenodd" opacity="1" stroke="#000000" stroke-linecap="round" stroke-linejoin="round" stroke-width="2.57573"/>
<path d="M229.146 317.976C229.146 337.826 221.358 356.978 221.358 376.571" fill="none" fill-rule="evenodd" opacity="1" stroke="#000000" stroke-linecap="round" stroke-linejoin="round" stroke-width="2.57573"/>
<path d="M161.67 318.223C160.78 326.236 162.636 332.507 163.095 345.111C163.404 353.6 163.631 367.165 164.112 371.5C164.408 374.164 162.992 377.328 162.992 379.908" fill="none" fill-rule="evenodd" opacity="1" stroke="#000000" stroke-linecap="round" stroke-linejoin="round" stroke-width="2.57573"/>
<path d="M200.524 337.021C200.524 344.964 197.544 354.963 197.386 361.764C197.271 366.71 199.333 376.413 197.015 381.048" fill="none" fill-rule="evenodd" opacity="1" stroke="#000000" stroke-linecap="round" stroke-linejoin="round" stroke-width="2.57573"/>
<path d="M214.903 230.366C220.128 234.808 221.637 245.417 222.268 248.571" fill="none" fill-rule="evenodd" opacity="1" stroke="#000000" stroke-linecap="round" stroke-linejoin="round" stroke-width="2.57573"/>
<path d="M166.249 225.058C163.214 227.524 162.228 229.4 160.861 231.394C159.187 233.835 157.722 237.677 156.991 242.851C155.654 252.311 156.231 262.16 156.477 268.556C156.685 273.964 160.182 294.634 165.196 305.548" fill="none" fill-rule="evenodd" opacity="1" stroke="#000000" stroke-linecap="round" stroke-linejoin="round" stroke-width="2.57573"/>
<path d="M175.585 250.37C175.585 250.37 174.325 260.955 175.634 271.693C176.234 276.616 177.094 283.947 178.337 289.375C179.924 296.304 181.875 300.831 181.875 300.831" fill="none" fill-rule="evenodd" opacity="1" stroke="#000000" stroke-linecap="round" stroke-linejoin="round" stroke-width="2.57573"/>
<path d="M214.415 230.278C214.415 230.024 214.472 229.637 214.111 229.517C213.725 229.389 212.083 233.81 211.981 234.081C211.319 235.847 209.105 239.492 207.417 240.167" fill="none" fill-rule="evenodd" opacity="1" stroke="#000000" stroke-linecap="round" stroke-linejoin="round" stroke-width="2.57573"/>
<path d="M207.417 240.015C205.837 238.961 203.793 238.783 202.245 237.428C198.511 234.161 196.57 232.92 192.514 230.216" fill="none" fill-rule="evenodd" opacity="1" stroke="#000000" stroke-linecap="round" stroke-linejoin="round" stroke-width="2.57573"/>
<path d="M182.38 300.999C181.485 301.447 180.93 302.622 180.022 303.189C177.491 304.771 173.137 305.235 170.25 305.716C169.379 305.862 166.523 306.685 166.039 305.716" fill="none" fill-rule="evenodd" opacity="1" stroke="#000000" stroke-linecap="round" stroke-linejoin="round" stroke-width="2.57573"/>
<path d="M181.033 303.526C183.02 299.551 186.652 312.107 186.761 312.624C187.765 317.394 187.693 320.371 185.611 322.551C184.39 323.83 182.477 324.834 179.685 325.764C173.885 327.698 168.154 317.715 167.049 313.298C166.907 312.728 165.44 306.344 166.207 306.727" fill="none" fill-rule="evenodd" opacity="1" stroke="#000000" stroke-linecap="round" stroke-linejoin="round" stroke-width="2.57573"/>
<path d="M159.655 317.398C160.432 317.136 166.877 317.837 168.103 318.446" fill="none" fill-rule="evenodd" opacity="1" stroke="#000000" stroke-linecap="round" stroke-linejoin="round" stroke-width="2.57573"/>
<path d="M220.237 378.111C215.811 384.751 203.813 385.077 197.275 381.808" fill="none" fill-rule="evenodd" opacity="1" stroke="#000000" stroke-linecap="round" stroke-linejoin="round" stroke-width="2.57573"/>
<path d="M196.886 381.419C190.745 390.631 171.404 384.147 162.637 381.225" fill="none" fill-rule="evenodd" opacity="1" stroke="#000000" stroke-linecap="round" stroke-linejoin="round" stroke-width="2.57573"/>
<path d="M221.21 378.5C227.142 375.534 229.578 382.384 229.578 386.868C229.578 387.421 229.827 388.759 229.383 389.203C224.288 394.298 209.787 392.084 203.625 390.472" fill="none" fill-rule="evenodd" opacity="1" stroke="#000000" stroke-linecap="round" stroke-linejoin="round" stroke-width="2.57573"/>
<path d="M217.019 126.863C220.047 128.828 221.924 132.175 224.116 135.044C225.863 137.331 226.978 139.584 227.865 141.886C229.085 145.053 229.871 148.314 231.271 151.883C233.291 157.037 238.514 161.776 241.954 166.008C244.471 169.105 248.978 173.04 248.574 177.58C248.024 183.755 241.935 181.553 239.841 184.361C237.686 187.25 240.087 193.327 237.651 196.354C235.64 198.853 230.164 197.132 228.151 199.651C225.333 203.179 237.476 201.215 236.817 204.897C236.481 206.77 233.459 206.801 232.573 207.483C231.649 208.194 231.796 210.365 231.592 211.263C230.931 214.168 227.598 217.757 225.5 219.907C221.109 224.408 217.109 227.225 211.019 227.931C209.537 228.103 206.961 230.165 202.655 229.639C199.482 229.251 189.128 228.278 186.447 227.358C179.705 225.044 168.225 215.679 165.31 208.871C164.365 206.664 165.182 204.227 164.492 202.032C163.733 199.62 162.542 196.806 161.502 194.456C159.743 190.481 157.443 178.967 159.999 174.934C164.979 167.078 173.898 167.486 180.336 161.207C186.641 155.058 184.334 138.69 192.725 130.989C194.576 129.29 197.684 128.913 199.859 128.556C204.665 127.766 207.254 126.051 212.253 125.711" fill="#ecc4ae" fill-rule="evenodd" opacity="1" stroke="none"/>
<path d="M197.47 382.781C201.96 382.781 203.308 386.641 203.308 390.565C203.308 390.984 203.56 392.759 203.308 393.095C202.753 393.834 199.588 394.399 198.832 394.457C188.603 395.244 176.264 395.043 167.308 390.565C163.293 388.557 161.355 389.25 162.555 382.048" fill="none" fill-rule="evenodd" opacity="1" stroke="#000000" stroke-linecap="round" stroke-linejoin="round" stroke-width="2.57573"/>
<path d="M208.733 230.271C208.733 231.363 207.033 234.467 206.819 235.535" fill="none" fill-rule="evenodd" opacity="1" stroke="#000000" stroke-linecap="round" stroke-linejoin="round" stroke-width="2.57573"/>
<path d="M207.832 238.921C207.832 236.223 203.516 233.182 202.045 231.221" fill="none" fill-rule="evenodd" opacity="1" stroke="#000000" stroke-linecap="round" stroke-linejoin="round" stroke-width="2.57573"/>
<path d="M165.883 225.15C167.184 223.886 169.087 221.304 172.109 219.565" fill="none" fill-rule="evenodd" opacity="1" stroke="#000000" stroke-linecap="round" stroke-linejoin="round" stroke-width="2.57573"/>
<path d="M192.805 229.539C183.057 226.165 178.981 223.292 172.404 219.089" fill="none" fill-rule="evenodd" opacity="1" stroke="#000000" stroke-linecap="round" stroke-linejoin="round" stroke-width="2.57573"/>
<path d="M211.719 117.862C213.087 118.608 222.243 123.701 216.061 125.484C213.958 126.09 211.643 125.442 209.509 125.929C204.653 127.037 193.773 128.978 190.592 132.907C186.849 137.53 186.04 145.023 184.865 150.731C184.371 153.126 184.524 155.644 183.032 157.793C181.242 160.371 177.891 164.708 175.262 166.505C173.525 167.692 170.955 167.517 169.172 168.52C168.171 169.083 167.573 170.335 166.471 170.66C164.028 171.38 162.352 171.551 160.076 173.407C157.335 175.642 158.227 180.587 158.801 183.456C159.409 186.495 157.916 189.632 159.238 192.5C160.388 194.997 162.148 196.798 162.754 199.733C162.846 200.182 164.208 202.998 164.127 205.102C164.032 207.557 162.355 209.219 160.272 207.729C158.249 206.282 158.033 203.013 156.274 201.241C149.33 194.249 147.615 184.909 145.993 175.609C145.215 171.153 142.335 168.025 142.47 163.04C142.545 160.276 144.892 159.746 146.017 157.639C147.597 154.683 145.8 151.066 146.43 148.005C147.082 144.842 150.324 143.593 151.286 140.915C151.762 139.586 151.017 138.67 150.868 137.385C150.608 135.146 152.258 130.565 153.667 128.833C155.633 126.418 154.609 128.45 156.71 126.492C159.057 124.304 161.244 120.695 164.033 119.056C167.024 117.297 172.13 117.505 175.435 116.68C187.98 113.55 199.822 111.38 211.719 117.862Z" fill="#78695f" fill-rule="evenodd" opacity="1" stroke="none"/>
<path d="M222.415 221.986C217.388 223.638 213.153 222.148 208.343 220.522" fill="none" fill-rule="evenodd" opacity="1" stroke="#000000" stroke-linecap="round" stroke-linejoin="round" stroke-width="2.57573"/>
<path d="M239.231 178.633C239.621 179.914 239.576 182.395 239.612 184.3" fill="none" fill-rule="evenodd" opacity="1" stroke="#000000" stroke-linecap="round" stroke-linejoin="round" stroke-width="2.57573"/>
<path d="M220.635 146.618C222.601 146.002 229.875 142.775 232.464 144.011" fill="none" fill-rule="evenodd" opacity="1" stroke="#000000" stroke-linecap="round" stroke-linejoin="round" stroke-width="2.57573"/>
<path d="M212.989 118.452C214.473 117.743 219.417 122.742 218.838 124.38C218.221 126.125 208.948 125.048 207.46 126.311C203.576 129.609 195.313 127.272 192.075 131.356C190.237 133.674 188.066 138.476 187.652 141.401C187.121 145.164 186.312 147.256 185.35 149.683C183.859 153.443 186.092 154.067 183.556 157.474C181.025 160.877 173.282 167.04 175.68 166.134C178.078 165.229 171.662 167.264 169.548 167.982C167.705 168.608 166.523 170.306 165.91 171.189" fill="none" fill-rule="evenodd" opacity="1" stroke="#000000" stroke-linecap="round" stroke-linejoin="round" stroke-width="2.57573"/>
<path d="M211.915 117.042C209.403 116.097 201.207 113.236 199.382 113.091C190.866 112.413 180.202 115.694 172.186 117.619C169.666 118.223 166.554 117.564 164.258 118.966C161.006 120.952 160.285 124.316 157.5 126.502C155.989 127.687 153.969 128.436 152.919 130.002C152.274 130.963 153.037 132.439 152.236 133.167C151.189 134.119 150.095 133.759 150.027 135.454C149.975 136.757 152.436 140.073 151.587 141.148C149.696 143.543 147.78 143.34 147.168 145.721C146.211 149.443 147.696 154.907 145.381 158.466C144.613 159.647 142.935 160.356 142.62 161.707C141.862 164.962 143.389 168.317 143.887 171.607C144.086 172.918 145.209 173.266 145.707 174.415C146.198 175.549 145.382 176.323 145.675 177.269C146.711 180.616 147.177 186.576 149.154 189.627C151.996 194.014 150.079 195.497 153.274 197.888" fill="none" fill-rule="evenodd" opacity="1" stroke="#000000" stroke-linecap="round" stroke-linejoin="round" stroke-width="2.57573"/>
<path d="M217.027 125.552C219.924 129.052 222.503 133.459 225.373 137.045C225.413 137.096 228.789 142.797 228.933 143.14" fill="none" fill-rule="evenodd" opacity="1" stroke="#000000" stroke-linecap="round" stroke-linejoin="round" stroke-width="2.57573"/>
<path d="M232.727 154.081C235.764 157.331 247.412 168.058 248.779 175.527C249.12 177.391 248.699 179.805 247.087 180.97C245.142 182.374 241.56 181.934 239.864 183.563" fill="none" fill-rule="evenodd" opacity="1" stroke="#000000" stroke-linecap="round" stroke-linejoin="round" stroke-width="2.57573"/>
<path d="M239.93 183.582C237.81 188.836 239.536 193.754 237.52 197.528" fill="none" fill-rule="evenodd" opacity="1" stroke="#000000" stroke-linecap="round" stroke-linejoin="round" stroke-width="2.57573"/>
<path d="M237.136 197.429C235.539 197.157 231.161 198.464 229.697 199.248C228.91 199.671 229.387 200.356 228.495 200.626" fill="none" fill-rule="evenodd" opacity="1" stroke="#000000" stroke-linecap="round" stroke-linejoin="round" stroke-width="2.57573"/>
<path d="M229.293 200.587C230.642 200.544 235.463 201.949 236.494 204.499C237.126 206.062 233.458 206.879 233.256 207.022" fill="none" fill-rule="evenodd" opacity="1" stroke="#000000" stroke-linecap="round" stroke-linejoin="round" stroke-width="2.57573"/>
<path d="M233.332 206.73C232.726 208.829 230.692 216.171 227.146 218.737C224.031 220.991 222.894 221.775 222.614 222.361C220.735 226.292 203.733 232.196 200.622 229.109" fill="none" fill-rule="evenodd" opacity="1" stroke="#000000" stroke-linecap="round" stroke-linejoin="round" stroke-width="2.57573"/>
<path d="M170.85 173.018C162.371 167.377 156.669 176.615 158.941 182.782C161.077 188.58 164.356 195.073 173.865 191.066" fill="none" fill-rule="evenodd" opacity="1" stroke="#000000" stroke-linecap="round" stroke-linejoin="round" stroke-width="2.57573"/>
<path d="M159.441 185.563C159.451 187.312 158.317 190.176 159.188 191.485C160.909 194.073 160.8 195.714 162.487 198.137C163.42 199.478 163.3 201.616 164.185 203.12" fill="none" fill-rule="evenodd" opacity="1" stroke="#000000" stroke-linecap="round" stroke-linejoin="round" stroke-width="2.57573"/>
<path d="M153.494 198.027C155.33 201.151 159.287 204.569 160.886 207.289" fill="none" fill-rule="evenodd" opacity="1" stroke="#000000" stroke-linecap="round" stroke-linejoin="round" stroke-width="2.57573"/>
<path d="M164.395 204.75L163.817 206.4L162.948 207.149L161.865 208.143L161.407 208.174L161.407 208.174" fill="none" fill-rule="evenodd" opacity="1" stroke="#000000" stroke-linecap="round" stroke-linejoin="round" stroke-width="2.57573"/>
<path d="M164.094 208.354C165.101 208.615 165.253 210.083 165.877 210.914C168.627 214.575 173.568 217.266 176.397 220.943" fill="none" fill-rule="evenodd" opacity="1" stroke="#000000" stroke-linecap="round" stroke-linejoin="round" stroke-width="2.57573"/>
<path d="M168.088 178.37C164.403 176.831 165.159 187.772 170.822 185.446" fill="none" fill-rule="evenodd" opacity="1" stroke="#000000" stroke-linecap="round" stroke-linejoin="round" stroke-width="2.57573"/>
<path d="M232.375 145.117C232.585 148.2 234.813 164.07 229.441 166.434" fill="none" fill-rule="evenodd" opacity="1" stroke="#000000" stroke-linecap="round" stroke-linejoin="round" stroke-width="2.57573"/>
<path d="M220.28 147.604C220.733 154.261 221.672 161.011 223.701 167.285" fill="none" fill-rule="evenodd" opacity="1" stroke="#000000" stroke-linecap="round" stroke-linejoin="round" stroke-width="2.57573"/>
<path d="M229.217 166.678C227.076 167.937 226.136 167.948 223.717 167.515" fill="none" fill-rule="evenodd" opacity="1" stroke="#000000" stroke-linecap="round" stroke-linejoin="round" stroke-width="2.57573"/>
<path d="M220.833 152.436C218.067 151.206 214.832 154.406 211.959 155.612C209.302 156.727 206.654 157.856 204.003 158.981C195.271 162.686 185.976 165.619 177.314 169.343C175.377 170.176 172.632 171.806 170.428 172.325" fill="none" fill-rule="evenodd" opacity="1" stroke="#000000" stroke-linecap="round" stroke-linejoin="round" stroke-width="2.57573"/>
<path d="M226.046 154.952C222.908 153.546 228.325 154.829 226.913 157.672C225.717 160.076 222.616 156.098 223.069 154.842C223.855 152.663 227.339 157.567 227.339 157.567C227.339 157.567 227.134 157.059 227.031 156.805C225.928 154.083 225.769 153.763 224.088 154.174C223.77 154.252 223.013 154.995 223.33 155.197C224.604 156.01 227.901 154.349 227.957 159.092C227.979 160.989 223.024 158.788 222.501 157.494C219.895 151.06 230.143 156.787 226.046 154.952Z" fill="none" fill-rule="evenodd" opacity="1" stroke="#000000" stroke-linecap="round" stroke-linejoin="round" stroke-width="2.57573"/>
<path d="M228.354 148.203C224.841 148.558 221.458 149.055 217.937 148.635" fill="none" fill-rule="evenodd" opacity="1" stroke="#000000" stroke-linecap="round" stroke-linejoin="round" stroke-width="2.57573"/>
<path d="M202.142 231.523C201.556 230.528 200.545 229.818 199.988 228.871" fill="none" fill-rule="evenodd" opacity="1" stroke="#000000" stroke-linecap="round" stroke-linejoin="round" stroke-width="2.57573"/>
<path d="M199.81 228.792C195.976 228.195 190.985 228.913 187.299 227.358" fill="none" fill-rule="evenodd" opacity="1" stroke="#000000" stroke-linecap="round" stroke-linejoin="round" stroke-width="2.57573"/>
</g>
</g>
</svg>
