<?xml version="1.0" encoding="UTF-8" standalone="no"?>
<!DOCTYPE svg PUBLIC "-//W3C//DTD SVG 1.1//EN" "http://www.w3.org/Graphics/SVG/1.1/DTD/svg11.dtd">

<!-- Created with Vectornator (http://vectornator.io/) -->
<svg height="100%" stroke-miterlimit="10" style="fill-rule:nonzero;clip-rule:evenodd;stroke-linecap:round;stroke-linejoin:round;" version="1.1" viewBox="0 0 400 400" width="100%" xml:space="preserve" xmlns="http://www.w3.org/2000/svg" xmlns:vectornator="http://vectornator.io" xmlns:xlink="http://www.w3.org/1999/xlink">
<metadata>
<vectornator:setting key="IsTimeLapseWatermarkDisabled" value="false"/>
<vectornator:setting key="UndoHistoryDisabled" value="true"/>
<vectornator:setting key="VNDimensionsVisible" value="true"/>
<vectornator:setting key="VNSnapToGuides" value="true"/>
<vectornator:setting key="WDCMYKEnabledKey" value="false"/>
<vectornator:setting key="WDDisplayWhiteBackground" value="false"/>
<vectornator:setting key="WDDynamicGuides" value="false"/>
<vectornator:setting key="WDGuidesVisible" value="true"/>
<vectornator:setting key="WDIsolateActiveLayer" value="false"/>
<vectornator:setting key="WDOutlineMode" value="false"/>
<vectornator:setting key="WDRulersVisible" value="true"/>
<vectornator:setting key="WDSnapToEdges" value="false"/>
<vectornator:setting key="WDSnapToGrid" value="false"/>
<vectornator:setting key="WDSnapToPoints" value="false"/>
<vectornator:setting key="WDUnits" value="Pixels"/>
</metadata>
<defs/>
<g id="Layer-1" vectornator:layerName="Layer 1">
<path d="M188.745 154.404C187.708 160.108 185.97 166.196 186.204 172.048C186.457 178.37 187.63 184.768 188.039 191.104C188.603 199.841 188.494 211.046 193.121 218.912C200.225 230.99 213.37 238.273 226.413 240.542C231.422 241.413 238.435 241.033 243.372 239.238C244.891 238.685 245.843 237.516 247.183 236.697C253.144 233.054 260.595 228.634 264.262 222.299C266.554 218.341 268.65 212.932 270.332 208.607C270.79 207.43 270.702 205.887 271.179 204.796C272.314 202.202 275.609 204.91 277.531 203.949C280.248 202.591 283.098 188.448 281.624 185.317C280.345 182.598 276.923 180.109 274.002 181.082C271.888 181.787 270.518 184.63 268.779 182.776C262.334 175.901 263.389 163.927 260.451 155.533C259.847 153.807 259.496 150.292 258.052 149.04C254.788 146.212 242.645 147.879 238.149 147.488C231.921 146.946 226.843 141.472 220.787 141.136C218.199 140.992 216.338 142.414 214.011 143.112C212.904 143.444 204.553 145.119 206.671 144.1C208.79 143.08 200.617 150.044 198.343 152.004" fill="#ecc4ae" fill-rule="evenodd" opacity="1" stroke="none"/>
<path d="M203.351 231.727C200.805 232.576 196.909 235.332 194.83 237.037C184.658 245.383 175.321 258.405 178.284 273.958C178.781 276.568 183.042 282.685 185.199 284.208C186.651 285.233 189.687 285.406 190.323 287.314C190.886 289.004 190.045 292.413 190.127 294.218C190.268 297.319 190.262 298.238 190.768 301.272C191.005 302.698 193.949 305.605 195.452 306.451C197.202 307.435 199.535 305.096 201.205 304.725C204.537 303.985 208.163 303.076 211.704 303.43C217.537 304.014 223.188 306.114 228.963 307.026C229.666 307.137 230.805 307.578 231.552 307.314C234.472 306.283 230.809 296.838 230.402 294.801C230.304 294.313 230.596 290.698 230.258 290.486C229.412 289.958 228.664 291.692 227.813 292.212C226.475 293.03 223.891 293.563 222.347 293.794C218.084 294.434 210.926 291.112 208.253 287.466C207.189 286.016 213.834 283.523 215.151 282.112C216.721 280.43 221.316 285.294 223.462 286.311C225.144 287.108 231.041 283.237 232.915 283.445C234.926 283.668 242.632 287.499 244.456 286.486C246.834 285.164 244.443 282.27 248.042 282.112C251.642 281.954 249.645 278.635 250.537 280.419C251.369 282.083 253.053 283.438 253.845 285.021C255.098 287.526 251.458 287.408 250.393 288.473C248.058 290.808 240.613 293.794 243.49 292.931C246.366 292.068 241.036 294.788 238.311 293.497C237.609 293.164 235.766 293.959 235.158 293.959C232.742 293.959 235.434 298.232 235.859 299.847C236.129 300.872 235.056 304.22 235.999 304.894C238.203 306.468 239.01 304.948 241.332 304.581C244.912 304.016 248.545 304.581 252.119 304.581C254.064 304.581 255.821 303.819 257.728 303.718C259.705 303.614 261.529 304.196 263.481 304.293C265.435 304.391 273.341 306.894 274.268 305.156C274.862 304.043 276.576 302.167 276.692 300.922C276.942 298.261 278.302 295.09 277.487 292.657C276.721 290.371 277.588 288.716 277.195 286.654C276.984 285.546 273.754 283.029 277.236 281.179C280.718 279.329 279.817 279.566 281.255 278.218C283.492 276.12 288.007 271.037 288.42 268.007C290.205 254.918 283.744 245.469 274.537 237.284C273.761 236.595 269.531 232.753 265.333 231.041C262.173 229.753 258.837 230.37 258.09 230.545C253.053 231.731 249.298 236.4 244.496 238.422C239.258 240.628 229.931 243.012 224.505 241.298C220.646 240.08 216.754 238.138 212.855 237.271" fill="#353967" fill-rule="evenodd" opacity="1" stroke="none"/>
<path d="M188.423 150.791C195.133 156.663 201.389 149.6 205.972 145.323C208.011 143.42 210.877 143.775 213.348 143.034C217.553 141.772 220.445 139.903 225.048 140.999C228.796 141.891 231.106 144.194 234.585 145.831C236.183 146.583 238.968 147.172 240.817 147.357C248.007 148.076 256.34 143.915 261.164 151.808C262.062 153.278 261.662 155.534 262.308 157.149C264.606 162.894 263.501 168.816 264.47 174.953C264.799 177.035 267.018 181.648 269.938 181.82C270.257 181.839 271.998 180.778 272.228 180.676C273.018 180.325 273.974 180.503 274.771 180.167C277.265 179.117 276.043 174.619 276.043 172.664C276.043 171.245 276.804 169.881 276.933 168.467C277.598 161.152 276.428 153.216 273.118 146.594C270.579 141.516 267.607 136.04 264.47 131.334C262.791 128.815 259.504 127.526 257.349 125.484C255.81 124.026 254.221 121.58 252.262 120.652C247.283 118.294 238.871 117.749 233.695 119.762C230.479 121.013 227.185 122.724 223.776 123.577C218.877 124.801 213.802 124.968 208.897 126.247C198.546 128.948 191.977 135.552 188.677 145.45" fill="#78695f" fill-rule="evenodd" opacity="1" stroke="none"/>
<path d="M195.039 308.03C190.648 309.897 186.615 312.317 183.369 315.422C174.921 323.503 177.23 335.99 177.849 346.648C178.065 350.356 177.396 360.655 180.53 363.091C183.83 365.655 189.835 366.764 194.093 366.561C196.203 366.46 201.058 366.607 203.24 366.712C207.461 366.913 212.586 368.769 216.487 367.013C218.843 365.953 217.565 356.199 217.906 353.588C218.619 348.134 223.808 333.356 229.892 330.96C231.822 330.199 234.224 332.911 235.411 334.128C238.699 337.497 242.15 343.283 242.981 347.855C243.617 351.351 244.422 355.174 244.085 358.716C243.992 359.698 242.687 364.257 242.981 364.901C243.697 366.466 247.867 365.934 249.289 366.41C254.852 368.272 260.819 368.353 266.637 367.768C268.609 367.569 270.507 366.764 272.472 366.862C274.6 366.97 276.827 366.861 278.938 367.164C279.924 367.306 281.687 368.22 282.565 367.768C283.698 367.184 282.444 364.283 282.565 363.393C283.11 359.398 285.743 356.296 286.35 352.23C287.505 344.496 287.482 336.224 285.877 328.546C285.22 325.406 282.778 322.83 281.776 319.797C279.91 314.145 277.317 307.783 271.526 305.013C263.055 300.962 247.081 304.554 237.935 306.22C231.127 307.461 224.995 304.417 218.222 304.108C211.102 303.784 204.512 306.959 197.562 306.22" fill="#dbc8a6" fill-rule="evenodd" opacity="1" stroke="none"/>
<path d="M222.858 264.204C219.262 266.901 218.417 270.132 217.327 274.314C215.177 282.553 217.069 286.949 223.239 292.434C226.233 295.095 227.75 296.726 231.632 298.156C235.104 299.435 238.831 301.351 242.695 300.063C248.443 298.147 250.042 289.427 252.232 284.804C254.437 280.15 252.661 277.297 250.706 273.169C250.118 271.929 250.337 270.405 249.752 269.164C248.337 266.155 243.833 263.463 241.36 261.343" fill="#353967" fill-rule="evenodd" opacity="1" stroke="none"/>
<path d="M240.686 288.053C239.353 287.119 236.483 286.279 234.853 286.208C233.374 286.144 231.784 288.144 230.805 289.065C226.06 293.531 226.193 299.489 230.924 303.59C231.501 304.09 231.433 305.098 231.995 305.613C233.642 307.123 237.114 303.646 238.305 302.875C238.878 302.505 240.133 302.252 240.567 301.685C240.929 301.211 241.904 291.249 241.758 290.375C241.618 289.534 241.384 288.542 240.686 288.053Z" fill="#353967" fill-rule="evenodd" opacity="1" stroke="none"/>
<path d="M204.968 290.473C207.038 294.113 209.776 294.478 213.41 295.723C216.414 296.752 219.573 296.806 222.943 296.823C225.918 296.838 230.827 294.102 232.181 291.183C233.666 287.982 232.705 284.476 231.438 281.337C229.599 276.783 224.421 275.527 220.227 274.883C217.992 274.539 214.919 275.057 213.096 276.851" fill="#ecc4ae" fill-rule="evenodd" opacity="1" stroke="none"/>
<path d="M251.986 275.085C248.258 273.517 244.694 273.289 240.404 274.118C232.205 275.703 228.234 283.355 234.005 291.979C235.285 293.892 246.329 293.666 248.508 293.419C252.616 292.954 258.413 289.869 262.161 288.484" fill="#ecc4ae" fill-rule="evenodd" opacity="1" stroke="none"/>
<path d="M246.409 365.943C241.392 369.302 244.82 375.864 249.564 378.014C252.864 379.509 257.178 379.115 260.699 379.789C266.238 380.849 272.542 383.198 278.329 381.742C286.665 379.643 286.333 373.954 281.112 368.961" fill="#2e2e2e" fill-rule="evenodd" opacity="1" stroke="none"/>
<path d="M178.31 364.515C177.135 364.96 175.752 364.844 174.641 365.421C170.961 367.33 170.721 374.094 174.279 376.106C177.208 377.762 181.523 377.19 184.76 377.505C192.868 378.293 199.885 378.703 207.944 376.63C210.307 376.022 214.196 375.471 216.17 374.06C219.986 371.331 218.577 367.857 214.506 367.215" fill="#2e2e2e" fill-rule="evenodd" opacity="1" stroke="none"/>
<path d="M227.505 230.065C228.078 235.218 228.855 233.767 230.059 230.158" fill="#ecc4ae" fill-rule="evenodd" opacity="1" stroke="none"/>
<path d="M220.196 239.999C220.47 242.124 225.522 244.376 228.861 244.926C230.862 245.256 236.045 243.349 237.494 242.463C238.279 241.982 242.427 240.35 242.325 239.745C242.193 238.957 234.919 240.466 233.628 240.551C230.956 240.728 227.081 241.236 224.48 240.721C223.046 240.438 220.066 238.993 220.196 239.999Z" fill="#eae7e1" fill-rule="evenodd" opacity="1" stroke="none"/>
</g>
<g id="Layer-2" vectornator:layerName="Layer 2">
<path d="M186.283 164.962C185.21 173.298 186.274 178.783 186.668 187.094C187.387 202.254 187.95 215.493 199.085 226.664C205.684 233.284 213.093 236.166 221.448 239.451C237.119 245.612 252.505 234.77 259.032 227.749C265.559 220.729 271.185 211.642 271.692 203.967" fill="none" fill-rule="evenodd" opacity="1" stroke="#000000" stroke-linecap="round" stroke-linejoin="round" stroke-width="2.57573"/>
<path d="M269.487 185.067C271.227 179.627 277.609 179.214 280.65 183.717C282.516 186.48 282.57 190.42 282.144 193.741C281.794 196.472 280.84 198.616 279.82 201.432C278.8 204.249 273.753 205.915 270.514 202.383" fill="none" fill-rule="evenodd" opacity="1" stroke="#000000" stroke-linecap="round" stroke-linejoin="round" stroke-width="2.57573"/>
<path d="M259.975 149.78C261.076 152.858 261.957 155.331 262.59 158.675C263.323 162.545 263.113 168.345 264.296 173.593C265.102 177.17 266.57 180.663 269.364 182.438" fill="none" fill-rule="evenodd" opacity="1" stroke="#000000" stroke-linecap="round" stroke-linejoin="round" stroke-width="2.57573"/>
<path d="M187.689 151.21C187.297 146.821 189.745 142.603 191.255 138.447C193.658 131.834 197.037 131.924 202.596 128.446C207.695 125.257 213.695 125.579 219.624 124.16C226.88 122.423 234.8 118.62 242.405 118.439C244.268 118.394 244.422 119.072 246.029 119.498C247.746 119.953 249.563 119.976 251.286 120.411C253.99 121.094 254.56 124.09 256.018 125.981C257.715 128.181 261.886 128.11 263.936 130.344C265.629 132.188 266.106 134.943 267.583 136.933C269.649 139.715 271.034 141.313 272.266 144.581C273.843 148.763 276.139 152.795 276.93 157.301C277.578 160.985 276.438 164.937 276.297 168.65C276.248 169.928 276.99 172.384 276.238 173.265" fill="none" fill-rule="evenodd" opacity="1" stroke="#000000" stroke-linecap="round" stroke-linejoin="round" stroke-width="2.57573"/>
<path d="M223.847 185.828C224.364 191.616 219.518 201.226 222.044 207.026C223.93 211.356 230.629 212.184 232.348 207.811" fill="none" fill-rule="evenodd" opacity="1" stroke="#000000" stroke-linecap="round" stroke-linejoin="round" stroke-width="2.57573"/>
<path d="M219.624 223.683C219.811 223.006 219.88 220.695 221.346 220.686C223.196 220.675 224.801 222.112 226.599 222.207C229.065 222.337 237.735 216.393 238.212 221.739" fill="none" fill-rule="evenodd" opacity="1" stroke="#000000" stroke-linecap="round" stroke-linejoin="round" stroke-width="2.57573"/>
<path d="M208.455 226.16C211.693 229.407 215.811 233.179 220.285 234.484C228.869 236.989 244.47 235.956 248.266 226.301" fill="none" fill-rule="evenodd" opacity="1" stroke="#000000" stroke-linecap="round" stroke-linejoin="round" stroke-width="2.57573"/>
<path d="M217.503 190.762C219.853 188.07 226.024 188.883 229.247 189.303" fill="none" fill-rule="evenodd" opacity="1" stroke="#000000" stroke-linecap="round" stroke-linejoin="round" stroke-width="2.57573"/>
<path d="M185.477 187.544C186.65 190.926 187.469 197.987 190.062 200.588C195.277 205.821 201.145 204.091 208.022 203.664C209.65 203.563 213.65 202.69 214.736 201.121C217.589 197.002 217.593 189.705 217.168 184.942" fill="none" fill-rule="evenodd" opacity="1" stroke="#000000" stroke-linecap="round" stroke-linejoin="round" stroke-width="2.57573"/>
<path d="M229.691 184.736C229.136 187.078 230.764 193.694 231.113 195.555C232.759 204.326 239.223 202.743 246.221 202.595C250.714 202.5 253.702 202.018 255.986 200.859C262.361 197.624 261.477 185.743 261.076 181.25" fill="none" fill-rule="evenodd" opacity="1" stroke="#000000" stroke-linecap="round" stroke-linejoin="round" stroke-width="2.57573"/>
<path d="M185.088 187.023C185.968 185.954 185.675 186.118 187.893 185.637C190.464 185.081 193.064 184.661 195.667 184.279C198.633 183.844 201.655 183.999 204.652 183.919C207.022 183.856 216.243 183.488 217.698 184.687" fill="none" fill-rule="evenodd" opacity="1" stroke="#000000" stroke-linecap="round" stroke-linejoin="round" stroke-width="2.57573"/>
<path d="M230.006 184.108C237.318 181.898 245.114 181.29 252.711 181.006C253.806 180.965 259.076 180.151 260.549 181.364" fill="none" fill-rule="evenodd" opacity="1" stroke="#000000" stroke-linecap="round" stroke-linejoin="round" stroke-width="2.57573"/>
<path d="M274.07 189.204C274.16 188.846 274.624 188.472 275.037 188.575C276.45 188.929 275.946 192.286 275.898 193.084C275.873 193.496 275.884 195.844 275.414 195.265" fill="none" fill-rule="evenodd" opacity="1" stroke="#000000" stroke-linecap="round" stroke-linejoin="round" stroke-width="2.57573"/>
<path d="M209.802 187.423C204.917 185.778 199.796 186.044 194.699 186.021" fill="none" fill-rule="evenodd" opacity="1" stroke="#000000" stroke-linecap="round" stroke-linejoin="round" stroke-width="2.57573"/>
<path d="M254.464 181.048C250.011 182.142 246.073 183.699 241.951 185.702" fill="none" fill-rule="evenodd" opacity="1" stroke="#000000" stroke-linecap="round" stroke-linejoin="round" stroke-width="2.57573"/>
<path d="M199.212 193.898C198.5 198.43 207.717 197.837 207.373 193.985" fill="none" fill-rule="evenodd" opacity="1" stroke="#000000" stroke-linecap="round" stroke-linejoin="round" stroke-width="2.57573"/>
<path d="M239.946 191.008C240.374 195.801 248.456 193.943 249.071 190.03" fill="none" fill-rule="evenodd" opacity="1" stroke="#000000" stroke-linecap="round" stroke-linejoin="round" stroke-width="2.57573"/>
<path d="M261.817 183.944C262.947 183.843 267.789 184.887 268.892 185.32" fill="none" fill-rule="evenodd" opacity="1" stroke="#000000" stroke-linecap="round" stroke-linejoin="round" stroke-width="2.57573"/>
<path d="M276.199 172.997C276.475 173.105 275.818 177.477 275.684 178.328C275.64 178.611 275.676 178.769 275.396 178.794" fill="none" fill-rule="evenodd" opacity="1" stroke="#000000" stroke-linecap="round" stroke-linejoin="round" stroke-width="2.57573"/>
<path d="M189.592 153.416C188.462 156.521 185.965 161.239 186.335 165.385" fill="none" fill-rule="evenodd" opacity="1" stroke="#000000" stroke-linecap="round" stroke-linejoin="round" stroke-width="2.57573"/>
<path d="M189.335 152.125C189.34 152.122 194.166 153.879 195.708 153.208C197.543 152.408 200.05 151.35 201.462 149.831C203.379 147.769 204.239 145.368 207.011 144.161C208.885 143.345 211.603 143.533 213.616 142.91C215.192 142.423 216.721 141.291 218.286 140.952C223.62 139.796 233.042 145.116 237.687 147.368C241.151 149.047 245.521 147.137 249.234 147.217C251.223 147.26 254.365 146.758 256.194 147.477C257.297 147.91 257.984 148.792 259.2 149.08" fill="none" fill-rule="evenodd" opacity="1" stroke="#000000" stroke-linecap="round" stroke-linejoin="round" stroke-width="2.57573"/>
<path d="M258.759 229.183C259.654 230.233 262.458 230.112 263.655 230.475C266.068 231.205 268.877 233.29 271.019 234.758C279.785 240.768 284.512 243.045 288.266 258.937" fill="none" fill-rule="evenodd" opacity="1" stroke="#000000" stroke-linecap="round" stroke-linejoin="round" stroke-width="2.57573"/>
<path d="M263.856 257.353C261.576 264.741 252.695 271.644 251.503 274.511" fill="none" fill-rule="evenodd" opacity="1" stroke="#000000" stroke-linecap="round" stroke-linejoin="round" stroke-width="2.57573"/>
<path d="M252.207 275.671C255.033 280.038 258.095 284.456 262.247 287.76" fill="none" fill-rule="evenodd" opacity="1" stroke="#000000" stroke-linecap="round" stroke-linejoin="round" stroke-width="2.57573"/>
<path d="M263.547 288.376C267.049 289.114 271.529 285.387 274.052 283.585C281.926 277.961 290.134 267.93 288.015 257.436" fill="none" fill-rule="evenodd" opacity="1" stroke="#000000" stroke-linecap="round" stroke-linejoin="round" stroke-width="2.57573"/>
<path d="M275.693 282.671C278.484 287.791 277.376 303.435 273.845 306.555" fill="none" fill-rule="evenodd" opacity="1" stroke="#000000" stroke-linecap="round" stroke-linejoin="round" stroke-width="2.57573"/>
<path d="M203.016 231.361C200.542 233.427 197.409 234.631 194.862 236.758C187.573 242.842 178.528 252.042 177.828 265.175" fill="none" fill-rule="evenodd" opacity="1" stroke="#000000" stroke-linecap="round" stroke-linejoin="round" stroke-width="2.57573"/>
<path d="M202.344 259.896C202.482 261.764 204.196 262.965 205.359 264.437C208.251 268.098 210.64 271.951 213.494 275.564" fill="none" fill-rule="evenodd" opacity="1" stroke="#000000" stroke-linecap="round" stroke-linejoin="round" stroke-width="2.57573"/>
<path d="M213.454 276.638C210.628 282.112 206.93 286.039 201.835 289.709" fill="none" fill-rule="evenodd" opacity="1" stroke="#000000" stroke-linecap="round" stroke-linejoin="round" stroke-width="2.57573"/>
<path d="M177.7 263.761C176.61 272.339 180.128 277.66 181.812 279.823C185.001 283.92 196.204 289.936 201.461 289.841" fill="none" fill-rule="evenodd" opacity="1" stroke="#000000" stroke-linecap="round" stroke-linejoin="round" stroke-width="2.57573"/>
<path d="M190.504 286.795C188.88 293.559 191.754 302.586 193.697 306.039" fill="none" fill-rule="evenodd" opacity="1" stroke="#000000" stroke-linecap="round" stroke-linejoin="round" stroke-width="2.57573"/>
<path d="M232.611 307.082C236.017 305.379 239.834 305.693 243.47 305.087C251.61 303.731 255.934 302.961 264.08 303.979C267.502 304.407 271.334 303.92 274.053 306.639" fill="none" fill-rule="evenodd" opacity="1" stroke="#000000" stroke-linecap="round" stroke-linejoin="round" stroke-width="2.57573"/>
<path d="M194.714 307.304C196.539 305.479 199.589 305.436 202.027 305.087C209.096 304.078 215.855 303.612 223.081 304.644C225.955 305.055 229.076 306.639 231.946 306.639" fill="none" fill-rule="evenodd" opacity="1" stroke="#000000" stroke-linecap="round" stroke-linejoin="round" stroke-width="2.57573"/>
<path d="M194.595 307.42C192.949 308.995 190.271 309.525 188.375 310.82C185.817 312.568 183.562 315.471 181.71 317.833C175.099 326.264 176.898 346.823 177.933 356.723C178.146 358.76 179.044 360.613 179.044 362.674" fill="none" fill-rule="evenodd" opacity="1" stroke="#000000" stroke-linecap="round" stroke-linejoin="round" stroke-width="2.57573"/>
<path d="M229.698 330.159C228.186 332.328 225.664 333.685 223.922 335.684C219.478 340.786 218.673 346.021 217.923 352.473C217.567 355.542 217.257 358.49 217.257 361.611C217.257 362.465 217.034 366.911 217.034 365.649" fill="none" fill-rule="evenodd" opacity="1" stroke="#000000" stroke-linecap="round" stroke-linejoin="round" stroke-width="2.57573"/>
<path d="M229.698 329.521C231.065 328.868 235.97 334.45 237.252 335.472C242.785 339.883 245.883 358.912 242.584 365.224" fill="none" fill-rule="evenodd" opacity="1" stroke="#000000" stroke-linecap="round" stroke-linejoin="round" stroke-width="2.57573"/>
<path d="M178.98 363.034C187.845 367.273 197.146 367.025 207.102 367.025C209.68 367.025 214.354 368.155 216.717 367.025" fill="none" fill-rule="evenodd" opacity="1" stroke="#000000" stroke-linecap="round" stroke-linejoin="round" stroke-width="2.57573"/>
<path d="M275.137 307.5C277.89 310.133 279.578 314.197 281.487 317.392C287.64 327.692 290.225 338.385 287.293 350.538C286.138 355.325 282.757 363.18 282.757 367.893" fill="none" fill-rule="evenodd" opacity="1" stroke="#000000" stroke-linecap="round" stroke-linejoin="round" stroke-width="2.57573"/>
<path d="M242.48 365.637C244.482 364.679 249.726 367.153 251.914 367.546C257.241 368.501 263.579 368.813 268.968 368.24C271.88 367.93 274.935 367.719 277.858 367.719C278.913 367.719 281.998 368.24 281.85 368.24" fill="none" fill-rule="evenodd" opacity="1" stroke="#000000" stroke-linecap="round" stroke-linejoin="round" stroke-width="2.57573"/>
<path d="M179.314 363.863C180.558 364.383 178.131 364.134 177.994 364.141C176.291 364.225 174.629 364.57 173.41 365.857C170.515 368.916 171.386 374.563 174.614 376.644C176.818 378.066 180.835 377.651 183.358 378.124C191.247 379.601 214.504 380.136 218.592 371.268C219.236 369.871 218.245 368.757 218.181 367.461" fill="none" fill-rule="evenodd" opacity="1" stroke="#000000" stroke-linecap="round" stroke-linejoin="round" stroke-width="2.57573"/>
<path d="M244.757 366.691C242.461 369.986 244.128 374.471 247.199 376.675C249.368 378.23 253.288 378.519 255.86 379.011C262.47 380.276 287.601 386.588 284.729 372.851C284.241 370.517 281.34 370.007 280.065 368.178" fill="none" fill-rule="evenodd" opacity="1" stroke="#000000" stroke-linecap="round" stroke-linejoin="round" stroke-width="2.57573"/>
<path d="M203.86 289.424C203.524 291.717 209.121 293.783 210.611 294.144C217.201 295.742 219.865 299.098 226.912 295.562C234.787 291.61 234.504 282.515 229.6 277.445C225.628 273.339 218.46 274.755 213.583 276.377" fill="none" fill-rule="evenodd" opacity="1" stroke="#000000" stroke-linecap="round" stroke-linejoin="round" stroke-width="2.57573"/>
<path d="M250.649 274.645C250.145 273.638 246.852 273.49 245.833 273.331C242.602 272.826 233.802 275.111 232.824 279.023" fill="none" fill-rule="evenodd" opacity="1" stroke="#000000" stroke-linecap="round" stroke-linejoin="round" stroke-width="2.57573"/>
<path d="M261.281 288.967C261.215 288.934 255.679 292.26 254.589 292.532C249.075 293.911 243.332 294.521 237.765 293.408C236.264 293.108 234.094 292.99 232.949 291.844" fill="none" fill-rule="evenodd" opacity="1" stroke="#000000" stroke-linecap="round" stroke-linejoin="round" stroke-width="2.57573"/>
<path d="M213.25 236.782C213.7 237.683 216.043 238.542 216.939 239.169C220.532 241.685 226.054 245.028 230.609 245.028" fill="none" fill-rule="evenodd" opacity="1" stroke="#000000" stroke-linecap="round" stroke-linejoin="round" stroke-width="2.57573"/>
<path d="M231.369 245.028C233.821 243.802 236.719 243.063 239.289 242.099C242.327 240.96 244.603 238.628 247.427 237.216" fill="none" fill-rule="evenodd" opacity="1" stroke="#000000" stroke-linecap="round" stroke-linejoin="round" stroke-width="2.57573"/>
<path d="M230.906 244.323C230.792 243.47 230.546 242.63 230.43 241.761" fill="none" fill-rule="evenodd" opacity="1" stroke="#000000" stroke-linecap="round" stroke-linejoin="round" stroke-width="2.57573"/>
<path d="M232.122 308.219C232.122 309.832 233.088 311.867 232.122 313.798" fill="none" fill-rule="evenodd" opacity="1" stroke="#000000" stroke-linecap="round" stroke-linejoin="round" stroke-width="2.57573"/>
</g>
</svg>
