<?xml version="1.0" encoding="UTF-8" standalone="no"?>
<!DOCTYPE svg PUBLIC "-//W3C//DTD SVG 1.1//EN" "http://www.w3.org/Graphics/SVG/1.1/DTD/svg11.dtd">

<!-- Created with Vectornator (http://vectornator.io/) -->
<svg height="100%" stroke-miterlimit="10" style="fill-rule:nonzero;clip-rule:evenodd;stroke-linecap:round;stroke-linejoin:round;" version="1.1" viewBox="0 0 400 400" width="100%" xml:space="preserve" xmlns="http://www.w3.org/2000/svg" xmlns:vectornator="http://vectornator.io" xmlns:xlink="http://www.w3.org/1999/xlink">
<metadata>
<vectornator:setting key="IsTimeLapseWatermarkDisabled" value="false"/>
<vectornator:setting key="UndoHistoryDisabled" value="true"/>
<vectornator:setting key="VNDimensionsVisible" value="true"/>
<vectornator:setting key="VNSnapToGuides" value="true"/>
<vectornator:setting key="WDCMYKEnabledKey" value="false"/>
<vectornator:setting key="WDDisplayWhiteBackground" value="false"/>
<vectornator:setting key="WDDynamicGuides" value="false"/>
<vectornator:setting key="WDGuidesVisible" value="true"/>
<vectornator:setting key="WDIsolateActiveLayer" value="false"/>
<vectornator:setting key="WDOutlineMode" value="false"/>
<vectornator:setting key="WDRulersVisible" value="true"/>
<vectornator:setting key="WDSnapToEdges" value="false"/>
<vectornator:setting key="WDSnapToGrid" value="false"/>
<vectornator:setting key="WDSnapToPoints" value="false"/>
<vectornator:setting key="WDUnits" value="Pixels"/>
</metadata>
<defs/>
<g id="Layer-2" vectornator:layerName="Layer 2">
<path d="M178.162 228.868C176.56 230.783 181.723 240.955 184.705 240.246C186.942 239.713 189.757 236.563 191.355 234.965C191.71 234.61 197.9 229.665 197.711 229.445C197.568 229.278 193.766 229.491 193.563 229.521C191.115 229.889 188.19 231.708 185.781 231.346C183.508 231.005 179.644 227.098 178.162 228.868Z" fill="#eae7e1" fill-rule="evenodd" opacity="1" stroke="none"/>
<path d="M176.983 230.15C170.559 231.735 170.47 246.328 168.276 252.087C166.145 257.68 165.639 263.827 162.832 269.161C156.562 281.074 149.843 288.223 153.553 302.443C154.55 306.265 156.113 310.621 158.873 313.578C163.484 318.518 172.896 319.583 179.287 319.888C182.747 320.052 184.039 320.173 187.494 320.691C190.24 321.103 200.457 322.477 202.424 321.125C204.55 319.663 203.818 316.728 203.908 314.568C204.029 311.679 205.216 307.375 206.506 304.793C207.423 302.96 208.331 302.283 210.719 303C211.574 303.256 214.327 304.156 215.125 304.555C217.664 305.824 219.629 305.407 222.467 305.536C223.24 305.571 225.506 305.138 226.055 306.031C226.523 306.791 222.554 316.847 224.818 317.413C225.655 317.623 231.619 317.717 231.886 316.65C232.614 313.737 231.408 307.533 231.251 304.546C230.866 297.231 231.209 290.041 232.739 282.647C234.772 272.821 236.019 263.077 235.255 253.148C234.2 239.434 232.66 228.268 219.468 220.206C217.803 219.188 216.657 220.652 215.622 221.487C213.745 223.004 212.55 223.638 209.946 225.058C206.494 226.941 204.306 226.826 201.151 229.238C198.829 231.014 196.247 231.742 193.841 233.506C192.271 234.657 186.07 240.771 183.989 240.333C180.313 239.559 181.363 234.579 179.782 232.662C179.304 232.083 177.711 229.97 176.983 230.15Z" fill="#353967" fill-rule="evenodd" opacity="1" stroke="none"/>
<path d="M183.04 229.829C183.617 232.427 184.171 234.031 185.182 233.96C186.619 233.859 188.628 231.081 189.915 229.022" fill="#ecc4ae" fill-rule="evenodd" opacity="1" stroke="none"/>
<path d="M209.207 303.843C206.748 307.706 204.82 312.424 204.701 317.07C204.659 318.695 205.433 321.907 206.947 323.345C209.264 325.546 212.958 325.514 215.311 324.338C221.475 321.256 223.414 313.675 224.759 307.622" fill="#ecc4ae" fill-rule="evenodd" opacity="1" stroke="none"/>
<path d="M170.28 129.011C167.445 131.245 165.882 134.75 163.963 137.807C162.433 140.245 161.529 142.591 160.857 144.964C159.933 148.231 159.449 151.549 158.383 155.232C156.843 160.549 152.077 165.748 149.04 170.277C146.817 173.592 142.69 177.924 143.509 182.407C144.622 188.506 150.484 185.755 152.826 188.358C155.237 191.038 154.213 199.952 156.916 202.743C159.147 205.046 163.634 200.189 165.869 202.513C168.999 205.767 157.454 203.456 158.448 207.062C158.954 208.897 161.239 210.119 162.185 210.717C163.17 211.341 163.222 213.515 163.508 214.391C164.432 217.224 168.08 220.491 170.367 222.44C175.152 226.519 179.393 228.958 185.522 229.102C187.014 229.137 189.768 230.955 194.008 230.036C197.132 229.359 207.418 225.882 210.002 224.72C216.505 221.797 227.013 212.978 229.291 205.931C230.029 203.647 228.992 201.295 229.479 199.045C230.013 196.574 230.941 193.663 231.761 191.227C233.148 187.108 234.383 175.432 231.467 171.65C225.788 164.284 216.944 165.508 209.958 159.846C203.115 154.3 203.911 137.79 194.849 130.891C192.85 129.369 189.721 129.279 187.522 129.122C182.664 128.777 179.929 127.306 174.92 127.426" fill="#ecc4ae" fill-rule="evenodd" opacity="1" stroke="none"/>
<path d="M174.732 119.561C173.438 120.429 164.787 126.341 171.107 127.549C173.257 127.96 175.502 127.102 177.672 127.392C182.609 128.05 193.622 128.985 197.15 132.605C201.301 136.866 202.793 144.253 204.487 149.829C205.198 152.168 205.277 154.69 206.96 156.694C208.979 159.097 212.713 163.108 215.496 164.656C217.335 165.679 219.877 165.269 221.745 166.104C222.793 166.573 223.504 167.765 224.631 167.987C227.129 168.48 228.814 168.497 231.251 170.137C234.185 172.11 233.751 177.117 233.442 180.027C233.115 183.108 234.89 186.095 233.836 189.072C232.92 191.664 231.332 193.619 230.999 196.597C230.948 197.052 229.85 199.981 230.124 202.069C230.444 204.505 232.266 206.007 234.203 204.332C236.085 202.705 236 199.43 237.59 197.504C243.862 189.905 244.714 180.447 245.477 171.038C245.842 166.529 248.423 163.15 247.832 158.198C247.504 155.453 245.118 155.14 243.804 153.146C241.96 150.347 243.418 146.58 242.51 143.59C241.571 140.5 238.228 139.554 237.025 136.975C236.428 135.695 237.086 134.715 237.117 133.422C237.17 131.168 235.107 126.758 233.545 125.163C231.366 122.938 232.572 124.867 230.3 123.11C227.762 121.147 225.254 117.754 222.327 116.377C219.187 114.9 214.121 115.575 210.754 115.057C197.975 113.09 185.984 112.016 174.732 119.561Z" fill="#78695f" fill-rule="evenodd" opacity="1" stroke="none"/>
<path d="M163.197 318.456C163.197 330.082 165.614 341.873 170.746 352.136C172.273 355.191 173.999 358.175 175.729 361.116C177.286 363.762 178.356 364.714 180.424 366.653C181.917 368.053 182.501 370.362 183.714 371.879C184.577 372.957 186.063 373.386 187.005 374.396C187.543 374.972 188.426 377.067 189.134 377.493C189.696 377.83 200.037 378.835 200.554 378.654C201.265 378.405 203.868 378.935 204.598 378.752C206.674 378.234 214.172 379.344 215.652 378.267C218.016 376.548 218.669 366.424 219.19 363.951C219.846 360.834 220.183 357.895 221.072 354.846C221.713 352.648 222.443 350.831 223.074 348.624C223.854 345.893 223.984 342.946 225.331 340.522C226.849 337.788 227.004 334.641 228.234 331.812C229.671 328.508 229.149 326.928 230.422 323.745C230.59 323.324 232.269 319.506 231.912 318.843C231.106 317.346 227.455 318.346 226.298 318.456C221.341 318.928 220.927 323.745 216.62 325.037C208.074 327.601 211.149 323.407 205.006 321.359" fill="#dbc8a6" fill-rule="evenodd" opacity="1" stroke="none"/>
<path d="M182.552 372.642C178.171 372.155 173.628 375.703 172.027 379.506C171.147 381.595 169.842 385.983 172.942 386.828C176.246 387.729 179.727 389.08 183.315 389.421C185.997 389.677 188.603 388.266 191.247 388.506C193.681 388.727 196.452 388.753 198.874 389.116C200.551 389.368 201.77 390.465 203.451 390.642C206.574 390.971 210.681 390.803 213.824 390.489C217.961 390.076 219.892 380.42 216.722 378.438C214.957 377.335 206.176 379.246 203.908 379.659C197.922 380.747 194.017 378.548 188.654 376.76" fill="#2e2e2e" fill-rule="evenodd" opacity="1" stroke="none"/>
<path d="M219.704 364.738C226.514 364.738 222.755 370.737 221.204 373.667C220.869 374.3 219.356 378.002 217.99 377.381C217.367 377.098 217.609 371.834 217.637 371.269C217.726 369.502 217.694 369.959 218.4 368.371" fill="#2e2e2e" fill-rule="evenodd" opacity="1" stroke="none"/>
</g>
<g id="Layer-1" vectornator:layerName="Layer 1">
<path d="M147.32 558.771C147.32 552.798 144.501 546.17 143.006 540.436C141.347 534.08 139.673 527.68 138.152 521.292C135.206 508.916 134.917 496.198 134.917 483.544" fill="none" fill-rule="evenodd" opacity="1" stroke="#000000" stroke-linecap="round" stroke-linejoin="round" stroke-width="2.57573"/>
<path d="M142.197 550.143C138.16 534.67 127.321 517.313 133.568 501.07" fill="none" fill-rule="evenodd" opacity="1" stroke="#000000" stroke-linecap="round" stroke-linejoin="round" stroke-width="2.57573"/>
<path d="M131.411 558.232C131.124 545.856 128.967 534.523 127.097 522.371" fill="none" fill-rule="evenodd" opacity="1" stroke="#000000" stroke-linecap="round" stroke-linejoin="round" stroke-width="2.57573"/>
<path d="M172.583 243.578C169.317 246.517 168.383 250.789 166.699 255.121C164.75 260.134 165.113 262.96 164.094 265.677C162.152 270.857 158.497 275.69 156.194 280.131C153.359 285.597 152.051 290.57 152.192 296.093C152.425 305.25 155.547 311.262 161.414 316.122" fill="none" fill-rule="evenodd" opacity="1" stroke="#000000" stroke-linecap="round" stroke-linejoin="round" stroke-width="2.57573"/>
<path d="M230.335 292.595C231.672 303.1 232.726 307.159 231.829 317.185" fill="none" fill-rule="evenodd" opacity="1" stroke="#000000" stroke-linecap="round" stroke-linejoin="round" stroke-width="2.57573"/>
<path d="M161.785 316.493C161.044 316.122 163.207 317.4 164.01 317.606C168.779 318.823 173.627 319.717 178.473 320.572C185.535 321.818 196.618 320.353 203.785 320.596" fill="none" fill-rule="evenodd" opacity="1" stroke="#000000" stroke-linecap="round" stroke-linejoin="round" stroke-width="2.57573"/>
<path d="M162.894 318.359C163.691 329.393 164.005 331.273 166.124 342.717C167.576 350.558 177.21 362.966 182.27 370.767" fill="none" fill-rule="evenodd" opacity="1" stroke="#000000" stroke-linecap="round" stroke-linejoin="round" stroke-width="2.57573"/>
<path d="M231.854 316.633C230.96 324.646 227.769 330.355 224.549 342.549C222.38 350.762 219.174 363.944 217.75 368.068C216.875 370.601 217.561 373.999 216.993 376.516" fill="none" fill-rule="evenodd" opacity="1" stroke="#000000" stroke-linecap="round" stroke-linejoin="round" stroke-width="2.57573"/>
<path d="M189.817 326.422C188.069 334.17 188.776 344.58 187.434 351.249C186.458 356.1 182.312 365.111 183.553 370.143" fill="none" fill-rule="evenodd" opacity="1" stroke="#000000" stroke-linecap="round" stroke-linejoin="round" stroke-width="2.57573"/>
<path d="M176.398 230.366C171.174 234.808 169.665 245.417 169.034 248.571" fill="none" fill-rule="evenodd" opacity="1" stroke="#000000" stroke-linecap="round" stroke-linejoin="round" stroke-width="2.57573"/>
<path d="M225.052 225.058C228.087 227.524 229.073 229.4 230.441 231.394C232.115 233.835 233.58 237.677 234.311 242.851C235.648 252.311 235.071 262.16 234.825 268.556C234.617 273.964 231.12 294.634 226.105 305.548" fill="none" fill-rule="evenodd" opacity="1" stroke="#000000" stroke-linecap="round" stroke-linejoin="round" stroke-width="2.57573"/>
<path d="M215.717 250.37C215.717 250.37 216.977 260.955 215.668 271.693C215.067 276.616 214.208 283.947 212.965 289.375C211.377 296.304 209.427 300.831 209.427 300.831" fill="none" fill-rule="evenodd" opacity="1" stroke="#000000" stroke-linecap="round" stroke-linejoin="round" stroke-width="2.57573"/>
<path d="M176.886 230.278C176.886 230.024 176.83 229.637 177.191 229.517C177.577 229.389 179.218 233.81 179.32 234.081C179.983 235.847 182.196 239.492 183.884 240.167" fill="none" fill-rule="evenodd" opacity="1" stroke="#000000" stroke-linecap="round" stroke-linejoin="round" stroke-width="2.57573"/>
<path d="M183.884 240.015C185.464 238.961 187.508 238.783 189.057 237.428C192.791 234.161 194.732 232.92 198.788 230.216" fill="none" fill-rule="evenodd" opacity="1" stroke="#000000" stroke-linecap="round" stroke-linejoin="round" stroke-width="2.57573"/>
<path d="M208.921 300.999C209.817 301.447 210.372 302.622 211.28 303.189C213.811 304.771 218.164 305.235 221.051 305.716C221.923 305.862 224.779 306.685 225.263 305.716" fill="none" fill-rule="evenodd" opacity="1" stroke="#000000" stroke-linecap="round" stroke-linejoin="round" stroke-width="2.57573"/>
<path d="M210.269 303.526C208.282 299.551 204.65 312.107 204.541 312.624C203.537 317.394 203.608 320.371 205.691 322.551C206.912 323.83 208.824 324.834 211.617 325.764C217.417 327.698 223.148 317.715 224.252 313.298C224.395 312.728 225.862 306.344 225.095 306.727" fill="none" fill-rule="evenodd" opacity="1" stroke="#000000" stroke-linecap="round" stroke-linejoin="round" stroke-width="2.57573"/>
<path d="M231.647 317.398C230.869 317.136 224.425 317.837 223.198 318.446" fill="none" fill-rule="evenodd" opacity="1" stroke="#000000" stroke-linecap="round" stroke-linejoin="round" stroke-width="2.57573"/>
<path d="M183.746 372.07C188.27 382.176 208.42 378.998 217.55 377.574" fill="none" fill-rule="evenodd" opacity="1" stroke="#000000" stroke-linecap="round" stroke-linejoin="round" stroke-width="2.57573"/>
<path d="M182.568 230.271C182.568 231.363 184.269 234.467 184.482 235.535" fill="none" fill-rule="evenodd" opacity="1" stroke="#000000" stroke-linecap="round" stroke-linejoin="round" stroke-width="2.57573"/>
<path d="M183.47 238.921C183.47 236.223 187.786 233.182 189.257 231.221" fill="none" fill-rule="evenodd" opacity="1" stroke="#000000" stroke-linecap="round" stroke-linejoin="round" stroke-width="2.57573"/>
<path d="M225.418 225.15C224.117 223.886 222.214 221.304 219.193 219.565" fill="none" fill-rule="evenodd" opacity="1" stroke="#000000" stroke-linecap="round" stroke-linejoin="round" stroke-width="2.57573"/>
<path d="M198.497 229.539C208.244 226.165 212.321 223.292 218.897 219.089" fill="none" fill-rule="evenodd" opacity="1" stroke="#000000" stroke-linecap="round" stroke-linejoin="round" stroke-width="2.57573"/>
<path d="M173.629 224.228C178.787 225.412 182.867 223.54 187.508 221.479" fill="none" fill-rule="evenodd" opacity="1" stroke="#000000" stroke-linecap="round" stroke-linejoin="round" stroke-width="2.57573"/>
<path d="M152.909 182.599C152.637 183.911 152.91 186.377 153.049 188.277" fill="none" fill-rule="evenodd" opacity="1" stroke="#000000" stroke-linecap="round" stroke-linejoin="round" stroke-width="2.57573"/>
<path d="M168.49 149.013C166.476 148.581 158.937 146.035 156.472 147.502" fill="none" fill-rule="evenodd" opacity="1" stroke="#000000" stroke-linecap="round" stroke-linejoin="round" stroke-width="2.57573"/>
<path d="M173.521 120.265C171.978 119.695 167.513 125.127 168.24 126.704C169.015 128.386 178.15 126.463 179.747 127.585C183.917 130.512 191.932 127.427 195.53 131.197C197.573 133.337 200.176 137.919 200.856 140.794C201.73 144.492 202.727 146.501 203.908 148.83C205.737 152.438 203.571 153.263 206.409 156.424C209.242 159.58 217.516 165.007 215.046 164.325C212.575 163.643 219.15 165.081 221.321 165.603C223.214 166.057 224.546 167.639 225.238 168.462" fill="none" fill-rule="evenodd" opacity="1" stroke="#000000" stroke-linecap="round" stroke-linejoin="round" stroke-width="2.57573"/>
<path d="M174.462 118.763C176.876 117.591 184.775 113.99 186.579 113.679C194.997 112.223 205.917 114.512 214.076 115.693C216.641 116.065 219.679 115.123 222.094 116.308C225.514 117.987 226.541 121.272 229.515 123.192C231.128 124.234 233.208 124.794 234.398 126.258C235.128 127.156 234.503 128.696 235.367 129.347C236.498 130.199 237.554 129.74 237.777 131.421C237.949 132.714 235.802 136.242 236.746 137.235C238.849 139.446 240.738 139.069 241.566 141.383C242.86 145.002 241.882 150.579 244.513 153.91C245.387 155.016 247.123 155.568 247.561 156.885C248.614 160.056 247.401 163.537 247.206 166.859C247.129 168.183 246.042 168.632 245.652 169.823C245.267 170.997 246.151 171.693 245.946 172.661C245.22 176.089 245.303 182.067 243.615 185.286C241.187 189.916 243.232 191.216 240.27 193.89" fill="none" fill-rule="evenodd" opacity="1" stroke="#000000" stroke-linecap="round" stroke-linejoin="round" stroke-width="2.57573"/>
<path d="M170.152 127.706C167.587 131.457 165.423 136.081 162.895 139.916C162.859 139.97 160.021 145.956 159.908 146.311" fill="none" fill-rule="evenodd" opacity="1" stroke="#000000" stroke-linecap="round" stroke-linejoin="round" stroke-width="2.57573"/>
<path d="M157.133 157.554C154.408 161.068 143.792 172.819 143.116 180.382C142.947 182.269 143.588 184.634 145.3 185.647C147.366 186.867 150.892 186.1 152.73 187.567" fill="none" fill-rule="evenodd" opacity="1" stroke="#000000" stroke-linecap="round" stroke-linejoin="round" stroke-width="2.57573"/>
<path d="M152.666 187.591C155.259 192.629 154.194 199.908 156.547 203.481" fill="none" fill-rule="evenodd" opacity="1" stroke="#000000" stroke-linecap="round" stroke-linejoin="round" stroke-width="2.57573"/>
<path d="M156.547 203.604C158.113 203.186 162.764 201.606 164.293 202.253C165.116 202.602 164.704 203.327 165.616 203.515" fill="none" fill-rule="evenodd" opacity="1" stroke="#000000" stroke-linecap="round" stroke-linejoin="round" stroke-width="2.57573"/>
<path d="M164.818 203.549C163.471 203.63 159.062 204.168 158.269 206.802C157.783 208.416 161.247 210.197 161.462 210.321" fill="none" fill-rule="evenodd" opacity="1" stroke="#000000" stroke-linecap="round" stroke-linejoin="round" stroke-width="2.57573"/>
<path d="M161.36 210.036C162.155 212.071 164.854 219.196 168.62 221.426C171.929 223.385 173.133 224.061 173.466 224.619C175.697 228.361 193.169 232.681 195.984 229.322" fill="none" fill-rule="evenodd" opacity="1" stroke="#000000" stroke-linecap="round" stroke-linejoin="round" stroke-width="2.57573"/>
<path d="M220.487 170.737C228.413 164.342 234.937 173.019 233.241 179.368C231.646 185.337 228.976 192.103 219.14 188.985" fill="none" fill-rule="evenodd" opacity="1" stroke="#000000" stroke-linecap="round" stroke-linejoin="round" stroke-width="2.57573"/>
<path d="M232.998 182.183C233.149 183.925 234.54 186.673 233.793 188.057C232.317 190.791 232.576 192.416 231.118 194.983C230.311 196.404 230.627 198.522 229.884 200.101" fill="none" fill-rule="evenodd" opacity="1" stroke="#000000" stroke-linecap="round" stroke-linejoin="round" stroke-width="2.57573"/>
<path d="M240.063 194.049C238.521 197.328 234.894 201.094 233.551 203.95" fill="none" fill-rule="evenodd" opacity="1" stroke="#000000" stroke-linecap="round" stroke-linejoin="round" stroke-width="2.57573"/>
<path d="M229.824 201.743L230.551 203.333L231.485 204L232.655 204.89L233.114 204.879L233.114 204.879" fill="none" fill-rule="evenodd" opacity="1" stroke="#000000" stroke-linecap="round" stroke-linejoin="round" stroke-width="2.57573"/>
<path d="M230.368 205.393C229.389 205.743 229.369 207.218 228.821 208.102C226.408 211.993 221.727 215.114 219.237 219.029" fill="none" fill-rule="evenodd" opacity="1" stroke="#000000" stroke-linecap="round" stroke-linejoin="round" stroke-width="2.57573"/>
<path d="M223.728 175.813C227.256 173.942 227.507 184.907 221.654 183.111" fill="none" fill-rule="evenodd" opacity="1" stroke="#000000" stroke-linecap="round" stroke-linejoin="round" stroke-width="2.57573"/>
<path d="M156.662 148.596C156.736 151.685 155.973 167.692 161.539 169.554" fill="none" fill-rule="evenodd" opacity="1" stroke="#000000" stroke-linecap="round" stroke-linejoin="round" stroke-width="2.57573"/>
<path d="M168.934 149.963C169.094 156.633 168.777 163.441 167.332 169.874" fill="none" fill-rule="evenodd" opacity="1" stroke="#000000" stroke-linecap="round" stroke-linejoin="round" stroke-width="2.57573"/>
<path d="M161.784 169.776C164.032 170.834 164.968 170.759 167.338 170.105" fill="none" fill-rule="evenodd" opacity="1" stroke="#000000" stroke-linecap="round" stroke-linejoin="round" stroke-width="2.57573"/>
<path d="M168.827 154.825C171.469 153.347 174.983 156.236 177.955 157.174C180.703 158.041 183.443 158.923 186.186 159.799C195.221 162.688 204.746 164.756 213.713 167.67C215.718 168.322 218.601 169.694 220.843 170.008" fill="none" fill-rule="evenodd" opacity="1" stroke="#000000" stroke-linecap="round" stroke-linejoin="round" stroke-width="2.57573"/>
<path d="M163.867 157.808C166.862 156.121 161.586 157.896 163.253 160.596C164.664 162.881 167.388 158.635 166.821 157.426C165.838 155.328 162.818 160.532 162.818 160.532C162.818 160.532 162.977 160.007 163.056 159.744C163.904 156.933 164.034 156.599 165.744 156.854C166.068 156.903 166.89 157.574 166.594 157.804C165.4 158.73 161.964 157.379 162.343 162.106C162.495 163.998 167.227 161.351 167.63 160.015C169.635 153.369 159.955 160.012 163.867 157.808Z" fill="none" fill-rule="evenodd" opacity="1" stroke="#000000" stroke-linecap="round" stroke-linejoin="round" stroke-width="2.57573"/>
<path d="M160.95 151.3C164.481 151.332 167.894 151.516 171.362 150.774" fill="none" fill-rule="evenodd" opacity="1" stroke="#000000" stroke-linecap="round" stroke-linejoin="round" stroke-width="2.57573"/>
<path d="M189.16 231.523C189.745 230.528 190.756 229.818 191.313 228.871" fill="none" fill-rule="evenodd" opacity="1" stroke="#000000" stroke-linecap="round" stroke-linejoin="round" stroke-width="2.57573"/>
<path d="M191.492 228.792C195.326 228.195 200.317 228.913 204.003 227.358" fill="none" fill-rule="evenodd" opacity="1" stroke="#000000" stroke-linecap="round" stroke-linejoin="round" stroke-width="2.57573"/>
<path d="M182.313 372.672C179.669 372.946 175.438 374.779 174.182 375.721C171.094 378.037 172.296 379.898 170.929 382.632" fill="none" fill-rule="evenodd" opacity="1" stroke="#000000" stroke-linecap="round" stroke-linejoin="round" stroke-width="2.57573"/>
<path d="M170.383 383.372C172.534 387.673 178.462 389.737 182.86 389.737" fill="none" fill-rule="evenodd" opacity="1" stroke="#000000" stroke-linecap="round" stroke-linejoin="round" stroke-width="2.57573"/>
<path d="M182.615 389.863C183.697 389.963 185.327 389.361 186.488 389.276C190.702 388.968 195.647 389.554 199.883 389.696C204.469 389.849 208.672 390.723 213.013 389.435C213.951 389.157 216.006 389.871 216.677 388.791C217.788 387.002 217.482 383.652 217.5 381.659C217.513 380.205 217.303 379.344 216.841 378.158" fill="none" fill-rule="evenodd" opacity="1" stroke="#000000" stroke-linecap="round" stroke-linejoin="round" stroke-width="2.57573"/>
<path d="M218.99 363.81C220.48 364.803 221.791 365.22 222.931 366.74C225.052 369.567 218.865 375.835 217.633 379.738" fill="none" fill-rule="evenodd" opacity="1" stroke="#000000" stroke-linecap="round" stroke-linejoin="round" stroke-width="2.57573"/>
</g>
</svg>
