<?xml version="1.0" encoding="UTF-8" standalone="no"?>
<!DOCTYPE svg PUBLIC "-//W3C//DTD SVG 1.1//EN" "http://www.w3.org/Graphics/SVG/1.1/DTD/svg11.dtd">

<!-- Created with Vectornator (http://vectornator.io/) -->
<svg height="100%" stroke-miterlimit="10" style="fill-rule:nonzero;clip-rule:evenodd;stroke-linecap:round;stroke-linejoin:round;" version="1.1" viewBox="0 0 400 400" width="100%" xml:space="preserve" xmlns="http://www.w3.org/2000/svg" xmlns:vectornator="http://vectornator.io" xmlns:xlink="http://www.w3.org/1999/xlink">
<metadata>
<vectornator:setting key="IsTimeLapseWatermarkDisabled" value="false"/>
<vectornator:setting key="UndoHistoryDisabled" value="true"/>
<vectornator:setting key="VNDimensionsVisible" value="true"/>
<vectornator:setting key="VNSnapToGuides" value="true"/>
<vectornator:setting key="WDCMYKEnabledKey" value="false"/>
<vectornator:setting key="WDDisplayWhiteBackground" value="false"/>
<vectornator:setting key="WDDynamicGuides" value="false"/>
<vectornator:setting key="WDGuidesVisible" value="true"/>
<vectornator:setting key="WDIsolateActiveLayer" value="false"/>
<vectornator:setting key="WDOutlineMode" value="false"/>
<vectornator:setting key="WDRulersVisible" value="true"/>
<vectornator:setting key="WDSnapToEdges" value="false"/>
<vectornator:setting key="WDSnapToGrid" value="false"/>
<vectornator:setting key="WDSnapToPoints" value="false"/>
<vectornator:setting key="WDUnits" value="Pixels"/>
</metadata>
<defs/>
<g id="Layer-2" vectornator:layerName="Layer 2"/>
<g id="Layer-1" vectornator:layerName="Layer 1">
<path d="M147.32 558.771C147.32 552.798 144.501 546.17 143.006 540.436C141.347 534.08 139.673 527.68 138.152 521.292C135.206 508.916 134.917 496.198 134.917 483.544" fill="none" fill-rule="evenodd" opacity="1" stroke="#000000" stroke-linecap="round" stroke-linejoin="round" stroke-width="2.57573"/>
<path d="M142.197 550.143C138.16 534.67 127.321 517.313 133.568 501.07" fill="none" fill-rule="evenodd" opacity="1" stroke="#000000" stroke-linecap="round" stroke-linejoin="round" stroke-width="2.57573"/>
<path d="M131.411 558.232C131.124 545.856 128.967 534.523 127.097 522.371" fill="none" fill-rule="evenodd" opacity="1" stroke="#000000" stroke-linecap="round" stroke-linejoin="round" stroke-width="2.57573"/>
<g opacity="1">
<path d="M212.913 228.868C214.515 230.783 209.352 240.955 206.37 240.246C204.133 239.713 201.318 236.563 199.72 234.965C199.365 234.61 193.175 229.665 193.364 229.445C193.507 229.278 197.309 229.491 197.512 229.521C199.961 229.889 202.885 231.708 205.294 231.346C207.567 231.005 211.431 227.098 212.913 228.868Z" fill="#eae7e1" fill-rule="evenodd" opacity="1" stroke="none"/>
<path d="M214.093 230.15C220.516 231.735 220.606 246.328 222.8 252.087C224.93 257.68 225.436 263.827 228.243 269.161C234.513 281.074 241.232 288.223 237.523 302.443C236.525 306.265 234.963 310.621 232.203 313.578C227.591 318.518 218.179 319.583 211.788 319.888C208.329 320.052 207.037 320.173 203.582 320.691C200.835 321.103 190.619 322.477 188.652 321.125C186.525 319.663 187.257 316.728 187.167 314.568C187.047 311.679 185.859 307.375 184.569 304.793C183.652 302.96 182.745 302.283 180.356 303C179.502 303.256 176.748 304.156 175.95 304.555C173.412 305.824 171.446 305.407 168.608 305.536C167.835 305.571 165.569 305.138 165.02 306.031C164.553 306.791 168.521 316.847 166.258 317.413C165.42 317.623 159.456 317.717 159.19 316.65C158.461 313.737 159.667 307.533 159.824 304.546C160.209 297.231 159.866 290.041 158.336 282.647C156.303 272.821 155.056 263.077 155.82 253.148C156.875 239.434 158.415 228.268 171.608 220.206C173.273 219.188 174.418 220.652 175.453 221.487C177.33 223.004 178.525 223.638 181.129 225.058C184.582 226.941 186.769 226.826 189.924 229.238C192.246 231.014 194.829 231.742 197.234 233.506C198.804 234.657 205.005 240.771 207.087 240.333C210.763 239.559 209.712 234.579 211.293 232.662C211.771 232.083 213.364 229.97 214.093 230.15Z" fill="#353967" fill-rule="evenodd" opacity="1" stroke="none"/>
<path d="M208.035 229.829C207.458 232.427 206.904 234.031 205.893 233.96C204.456 233.859 202.448 231.081 201.161 229.022" fill="#ecc4ae" fill-rule="evenodd" opacity="1" stroke="none"/>
<path d="M181.869 303.843C184.327 307.706 186.256 312.424 186.375 317.07C186.416 318.695 185.642 321.907 184.128 323.345C181.811 325.546 178.118 325.514 175.764 324.338C169.6 321.256 167.661 313.675 166.316 307.622" fill="#ecc4ae" fill-rule="evenodd" opacity="1" stroke="none"/>
<path d="M220.795 129.011C223.631 131.245 225.193 134.75 227.112 137.807C228.642 140.245 229.546 142.591 230.218 144.964C231.143 148.231 231.626 151.549 232.693 155.232C234.233 160.549 238.999 165.748 242.035 170.277C244.259 173.592 248.385 177.924 247.567 182.407C246.453 188.506 240.591 185.755 238.249 188.358C235.838 191.038 236.862 199.952 234.159 202.743C231.928 205.046 227.441 200.189 225.206 202.513C222.077 205.767 233.621 203.456 232.627 207.062C232.121 208.897 229.836 210.119 228.891 210.717C227.905 211.341 227.853 213.515 227.568 214.391C226.643 217.224 222.995 220.491 220.709 222.44C215.924 226.519 211.682 228.958 205.553 229.102C204.061 229.137 201.307 230.955 197.068 230.036C193.943 229.359 183.657 225.882 181.073 224.72C174.571 221.797 164.063 212.978 161.784 205.931C161.046 203.647 162.083 201.295 161.597 199.045C161.063 196.574 160.134 193.663 159.314 191.227C157.927 187.108 156.693 175.432 159.608 171.65C165.287 164.284 174.132 165.508 181.117 159.846C187.96 154.3 187.164 137.79 196.226 130.891C198.225 129.369 201.354 129.279 203.553 129.122C208.411 128.777 211.147 127.306 216.156 127.426" fill="#ecc4ae" fill-rule="evenodd" opacity="1" stroke="none"/>
<path d="M216.343 119.561C217.638 120.429 226.288 126.341 219.969 127.549C217.819 127.96 215.573 127.102 213.403 127.392C208.466 128.05 197.453 128.985 193.926 132.605C189.775 136.866 188.282 144.253 186.588 149.829C185.877 152.168 185.798 154.69 184.115 156.694C182.096 159.097 178.362 163.108 175.579 164.656C173.74 165.679 171.198 165.269 169.331 166.104C168.282 166.573 167.572 167.765 166.445 167.987C163.946 168.48 162.261 168.497 159.824 170.137C156.89 172.11 157.325 177.117 157.633 180.027C157.96 183.108 156.186 186.095 157.239 189.072C158.156 191.664 159.743 193.619 160.076 196.597C160.127 197.052 161.225 199.981 160.951 202.069C160.632 204.505 158.809 206.007 156.873 204.332C154.991 202.705 155.075 199.43 153.486 197.504C147.213 189.905 146.361 180.447 145.599 171.038C145.233 166.529 142.652 163.15 143.244 158.198C143.572 155.453 145.957 155.14 147.271 153.146C149.115 150.347 147.657 146.58 148.566 143.59C149.504 140.5 152.848 139.554 154.051 136.975C154.647 135.695 153.989 134.715 153.959 133.422C153.905 131.168 155.968 126.758 157.53 125.163C159.709 122.938 158.503 124.867 160.775 123.11C163.313 121.147 165.822 117.754 168.749 116.377C171.889 114.9 176.954 115.575 180.321 115.057C193.1 113.09 205.091 112.016 216.343 119.561Z" fill="#78695f" fill-rule="evenodd" opacity="1" stroke="none"/>
<path d="M171.371 364.738C164.562 364.738 168.32 370.737 169.871 373.667C170.206 374.3 171.719 378.002 173.085 377.381C173.708 377.098 173.466 371.834 173.438 371.269C173.35 369.502 173.381 369.959 172.675 368.371" fill="#2e2e2e" fill-rule="evenodd" opacity="1" stroke="none"/>
<path d="M228.185 317.622C230.712 329.851 227.408 344.745 228.748 357.07C229.122 360.511 231.005 370.781 230.064 372.532C229.123 374.283 217.084 376.566 213.36 376.746C210.714 376.874 197.855 375.791 196.205 374.338C195.215 373.467 193.35 362.801 192.936 360.899C192.874 360.611 192.076 356.95 191.838 356.857C190.601 356.378 188.871 361.715 188.542 362.387C186.241 367.09 185.95 372.401 182.51 376.445C181.11 378.091 176.307 379.403 174.042 379.403C171.072 379.403 168.067 377.768 165.473 376.638C160.133 374.312 153.973 373.483 149.655 368.981C147.213 366.435 150.729 362.843 151.852 360.261C154.188 354.89 157.332 351.196 158.223 345.159C158.54 343.012 158.477 340.977 158.362 338.864C158.101 334.068 157.756 329.113 158.004 324.315C158.095 322.546 157.737 319.339 159.761 318.359C160.332 318.083 163.266 318.146 163.936 318.146C168.156 318.146 169.675 319.738 171.527 322.059C173.378 324.38 174.728 324.706 176.305 325.269C177.497 325.694 179.876 326.051 182.742 324.325C184.872 323.041 185.067 319.574 189.08 320.076C203.416 321.87 224.253 319.63 226.333 317.905" fill="#dbc8a6" fill-rule="evenodd" opacity="1" stroke="none"/>
<path d="M232.026 372.317C234.335 373.01 238.036 375.32 239.423 377.462C241.717 381.009 241.474 387.329 236.207 387.593C233.913 387.707 231.619 386.444 229.292 386.949C220.446 388.873 206.178 389.336 197.132 387.432C193.962 386.764 193.311 379.782 196.328 376.98C198.172 375.268 204.434 376.498 206.941 376.498C211.614 376.498 215.929 377.538 220.609 376.498" fill="#2e2e2e" fill-rule="evenodd" opacity="1" stroke="none"/>
<path d="M181.15 376.831C185.645 377.267 193.34 384.865 187.409 388.794C182.527 392.028 171.534 389.668 166.065 389.416C162.552 389.254 158.39 389.602 155.006 388.146C150.07 386.022 144.385 384.739 144.721 378.23C144.818 376.359 146.508 375.727 146.968 374.035C147.421 372.371 146.874 371.058 149.215 370.461C152.379 369.655 156.243 373.86 158.683 375.278C163.911 378.315 171.972 380.932 177.941 379.006" fill="#2e2e2e" fill-rule="evenodd" opacity="1" stroke="none"/>
<path d="M218.492 243.578C221.758 246.517 222.692 250.789 224.377 255.121C226.326 260.134 225.962 262.96 226.981 265.677C228.924 270.857 232.578 275.69 234.881 280.131C237.716 285.597 239.025 290.57 238.884 296.093C238.65 305.25 235.528 311.262 229.661 316.122" fill="none" fill-rule="evenodd" opacity="1" stroke="#000000" stroke-linecap="round" stroke-linejoin="round" stroke-width="2.57573"/>
<path d="M160.741 292.595C159.404 303.1 158.35 307.159 159.246 317.185" fill="none" fill-rule="evenodd" opacity="1" stroke="#000000" stroke-linecap="round" stroke-linejoin="round" stroke-width="2.57573"/>
<path d="M229.29 316.493C230.032 316.122 227.868 317.4 227.065 317.606C222.297 318.823 217.448 319.717 212.602 320.572C205.54 321.818 194.457 320.353 187.29 320.596" fill="none" fill-rule="evenodd" opacity="1" stroke="#000000" stroke-linecap="round" stroke-linejoin="round" stroke-width="2.57573"/>
<path d="M228.182 318.323C227.384 328.915 229.869 335.728 229.505 345.682C229.141 355.637 228.413 362.797 230.414 371.53" fill="none" fill-rule="evenodd" opacity="1" stroke="#000000" stroke-linecap="round" stroke-linejoin="round" stroke-width="2.57573"/>
<path d="M159.266 317.444C157.732 324.784 159.071 330.721 158.508 342.408C158.129 350.279 150.685 364.95 148.316 368.032" fill="none" fill-rule="evenodd" opacity="1" stroke="#000000" stroke-linecap="round" stroke-linejoin="round" stroke-width="2.57573"/>
<path d="M194.545 339.133C193.901 346.733 192.463 356.726 189.412 362.563C186.438 368.253 184.035 374.758 181.35 379.013" fill="none" fill-rule="evenodd" opacity="1" stroke="#000000" stroke-linecap="round" stroke-linejoin="round" stroke-width="2.57573"/>
<path d="M214.677 230.366C219.901 234.808 221.411 245.417 222.041 248.571" fill="none" fill-rule="evenodd" opacity="1" stroke="#000000" stroke-linecap="round" stroke-linejoin="round" stroke-width="2.57573"/>
<path d="M166.023 225.058C162.988 227.524 162.002 229.4 160.634 231.394C158.96 233.835 157.496 237.677 156.764 242.851C155.428 252.311 156.004 262.16 156.25 268.556C156.458 273.964 159.955 294.634 164.97 305.548" fill="none" fill-rule="evenodd" opacity="1" stroke="#000000" stroke-linecap="round" stroke-linejoin="round" stroke-width="2.57573"/>
<path d="M175.358 250.37C175.358 250.37 174.098 260.955 175.408 271.693C176.008 276.616 176.867 283.947 178.111 289.375C179.698 296.304 181.649 300.831 181.649 300.831" fill="none" fill-rule="evenodd" opacity="1" stroke="#000000" stroke-linecap="round" stroke-linejoin="round" stroke-width="2.57573"/>
<path d="M214.189 230.278C214.189 230.024 214.245 229.637 213.885 229.517C213.499 229.389 211.857 233.81 211.755 234.081C211.093 235.847 208.879 239.492 207.191 240.167" fill="none" fill-rule="evenodd" opacity="1" stroke="#000000" stroke-linecap="round" stroke-linejoin="round" stroke-width="2.57573"/>
<path d="M207.191 240.015C205.611 238.961 203.567 238.783 202.018 237.428C198.285 234.161 196.343 232.92 192.287 230.216" fill="none" fill-rule="evenodd" opacity="1" stroke="#000000" stroke-linecap="round" stroke-linejoin="round" stroke-width="2.57573"/>
<path d="M182.154 300.999C181.258 301.447 180.704 302.622 179.795 303.189C177.265 304.771 172.911 305.235 170.024 305.716C169.152 305.862 166.297 306.685 165.812 305.716" fill="none" fill-rule="evenodd" opacity="1" stroke="#000000" stroke-linecap="round" stroke-linejoin="round" stroke-width="2.57573"/>
<path d="M180.806 303.526C182.794 299.551 186.425 312.107 186.534 312.624C187.539 317.394 187.467 320.371 185.384 322.551C184.163 323.83 182.251 324.834 179.458 325.764C173.659 327.698 167.927 317.715 166.823 313.298C166.681 312.728 165.214 306.344 165.981 306.727" fill="none" fill-rule="evenodd" opacity="1" stroke="#000000" stroke-linecap="round" stroke-linejoin="round" stroke-width="2.57573"/>
<path d="M159.429 317.398C160.206 317.136 166.651 317.837 167.877 318.446" fill="none" fill-rule="evenodd" opacity="1" stroke="#000000" stroke-linecap="round" stroke-linejoin="round" stroke-width="2.57573"/>
<path d="M180.986 377.385C172.513 383.976 155.819 373.147 148.248 368.253" fill="none" fill-rule="evenodd" opacity="1" stroke="#000000" stroke-linecap="round" stroke-linejoin="round" stroke-width="2.57573"/>
<path d="M208.507 230.271C208.507 231.363 206.806 234.467 206.593 235.535" fill="none" fill-rule="evenodd" opacity="1" stroke="#000000" stroke-linecap="round" stroke-linejoin="round" stroke-width="2.57573"/>
<path d="M207.606 238.921C207.606 236.223 203.289 233.182 201.819 231.221" fill="none" fill-rule="evenodd" opacity="1" stroke="#000000" stroke-linecap="round" stroke-linejoin="round" stroke-width="2.57573"/>
<path d="M165.657 225.15C166.958 223.886 168.861 221.304 171.882 219.565" fill="none" fill-rule="evenodd" opacity="1" stroke="#000000" stroke-linecap="round" stroke-linejoin="round" stroke-width="2.57573"/>
<path d="M192.578 229.539C182.831 226.165 178.754 223.292 172.178 219.089" fill="none" fill-rule="evenodd" opacity="1" stroke="#000000" stroke-linecap="round" stroke-linejoin="round" stroke-width="2.57573"/>
<path d="M217.446 224.228C212.289 225.412 208.208 223.54 203.567 221.479" fill="none" fill-rule="evenodd" opacity="1" stroke="#000000" stroke-linecap="round" stroke-linejoin="round" stroke-width="2.57573"/>
<path d="M238.167 182.599C238.438 183.911 238.165 186.377 238.027 188.277" fill="none" fill-rule="evenodd" opacity="1" stroke="#000000" stroke-linecap="round" stroke-linejoin="round" stroke-width="2.57573"/>
<path d="M222.585 149.013C224.599 148.581 232.138 146.035 234.604 147.502" fill="none" fill-rule="evenodd" opacity="1" stroke="#000000" stroke-linecap="round" stroke-linejoin="round" stroke-width="2.57573"/>
<path d="M217.554 120.265C219.097 119.695 223.562 125.127 222.835 126.704C222.06 128.386 212.925 126.463 211.328 127.585C207.158 130.512 199.143 127.427 195.545 131.197C193.502 133.337 190.899 137.919 190.22 140.794C189.345 144.492 188.348 146.501 187.168 148.83C185.338 152.438 187.504 153.263 184.667 156.424C181.834 159.58 173.559 165.007 176.03 164.325C178.5 163.643 171.925 165.081 169.754 165.603C167.861 166.057 166.529 167.639 165.838 168.462" fill="none" fill-rule="evenodd" opacity="1" stroke="#000000" stroke-linecap="round" stroke-linejoin="round" stroke-width="2.57573"/>
<path d="M216.613 118.763C214.199 117.591 206.3 113.99 204.496 113.679C196.078 112.223 185.158 114.512 177 115.693C174.435 116.065 171.396 115.123 168.981 116.308C165.561 117.987 164.534 121.272 161.561 123.192C159.947 124.234 157.868 124.794 156.678 126.258C155.948 127.156 156.572 128.696 155.708 129.347C154.578 130.199 153.521 129.74 153.298 131.421C153.127 132.714 155.273 136.242 154.329 137.235C152.226 139.446 150.338 139.069 149.51 141.383C148.216 145.002 149.193 150.579 146.562 153.91C145.689 155.016 143.952 155.568 143.515 156.885C142.461 160.056 143.674 163.537 143.869 166.859C143.947 168.183 145.033 168.632 145.424 169.823C145.808 170.997 144.925 171.693 145.13 172.661C145.855 176.089 145.772 182.067 147.461 185.286C149.889 189.916 147.843 191.216 150.806 193.89" fill="none" fill-rule="evenodd" opacity="1" stroke="#000000" stroke-linecap="round" stroke-linejoin="round" stroke-width="2.57573"/>
<path d="M220.924 127.706C223.488 131.457 225.652 136.081 228.18 139.916C228.216 139.97 231.055 145.956 231.167 146.311" fill="none" fill-rule="evenodd" opacity="1" stroke="#000000" stroke-linecap="round" stroke-linejoin="round" stroke-width="2.57573"/>
<path d="M233.942 157.554C236.667 161.068 247.283 172.819 247.959 180.382C248.128 182.269 247.488 184.634 245.775 185.647C243.71 186.867 240.184 186.1 238.345 187.567" fill="none" fill-rule="evenodd" opacity="1" stroke="#000000" stroke-linecap="round" stroke-linejoin="round" stroke-width="2.57573"/>
<path d="M238.409 187.591C235.816 192.629 236.882 199.908 234.528 203.481" fill="none" fill-rule="evenodd" opacity="1" stroke="#000000" stroke-linecap="round" stroke-linejoin="round" stroke-width="2.57573"/>
<path d="M234.528 203.604C232.962 203.186 228.312 201.606 226.783 202.253C225.96 202.602 226.372 203.327 225.459 203.515" fill="none" fill-rule="evenodd" opacity="1" stroke="#000000" stroke-linecap="round" stroke-linejoin="round" stroke-width="2.57573"/>
<path d="M226.258 203.549C227.604 203.63 232.013 204.168 232.806 206.802C233.292 208.416 229.828 210.197 229.613 210.321" fill="none" fill-rule="evenodd" opacity="1" stroke="#000000" stroke-linecap="round" stroke-linejoin="round" stroke-width="2.57573"/>
<path d="M229.716 210.036C228.92 212.071 226.221 219.196 222.455 221.426C219.146 223.385 217.942 224.061 217.609 224.619C215.378 228.361 197.906 232.681 195.092 229.322" fill="none" fill-rule="evenodd" opacity="1" stroke="#000000" stroke-linecap="round" stroke-linejoin="round" stroke-width="2.57573"/>
<path d="M170.588 170.737C162.662 164.342 156.138 173.019 157.834 179.368C159.429 185.337 162.1 192.103 171.936 188.985" fill="none" fill-rule="evenodd" opacity="1" stroke="#000000" stroke-linecap="round" stroke-linejoin="round" stroke-width="2.57573"/>
<path d="M158.078 182.183C157.927 183.925 156.535 186.673 157.282 188.057C158.759 190.791 158.499 192.416 159.957 194.983C160.764 196.404 160.448 198.522 161.191 200.101" fill="none" fill-rule="evenodd" opacity="1" stroke="#000000" stroke-linecap="round" stroke-linejoin="round" stroke-width="2.57573"/>
<path d="M151.012 194.049C152.554 197.328 156.181 201.094 157.524 203.95" fill="none" fill-rule="evenodd" opacity="1" stroke="#000000" stroke-linecap="round" stroke-linejoin="round" stroke-width="2.57573"/>
<path d="M161.251 201.743L160.524 203.333L159.59 204L158.42 204.89L157.961 204.879L157.961 204.879" fill="none" fill-rule="evenodd" opacity="1" stroke="#000000" stroke-linecap="round" stroke-linejoin="round" stroke-width="2.57573"/>
<path d="M160.707 205.393C161.687 205.743 161.707 207.218 162.255 208.102C164.667 211.993 169.348 215.114 171.838 219.029" fill="none" fill-rule="evenodd" opacity="1" stroke="#000000" stroke-linecap="round" stroke-linejoin="round" stroke-width="2.57573"/>
<path d="M167.347 175.813C163.819 173.942 163.569 184.907 169.421 183.111" fill="none" fill-rule="evenodd" opacity="1" stroke="#000000" stroke-linecap="round" stroke-linejoin="round" stroke-width="2.57573"/>
<path d="M234.413 148.596C234.339 151.685 235.103 167.692 229.536 169.554" fill="none" fill-rule="evenodd" opacity="1" stroke="#000000" stroke-linecap="round" stroke-linejoin="round" stroke-width="2.57573"/>
<path d="M222.141 149.963C221.981 156.633 222.298 163.441 223.743 169.874" fill="none" fill-rule="evenodd" opacity="1" stroke="#000000" stroke-linecap="round" stroke-linejoin="round" stroke-width="2.57573"/>
<path d="M229.291 169.776C227.044 170.834 226.107 170.759 223.738 170.105" fill="none" fill-rule="evenodd" opacity="1" stroke="#000000" stroke-linecap="round" stroke-linejoin="round" stroke-width="2.57573"/>
<path d="M222.249 154.825C219.607 153.347 216.092 156.236 213.12 157.174C210.373 158.041 207.632 158.923 204.89 159.799C195.854 162.688 186.329 164.756 177.362 167.67C175.357 168.322 172.475 169.694 170.232 170.008" fill="none" fill-rule="evenodd" opacity="1" stroke="#000000" stroke-linecap="round" stroke-linejoin="round" stroke-width="2.57573"/>
<path d="M227.209 157.808C224.213 156.121 229.49 157.896 227.822 160.596C226.411 162.881 223.688 158.635 224.254 157.426C225.237 155.328 228.257 160.532 228.257 160.532C228.257 160.532 228.099 160.007 228.02 159.744C227.172 156.933 227.042 156.599 225.331 156.854C225.007 156.903 224.185 157.574 224.482 157.804C225.676 158.73 229.111 157.379 228.732 162.106C228.58 163.998 223.848 161.351 223.445 160.015C221.441 153.369 231.12 160.012 227.209 157.808Z" fill="none" fill-rule="evenodd" opacity="1" stroke="#000000" stroke-linecap="round" stroke-linejoin="round" stroke-width="2.57573"/>
<path d="M230.126 151.3C226.595 151.332 223.181 151.516 219.713 150.774" fill="none" fill-rule="evenodd" opacity="1" stroke="#000000" stroke-linecap="round" stroke-linejoin="round" stroke-width="2.57573"/>
<path d="M201.915 231.523C201.33 230.528 200.319 229.818 199.762 228.871" fill="none" fill-rule="evenodd" opacity="1" stroke="#000000" stroke-linecap="round" stroke-linejoin="round" stroke-width="2.57573"/>
<path d="M199.584 228.792C195.749 228.195 190.758 228.913 187.073 227.358" fill="none" fill-rule="evenodd" opacity="1" stroke="#000000" stroke-linecap="round" stroke-linejoin="round" stroke-width="2.57573"/>
<path d="M180.499 377.86C183.153 377.726 185.589 379.014 186.976 379.72C190.386 381.457 189.634 385.622 189.634 385.622" fill="none" fill-rule="evenodd" opacity="1" stroke="#000000" stroke-linecap="round" stroke-linejoin="round" stroke-width="2.57573"/>
<path d="M189.949 385.474C189.949 390.771 174.362 389.806 168.257 389.806" fill="none" fill-rule="evenodd" opacity="1" stroke="#000000" stroke-linecap="round" stroke-linejoin="round" stroke-width="2.57573"/>
<path d="M149.74 370.192C146.974 372.187 144.557 376.93 145.021 381.761" fill="none" fill-rule="evenodd" opacity="1" stroke="#000000" stroke-linecap="round" stroke-linejoin="round" stroke-width="2.57573"/>
<path d="M168.621 389.846C168.869 389.732 166.166 389.633 165.685 389.543C163.78 389.189 161.8 389.131 159.921 388.735C153.992 387.482 147.564 387.84 145.348 381.659" fill="none" fill-rule="evenodd" opacity="1" stroke="#000000" stroke-linecap="round" stroke-linejoin="round" stroke-width="2.57573"/>
<path d="M192.163 357.568C193.898 360.899 193.515 366.12 194.159 369.831C194.472 371.632 195.556 373.595 195.556 375.388" fill="none" fill-rule="evenodd" opacity="1" stroke="#000000" stroke-linecap="round" stroke-linejoin="round" stroke-width="2.57573"/>
<path d="M231.285 372.253C223.068 376.95 213.131 377.437 203.883 376.332C201.843 376.088 198.583 376.56 196.844 375.49" fill="none" fill-rule="evenodd" opacity="1" stroke="#000000" stroke-linecap="round" stroke-linejoin="round" stroke-width="2.57573"/>
<path d="M231.605 372.51C235.885 373.666 236.642 375.128 237.891 376.106C241.053 378.578 241.689 381.979 240.7 385.993" fill="none" fill-rule="evenodd" opacity="1" stroke="#000000" stroke-linecap="round" stroke-linejoin="round" stroke-width="2.57573"/>
<path d="M240.834 385.993C237.367 388.768 233.844 387.951 229.664 388.158C221.834 388.545 214.318 388.453 206.538 388.351C204.337 388.322 196.811 388.118 195.533 386.371C193.864 384.087 194.653 378.41 196.253 375.928" fill="none" fill-rule="evenodd" opacity="1" stroke="#000000" stroke-linecap="round" stroke-linejoin="round" stroke-width="2.57573"/>
</g>
</g>
</svg>
