<?xml version="1.0" encoding="UTF-8" standalone="no"?>
<!DOCTYPE svg PUBLIC "-//W3C//DTD SVG 1.1//EN" "http://www.w3.org/Graphics/SVG/1.1/DTD/svg11.dtd">

<!-- Created with Vectornator (http://vectornator.io/) -->
<svg height="100%" stroke-miterlimit="10" style="fill-rule:nonzero;clip-rule:evenodd;stroke-linecap:round;stroke-linejoin:round;" version="1.1" viewBox="0 0 400 400" width="100%" xml:space="preserve" xmlns="http://www.w3.org/2000/svg" xmlns:vectornator="http://vectornator.io" xmlns:xlink="http://www.w3.org/1999/xlink">
<metadata>
<vectornator:setting key="IsTimeLapseWatermarkDisabled" value="false"/>
<vectornator:setting key="UndoHistoryDisabled" value="true"/>
<vectornator:setting key="VNDimensionsVisible" value="true"/>
<vectornator:setting key="VNSnapToGuides" value="true"/>
<vectornator:setting key="WDCMYKEnabledKey" value="false"/>
<vectornator:setting key="WDDisplayWhiteBackground" value="false"/>
<vectornator:setting key="WDDynamicGuides" value="false"/>
<vectornator:setting key="WDGuidesVisible" value="true"/>
<vectornator:setting key="WDIsolateActiveLayer" value="false"/>
<vectornator:setting key="WDOutlineMode" value="false"/>
<vectornator:setting key="WDRulersVisible" value="true"/>
<vectornator:setting key="WDSnapToEdges" value="false"/>
<vectornator:setting key="WDSnapToGrid" value="false"/>
<vectornator:setting key="WDSnapToPoints" value="false"/>
<vectornator:setting key="WDUnits" value="Pixels"/>
</metadata>
<defs/>
<g id="Layer-2" vectornator:layerName="Layer 2"/>
<g id="Layer-1" vectornator:layerName="Layer 1">
<path d="M147.32 558.771C147.32 552.798 144.501 546.17 143.006 540.436C141.347 534.08 139.673 527.68 138.152 521.292C135.206 508.916 134.917 496.198 134.917 483.544" fill="none" fill-rule="evenodd" opacity="1" stroke="#000000" stroke-linecap="round" stroke-linejoin="round" stroke-width="2.57573"/>
<path d="M142.197 550.143C138.16 534.67 127.321 517.313 133.568 501.07" fill="none" fill-rule="evenodd" opacity="1" stroke="#000000" stroke-linecap="round" stroke-linejoin="round" stroke-width="2.57573"/>
<path d="M131.411 558.232C131.124 545.856 128.967 534.523 127.097 522.371" fill="none" fill-rule="evenodd" opacity="1" stroke="#000000" stroke-linecap="round" stroke-linejoin="round" stroke-width="2.57573"/>
<g opacity="1">
<path d="M212.913 228.868C214.515 230.783 209.352 240.955 206.37 240.246C204.133 239.713 201.318 236.563 199.72 234.965C199.365 234.61 193.175 229.665 193.364 229.445C193.507 229.278 197.309 229.491 197.512 229.521C199.961 229.889 202.885 231.708 205.294 231.346C207.567 231.005 211.431 227.098 212.913 228.868Z" fill="#eae7e1" fill-rule="evenodd" opacity="1" stroke="none"/>
<path d="M214.093 230.15C220.516 231.735 220.606 246.328 222.8 252.087C224.93 257.68 225.436 263.827 228.243 269.161C234.513 281.074 241.232 288.223 237.523 302.443C236.525 306.265 234.963 310.621 232.203 313.578C227.591 318.518 218.179 319.583 211.788 319.888C208.329 320.052 207.037 320.173 203.582 320.691C200.835 321.103 190.619 322.477 188.652 321.125C186.525 319.663 187.257 316.728 187.167 314.568C187.047 311.679 185.859 307.375 184.569 304.793C183.652 302.96 182.745 302.283 180.356 303C179.502 303.256 176.748 304.156 175.95 304.555C173.412 305.824 171.446 305.407 168.608 305.536C167.835 305.571 165.569 305.138 165.02 306.031C164.553 306.791 168.521 316.847 166.258 317.413C165.42 317.623 159.456 317.717 159.19 316.65C158.461 313.737 159.667 307.533 159.824 304.546C160.209 297.231 159.866 290.041 158.336 282.647C156.303 272.821 155.056 263.077 155.82 253.148C156.875 239.434 158.415 228.268 171.608 220.206C173.273 219.188 174.418 220.652 175.453 221.487C177.33 223.004 178.525 223.638 181.129 225.058C184.582 226.941 186.769 226.826 189.924 229.238C192.246 231.014 194.829 231.742 197.234 233.506C198.804 234.657 205.005 240.771 207.087 240.333C210.763 239.559 209.712 234.579 211.293 232.662C211.771 232.083 213.364 229.97 214.093 230.15Z" fill="#353967" fill-rule="evenodd" opacity="1" stroke="none"/>
<path d="M208.035 229.829C207.458 232.427 206.904 234.031 205.893 233.96C204.456 233.859 202.448 231.081 201.161 229.022" fill="#ecc4ae" fill-rule="evenodd" opacity="1" stroke="none"/>
<path d="M181.869 303.843C184.327 307.706 186.256 312.424 186.375 317.07C186.416 318.695 185.642 321.907 184.128 323.345C181.811 325.546 178.118 325.514 175.764 324.338C169.6 321.256 167.661 313.675 166.316 307.622" fill="#ecc4ae" fill-rule="evenodd" opacity="1" stroke="none"/>
<path d="M220.795 129.011C223.631 131.245 225.193 134.75 227.112 137.807C228.642 140.245 229.546 142.591 230.218 144.964C231.143 148.231 231.626 151.549 232.693 155.232C234.233 160.549 238.999 165.748 242.035 170.277C244.259 173.592 248.385 177.924 247.567 182.407C246.453 188.506 240.591 185.755 238.249 188.358C235.838 191.038 236.862 199.952 234.159 202.743C231.928 205.046 227.441 200.189 225.206 202.513C222.077 205.767 233.621 203.456 232.627 207.062C232.121 208.897 229.836 210.119 228.891 210.717C227.905 211.341 227.853 213.515 227.568 214.391C226.643 217.224 222.995 220.491 220.709 222.44C215.924 226.519 211.682 228.958 205.553 229.102C204.061 229.137 201.307 230.955 197.068 230.036C193.943 229.359 183.657 225.882 181.073 224.72C174.571 221.797 164.063 212.978 161.784 205.931C161.046 203.647 162.083 201.295 161.597 199.045C161.063 196.574 160.134 193.663 159.314 191.227C157.927 187.108 156.693 175.432 159.608 171.65C165.287 164.284 174.132 165.508 181.117 159.846C187.96 154.3 187.164 137.79 196.226 130.891C198.225 129.369 201.354 129.279 203.553 129.122C208.411 128.777 211.147 127.306 216.156 127.426" fill="#ecc4ae" fill-rule="evenodd" opacity="1" stroke="none"/>
<path d="M216.343 119.561C217.638 120.429 226.288 126.341 219.969 127.549C217.819 127.96 215.573 127.102 213.403 127.392C208.466 128.05 197.453 128.985 193.926 132.605C189.775 136.866 188.282 144.253 186.588 149.829C185.877 152.168 185.798 154.69 184.115 156.694C182.096 159.097 178.362 163.108 175.579 164.656C173.74 165.679 171.198 165.269 169.331 166.104C168.282 166.573 167.572 167.765 166.445 167.987C163.946 168.48 162.261 168.497 159.824 170.137C156.89 172.11 157.325 177.117 157.633 180.027C157.96 183.108 156.186 186.095 157.239 189.072C158.156 191.664 159.743 193.619 160.076 196.597C160.127 197.052 161.225 199.981 160.951 202.069C160.632 204.505 158.809 206.007 156.873 204.332C154.991 202.705 155.075 199.43 153.486 197.504C147.213 189.905 146.361 180.447 145.599 171.038C145.233 166.529 142.652 163.15 143.244 158.198C143.572 155.453 145.957 155.14 147.271 153.146C149.115 150.347 147.657 146.58 148.566 143.59C149.504 140.5 152.848 139.554 154.051 136.975C154.647 135.695 153.989 134.715 153.959 133.422C153.905 131.168 155.968 126.758 157.53 125.163C159.709 122.938 158.503 124.867 160.775 123.11C163.313 121.147 165.822 117.754 168.749 116.377C171.889 114.9 176.954 115.575 180.321 115.057C193.1 113.09 205.091 112.016 216.343 119.561Z" fill="#78695f" fill-rule="evenodd" opacity="1" stroke="none"/>
<path d="M227.879 318.456C227.879 330.082 225.461 341.873 220.33 352.136C218.802 355.191 217.076 358.175 215.346 361.116C213.79 363.762 212.72 364.714 210.651 366.653C209.158 368.053 208.575 370.362 207.361 371.879C206.498 372.957 205.012 373.386 204.07 374.396C203.532 374.972 202.65 377.067 201.941 377.493C201.379 377.83 191.038 378.835 190.521 378.654C189.811 378.405 187.207 378.935 186.477 378.752C184.402 378.234 176.904 379.344 175.423 378.267C173.059 376.548 172.406 366.424 171.886 363.951C171.229 360.834 170.893 357.895 170.003 354.846C169.362 352.648 168.632 350.831 168.002 348.624C167.221 345.893 167.092 342.946 165.745 340.522C164.226 337.788 164.071 334.641 162.841 331.812C161.405 328.508 161.927 326.928 160.653 323.745C160.485 323.324 158.806 319.506 159.164 318.843C159.969 317.346 163.621 318.346 164.777 318.456C169.734 318.928 170.148 323.745 174.455 325.037C183.002 327.601 179.926 323.407 186.069 321.359" fill="#dbc8a6" fill-rule="evenodd" opacity="1" stroke="none"/>
<path d="M208.523 372.642C212.904 372.155 217.447 375.703 219.048 379.506C219.928 381.595 221.233 385.983 218.133 386.828C214.829 387.729 211.348 389.08 207.76 389.421C205.078 389.677 202.472 388.266 199.828 388.506C197.394 388.727 194.623 388.753 192.201 389.116C190.524 389.368 189.305 390.465 187.625 390.642C184.501 390.971 180.394 390.803 177.252 390.489C173.114 390.076 171.183 380.42 174.353 378.438C176.119 377.335 184.899 379.246 187.167 379.659C193.154 380.747 197.059 378.548 202.421 376.76" fill="#2e2e2e" fill-rule="evenodd" opacity="1" stroke="none"/>
<path d="M171.371 364.738C164.562 364.738 168.32 370.737 169.871 373.667C170.206 374.3 171.719 378.002 173.085 377.381C173.708 377.098 173.466 371.834 173.438 371.269C173.35 369.502 173.381 369.959 172.675 368.371" fill="#2e2e2e" fill-rule="evenodd" opacity="1" stroke="none"/>
<path d="M218.492 243.578C221.758 246.517 222.692 250.789 224.377 255.121C226.326 260.134 225.962 262.96 226.981 265.677C228.924 270.857 232.578 275.69 234.881 280.131C237.716 285.597 239.025 290.57 238.884 296.093C238.65 305.25 235.528 311.262 229.661 316.122" fill="none" fill-rule="evenodd" opacity="1" stroke="#000000" stroke-linecap="round" stroke-linejoin="round" stroke-width="2.57573"/>
<path d="M160.741 292.595C159.404 303.1 158.35 307.159 159.246 317.185" fill="none" fill-rule="evenodd" opacity="1" stroke="#000000" stroke-linecap="round" stroke-linejoin="round" stroke-width="2.57573"/>
<path d="M229.29 316.493C230.032 316.122 227.868 317.4 227.065 317.606C222.297 318.823 217.448 319.717 212.602 320.572C205.54 321.818 194.457 320.353 187.29 320.596" fill="none" fill-rule="evenodd" opacity="1" stroke="#000000" stroke-linecap="round" stroke-linejoin="round" stroke-width="2.57573"/>
<path d="M228.182 318.359C227.384 329.393 227.071 331.273 224.951 342.717C223.499 350.558 213.866 362.966 208.805 370.767" fill="none" fill-rule="evenodd" opacity="1" stroke="#000000" stroke-linecap="round" stroke-linejoin="round" stroke-width="2.57573"/>
<path d="M159.221 316.633C160.116 324.646 163.306 330.355 166.527 342.549C168.696 350.762 171.901 363.944 173.325 368.068C174.2 370.601 173.514 373.999 174.082 376.516" fill="none" fill-rule="evenodd" opacity="1" stroke="#000000" stroke-linecap="round" stroke-linejoin="round" stroke-width="2.57573"/>
<path d="M201.259 326.422C203.006 334.17 202.299 344.58 203.642 351.249C204.618 356.1 208.764 365.111 207.522 370.143" fill="none" fill-rule="evenodd" opacity="1" stroke="#000000" stroke-linecap="round" stroke-linejoin="round" stroke-width="2.57573"/>
<path d="M214.677 230.366C219.901 234.808 221.411 245.417 222.041 248.571" fill="none" fill-rule="evenodd" opacity="1" stroke="#000000" stroke-linecap="round" stroke-linejoin="round" stroke-width="2.57573"/>
<path d="M166.023 225.058C162.988 227.524 162.002 229.4 160.634 231.394C158.96 233.835 157.496 237.677 156.764 242.851C155.428 252.311 156.004 262.16 156.25 268.556C156.458 273.964 159.955 294.634 164.97 305.548" fill="none" fill-rule="evenodd" opacity="1" stroke="#000000" stroke-linecap="round" stroke-linejoin="round" stroke-width="2.57573"/>
<path d="M175.358 250.37C175.358 250.37 174.098 260.955 175.408 271.693C176.008 276.616 176.867 283.947 178.111 289.375C179.698 296.304 181.649 300.831 181.649 300.831" fill="none" fill-rule="evenodd" opacity="1" stroke="#000000" stroke-linecap="round" stroke-linejoin="round" stroke-width="2.57573"/>
<path d="M214.189 230.278C214.189 230.024 214.245 229.637 213.885 229.517C213.499 229.389 211.857 233.81 211.755 234.081C211.093 235.847 208.879 239.492 207.191 240.167" fill="none" fill-rule="evenodd" opacity="1" stroke="#000000" stroke-linecap="round" stroke-linejoin="round" stroke-width="2.57573"/>
<path d="M207.191 240.015C205.611 238.961 203.567 238.783 202.018 237.428C198.285 234.161 196.343 232.92 192.287 230.216" fill="none" fill-rule="evenodd" opacity="1" stroke="#000000" stroke-linecap="round" stroke-linejoin="round" stroke-width="2.57573"/>
<path d="M182.154 300.999C181.258 301.447 180.704 302.622 179.795 303.189C177.265 304.771 172.911 305.235 170.024 305.716C169.152 305.862 166.297 306.685 165.812 305.716" fill="none" fill-rule="evenodd" opacity="1" stroke="#000000" stroke-linecap="round" stroke-linejoin="round" stroke-width="2.57573"/>
<path d="M180.806 303.526C182.794 299.551 186.425 312.107 186.534 312.624C187.539 317.394 187.467 320.371 185.384 322.551C184.163 323.83 182.251 324.834 179.458 325.764C173.659 327.698 167.927 317.715 166.823 313.298C166.681 312.728 165.214 306.344 165.981 306.727" fill="none" fill-rule="evenodd" opacity="1" stroke="#000000" stroke-linecap="round" stroke-linejoin="round" stroke-width="2.57573"/>
<path d="M159.429 317.398C160.206 317.136 166.651 317.837 167.877 318.446" fill="none" fill-rule="evenodd" opacity="1" stroke="#000000" stroke-linecap="round" stroke-linejoin="round" stroke-width="2.57573"/>
<path d="M207.329 372.07C202.805 382.176 182.656 378.998 173.525 377.574" fill="none" fill-rule="evenodd" opacity="1" stroke="#000000" stroke-linecap="round" stroke-linejoin="round" stroke-width="2.57573"/>
<path d="M208.507 230.271C208.507 231.363 206.806 234.467 206.593 235.535" fill="none" fill-rule="evenodd" opacity="1" stroke="#000000" stroke-linecap="round" stroke-linejoin="round" stroke-width="2.57573"/>
<path d="M207.606 238.921C207.606 236.223 203.289 233.182 201.819 231.221" fill="none" fill-rule="evenodd" opacity="1" stroke="#000000" stroke-linecap="round" stroke-linejoin="round" stroke-width="2.57573"/>
<path d="M165.657 225.15C166.958 223.886 168.861 221.304 171.882 219.565" fill="none" fill-rule="evenodd" opacity="1" stroke="#000000" stroke-linecap="round" stroke-linejoin="round" stroke-width="2.57573"/>
<path d="M192.578 229.539C182.831 226.165 178.754 223.292 172.178 219.089" fill="none" fill-rule="evenodd" opacity="1" stroke="#000000" stroke-linecap="round" stroke-linejoin="round" stroke-width="2.57573"/>
<path d="M217.446 224.228C212.289 225.412 208.208 223.54 203.567 221.479" fill="none" fill-rule="evenodd" opacity="1" stroke="#000000" stroke-linecap="round" stroke-linejoin="round" stroke-width="2.57573"/>
<path d="M238.167 182.599C238.438 183.911 238.165 186.377 238.027 188.277" fill="none" fill-rule="evenodd" opacity="1" stroke="#000000" stroke-linecap="round" stroke-linejoin="round" stroke-width="2.57573"/>
<path d="M222.585 149.013C224.599 148.581 232.138 146.035 234.604 147.502" fill="none" fill-rule="evenodd" opacity="1" stroke="#000000" stroke-linecap="round" stroke-linejoin="round" stroke-width="2.57573"/>
<path d="M217.554 120.265C219.097 119.695 223.562 125.127 222.835 126.704C222.06 128.386 212.925 126.463 211.328 127.585C207.158 130.512 199.143 127.427 195.545 131.197C193.502 133.337 190.899 137.919 190.22 140.794C189.345 144.492 188.348 146.501 187.168 148.83C185.338 152.438 187.504 153.263 184.667 156.424C181.834 159.58 173.559 165.007 176.03 164.325C178.5 163.643 171.925 165.081 169.754 165.603C167.861 166.057 166.529 167.639 165.838 168.462" fill="none" fill-rule="evenodd" opacity="1" stroke="#000000" stroke-linecap="round" stroke-linejoin="round" stroke-width="2.57573"/>
<path d="M216.613 118.763C214.199 117.591 206.3 113.99 204.496 113.679C196.078 112.223 185.158 114.512 177 115.693C174.435 116.065 171.396 115.123 168.981 116.308C165.561 117.987 164.534 121.272 161.561 123.192C159.947 124.234 157.868 124.794 156.678 126.258C155.948 127.156 156.572 128.696 155.708 129.347C154.578 130.199 153.521 129.74 153.298 131.421C153.127 132.714 155.273 136.242 154.329 137.235C152.226 139.446 150.338 139.069 149.51 141.383C148.216 145.002 149.193 150.579 146.562 153.91C145.689 155.016 143.952 155.568 143.515 156.885C142.461 160.056 143.674 163.537 143.869 166.859C143.947 168.183 145.033 168.632 145.424 169.823C145.808 170.997 144.925 171.693 145.13 172.661C145.855 176.089 145.772 182.067 147.461 185.286C149.889 189.916 147.843 191.216 150.806 193.89" fill="none" fill-rule="evenodd" opacity="1" stroke="#000000" stroke-linecap="round" stroke-linejoin="round" stroke-width="2.57573"/>
<path d="M220.924 127.706C223.488 131.457 225.652 136.081 228.18 139.916C228.216 139.97 231.055 145.956 231.167 146.311" fill="none" fill-rule="evenodd" opacity="1" stroke="#000000" stroke-linecap="round" stroke-linejoin="round" stroke-width="2.57573"/>
<path d="M233.942 157.554C236.667 161.068 247.283 172.819 247.959 180.382C248.128 182.269 247.488 184.634 245.775 185.647C243.71 186.867 240.184 186.1 238.345 187.567" fill="none" fill-rule="evenodd" opacity="1" stroke="#000000" stroke-linecap="round" stroke-linejoin="round" stroke-width="2.57573"/>
<path d="M238.409 187.591C235.816 192.629 236.882 199.908 234.528 203.481" fill="none" fill-rule="evenodd" opacity="1" stroke="#000000" stroke-linecap="round" stroke-linejoin="round" stroke-width="2.57573"/>
<path d="M234.528 203.604C232.962 203.186 228.312 201.606 226.783 202.253C225.96 202.602 226.372 203.327 225.459 203.515" fill="none" fill-rule="evenodd" opacity="1" stroke="#000000" stroke-linecap="round" stroke-linejoin="round" stroke-width="2.57573"/>
<path d="M226.258 203.549C227.604 203.63 232.013 204.168 232.806 206.802C233.292 208.416 229.828 210.197 229.613 210.321" fill="none" fill-rule="evenodd" opacity="1" stroke="#000000" stroke-linecap="round" stroke-linejoin="round" stroke-width="2.57573"/>
<path d="M229.716 210.036C228.92 212.071 226.221 219.196 222.455 221.426C219.146 223.385 217.942 224.061 217.609 224.619C215.378 228.361 197.906 232.681 195.092 229.322" fill="none" fill-rule="evenodd" opacity="1" stroke="#000000" stroke-linecap="round" stroke-linejoin="round" stroke-width="2.57573"/>
<path d="M170.588 170.737C162.662 164.342 156.138 173.019 157.834 179.368C159.429 185.337 162.1 192.103 171.936 188.985" fill="none" fill-rule="evenodd" opacity="1" stroke="#000000" stroke-linecap="round" stroke-linejoin="round" stroke-width="2.57573"/>
<path d="M158.078 182.183C157.927 183.925 156.535 186.673 157.282 188.057C158.759 190.791 158.499 192.416 159.957 194.983C160.764 196.404 160.448 198.522 161.191 200.101" fill="none" fill-rule="evenodd" opacity="1" stroke="#000000" stroke-linecap="round" stroke-linejoin="round" stroke-width="2.57573"/>
<path d="M151.012 194.049C152.554 197.328 156.181 201.094 157.524 203.95" fill="none" fill-rule="evenodd" opacity="1" stroke="#000000" stroke-linecap="round" stroke-linejoin="round" stroke-width="2.57573"/>
<path d="M161.251 201.743L160.524 203.333L159.59 204L158.42 204.89L157.961 204.879L157.961 204.879" fill="none" fill-rule="evenodd" opacity="1" stroke="#000000" stroke-linecap="round" stroke-linejoin="round" stroke-width="2.57573"/>
<path d="M160.707 205.393C161.687 205.743 161.707 207.218 162.255 208.102C164.667 211.993 169.348 215.114 171.838 219.029" fill="none" fill-rule="evenodd" opacity="1" stroke="#000000" stroke-linecap="round" stroke-linejoin="round" stroke-width="2.57573"/>
<path d="M167.347 175.813C163.819 173.942 163.569 184.907 169.421 183.111" fill="none" fill-rule="evenodd" opacity="1" stroke="#000000" stroke-linecap="round" stroke-linejoin="round" stroke-width="2.57573"/>
<path d="M234.413 148.596C234.339 151.685 235.103 167.692 229.536 169.554" fill="none" fill-rule="evenodd" opacity="1" stroke="#000000" stroke-linecap="round" stroke-linejoin="round" stroke-width="2.57573"/>
<path d="M222.141 149.963C221.981 156.633 222.298 163.441 223.743 169.874" fill="none" fill-rule="evenodd" opacity="1" stroke="#000000" stroke-linecap="round" stroke-linejoin="round" stroke-width="2.57573"/>
<path d="M229.291 169.776C227.044 170.834 226.107 170.759 223.738 170.105" fill="none" fill-rule="evenodd" opacity="1" stroke="#000000" stroke-linecap="round" stroke-linejoin="round" stroke-width="2.57573"/>
<path d="M222.249 154.825C219.607 153.347 216.092 156.236 213.12 157.174C210.373 158.041 207.632 158.923 204.89 159.799C195.854 162.688 186.329 164.756 177.362 167.67C175.357 168.322 172.475 169.694 170.232 170.008" fill="none" fill-rule="evenodd" opacity="1" stroke="#000000" stroke-linecap="round" stroke-linejoin="round" stroke-width="2.57573"/>
<path d="M227.209 157.808C224.213 156.121 229.49 157.896 227.822 160.596C226.411 162.881 223.688 158.635 224.254 157.426C225.237 155.328 228.257 160.532 228.257 160.532C228.257 160.532 228.099 160.007 228.02 159.744C227.172 156.933 227.042 156.599 225.331 156.854C225.007 156.903 224.185 157.574 224.482 157.804C225.676 158.73 229.111 157.379 228.732 162.106C228.58 163.998 223.848 161.351 223.445 160.015C221.441 153.369 231.12 160.012 227.209 157.808Z" fill="none" fill-rule="evenodd" opacity="1" stroke="#000000" stroke-linecap="round" stroke-linejoin="round" stroke-width="2.57573"/>
<path d="M230.126 151.3C226.595 151.332 223.181 151.516 219.713 150.774" fill="none" fill-rule="evenodd" opacity="1" stroke="#000000" stroke-linecap="round" stroke-linejoin="round" stroke-width="2.57573"/>
<path d="M201.915 231.523C201.33 230.528 200.319 229.818 199.762 228.871" fill="none" fill-rule="evenodd" opacity="1" stroke="#000000" stroke-linecap="round" stroke-linejoin="round" stroke-width="2.57573"/>
<path d="M199.584 228.792C195.749 228.195 190.758 228.913 187.073 227.358" fill="none" fill-rule="evenodd" opacity="1" stroke="#000000" stroke-linecap="round" stroke-linejoin="round" stroke-width="2.57573"/>
<path d="M208.763 372.672C211.406 372.946 215.637 374.779 216.894 375.721C219.982 378.037 218.779 379.898 220.146 382.632" fill="none" fill-rule="evenodd" opacity="1" stroke="#000000" stroke-linecap="round" stroke-linejoin="round" stroke-width="2.57573"/>
<path d="M220.692 383.372C218.541 387.673 212.613 389.737 208.215 389.737" fill="none" fill-rule="evenodd" opacity="1" stroke="#000000" stroke-linecap="round" stroke-linejoin="round" stroke-width="2.57573"/>
<path d="M208.46 389.863C207.378 389.963 205.748 389.361 204.588 389.276C200.373 388.968 195.429 389.554 191.193 389.696C186.606 389.849 182.404 390.723 178.062 389.435C177.124 389.157 175.069 389.871 174.399 388.791C173.287 387.002 173.593 383.652 173.575 381.659C173.562 380.205 173.772 379.344 174.234 378.158" fill="none" fill-rule="evenodd" opacity="1" stroke="#000000" stroke-linecap="round" stroke-linejoin="round" stroke-width="2.57573"/>
<path d="M172.085 363.81C170.595 364.803 169.284 365.22 168.144 366.74C166.023 369.567 172.21 375.835 173.442 379.738" fill="none" fill-rule="evenodd" opacity="1" stroke="#000000" stroke-linecap="round" stroke-linejoin="round" stroke-width="2.57573"/>
</g>
</g>
</svg>
